AndadaPro-XBold.ufo
<glyph name="exclam" format="2">
  <advance width="322"/>
  <unicode hex="0021"/>
  <outline>
    <contour>
      <point x="184" y="226" type="line"/>
      <point x="205" y="242" type="line"/>
      <point x="213" y="319" type="line" smooth="yes"/>
      <point x="219" y="374"/>
      <point x="268" y="594"/>
      <point x="305" y="744" type="curve"/>
      <point x="279" y="772" type="line"/>
      <point x="168" y="763" type="line"/>
      <point x="112" y="297" type="line"/>
      <point x="102" y="231" type="line"/>
    </contour>
    <contour>
      <point x="125" y="-14" type="curve" smooth="yes"/>
      <point x="174" y="-14"/>
      <point x="208" y="25"/>
      <point x="208" y="82" type="curve" smooth="yes"/>
      <point x="208" y="122"/>
      <point x="185" y="145"/>
      <point x="147" y="145" type="curve" smooth="yes"/>
      <point x="98" y="145"/>
      <point x="63" y="105"/>
      <point x="63" y="48" type="curve" smooth="yes"/>
      <point x="63" y="11"/>
      <point x="84" y="-14"/>
    </contour>
  </outline>
</glyph>
<glyph name="numbersign" format="2">
  <advance width="636"/>
  <unicode hex="0023"/>
  <outline>
    <contour>
      <point x="194" y="-15" type="line"/>
      <point x="356" y="562" type="line"/>
      <point x="277" y="572" type="line"/>
      <point x="115" y="-5" type="line"/>
    </contour>
    <contour>
      <point x="52" y="140" type="line"/>
      <point x="537" y="140" type="line"/>
      <point x="549" y="231" type="line"/>
      <point x="63" y="226" type="line"/>
    </contour>
    <contour>
      <point x="363" y="-15" type="line"/>
      <point x="524" y="562" type="line"/>
      <point x="446" y="572" type="line"/>
      <point x="284" y="-5" type="line"/>
    </contour>
    <contour>
      <point x="95" y="327" type="line"/>
      <point x="581" y="332" type="line"/>
      <point x="592" y="418" type="line"/>
      <point x="107" y="418" type="line"/>
    </contour>
  </outline>
</glyph>
<glyph name="dollar" format="2">
  <advance width="578"/>
  <unicode hex="0024"/>
  <outline>
    <contour>
      <point x="248" y="-14" type="curve" smooth="yes"/>
      <point x="393" y="-14"/>
      <point x="504" y="84"/>
      <point x="504" y="214" type="curve" smooth="yes"/>
      <point x="504" y="387"/>
      <point x="269" y="379"/>
      <point x="269" y="481" type="curve" smooth="yes"/>
      <point x="269" y="527"/>
      <point x="307" y="559"/>
      <point x="362" y="559" type="curve" smooth="yes"/>
      <point x="409" y="559"/>
      <point x="466" y="523"/>
      <point x="490" y="509" type="curve"/>
      <point x="408" y="587" type="line"/>
      <point x="415" y="552"/>
      <point x="431" y="505"/>
      <point x="430" y="496" type="curve" smooth="yes"/>
      <point x="425" y="438" type="line"/>
      <point x="497" y="435" type="line"/>
      <point x="531" y="615" type="line"/>
      <point x="474" y="634"/>
      <point x="402" y="648"/>
      <point x="339" y="648" type="curve" smooth="yes"/>
      <point x="202" y="648"/>
      <point x="104" y="561"/>
      <point x="104" y="437" type="curve" smooth="yes"/>
      <point x="104" y="257"/>
      <point x="339" y="272"/>
      <point x="339" y="160" type="curve" smooth="yes"/>
      <point x="339" y="112"/>
      <point x="300" y="79"/>
      <point x="245" y="79" type="curve" smooth="yes"/>
      <point x="182" y="79"/>
      <point x="140" y="113"/>
      <point x="102" y="131" type="curve"/>
      <point x="178" y="44" type="line"/>
      <point x="166" y="70"/>
      <point x="150" y="130"/>
      <point x="151" y="138" type="curve" smooth="yes"/>
      <point x="160" y="204" type="line"/>
      <point x="82" y="208" type="line"/>
      <point x="46" y="29" type="line"/>
      <point x="46" y="29"/>
      <point x="130" y="-14"/>
    </contour>
    <contour>
      <point x="251" y="-154" type="line"/>
      <point x="280" y="15" type="line"/>
      <point x="215" y="15" type="line"/>
      <point x="186" y="-151" type="line"/>
    </contour>
    <contour>
      <point x="313" y="616" type="line"/>
      <point x="377" y="616" type="line"/>
      <point x="406" y="785" type="line"/>
      <point x="342" y="788" type="line"/>
    </contour>
  </outline>
</glyph>
<glyph name="ampersand" format="2">
  <advance width="846"/>
  <unicode hex="0026"/>
  <outline>
    <contour>
      <point x="207" y="-18" type="curve" smooth="yes"/>
      <point x="445" y="-18"/>
      <point x="652" y="230"/>
      <point x="652" y="516" type="curve" smooth="yes"/>
      <point x="652" y="569"/>
      <point x="645" y="629"/>
      <point x="635" y="665" type="curve"/>
      <point x="503" y="615" type="line"/>
      <point x="524" y="562"/>
      <point x="536" y="495"/>
      <point x="536" y="437" type="curve" smooth="yes"/>
      <point x="536" y="247"/>
      <point x="403" y="78"/>
      <point x="263" y="78" type="curve" smooth="yes"/>
      <point x="222" y="78"/>
      <point x="199" y="104"/>
      <point x="199" y="151" type="curve" smooth="yes"/>
      <point x="199" y="267"/>
      <point x="247" y="414"/>
      <point x="285" y="414" type="curve" smooth="yes"/>
      <point x="322" y="414"/>
      <point x="338" y="405"/>
      <point x="338" y="385" type="curve" smooth="yes"/>
      <point x="338" y="321"/>
      <point x="258" y="259"/>
      <point x="163" y="250" type="curve"/>
      <point x="163" y="231"/>
      <point x="162" y="212"/>
      <point x="162" y="193" type="curve"/>
      <point x="344" y="217"/>
      <point x="461" y="308"/>
      <point x="461" y="424" type="curve" smooth="yes"/>
      <point x="461" y="476"/>
      <point x="403" y="503"/>
      <point x="294" y="503" type="curve" smooth="yes"/>
      <point x="197" y="503"/>
      <point x="67" y="292"/>
      <point x="67" y="135" type="curve" smooth="yes"/>
      <point x="67" y="38"/>
      <point x="119" y="-18"/>
    </contour>
    <contour>
      <point x="150" y="185" type="line"/>
      <point x="389" y="229"/>
      <point x="562" y="346"/>
      <point x="801" y="438" type="curve"/>
      <point x="814" y="476" type="line"/>
      <point x="752" y="556" type="line"/>
      <point x="628" y="437"/>
      <point x="391" y="286"/>
      <point x="152" y="246" type="curve"/>
    </contour>
  </outline>
</glyph>
<glyph name="quotesingle" format="2">
  <advance width="307"/>
  <unicode hex="0027"/>
  <outline>
    <contour>
      <point x="218" y="462" type="line"/>
      <point x="264" y="706" type="line"/>
      <point x="157" y="706" type="line"/>
      <point x="156" y="651"/>
      <point x="150" y="575"/>
      <point x="148" y="560" type="curve" smooth="yes"/>
      <point x="134" y="467" type="line"/>
    </contour>
  </outline>
</glyph>
<glyph name="parenleft" format="2">
  <advance width="408"/>
  <unicode hex="0028"/>
  <outline>
    <contour>
      <point x="260" y="-101" type="curve"/>
      <point x="295" y="-78" type="line"/>
      <point x="242" y="10"/>
      <point x="217" y="123"/>
      <point x="217" y="241" type="curve" smooth="yes"/>
      <point x="217" y="434"/>
      <point x="284" y="648"/>
      <point x="403" y="788" type="curve"/>
      <point x="369" y="821" type="line"/>
      <point x="190" y="682"/>
      <point x="97" y="501"/>
      <point x="97" y="278" type="curve" smooth="yes"/>
      <point x="97" y="134"/>
      <point x="145" y="9"/>
    </contour>
  </outline>
</glyph>
<glyph name="parenright" format="2">
  <advance width="407"/>
  <unicode hex="0029"/>
  <outline>
    <contour>
      <point x="174" y="816" type="curve"/>
      <point x="139" y="793" type="line"/>
      <point x="192" y="705"/>
      <point x="217" y="592"/>
      <point x="217" y="474" type="curve" smooth="yes"/>
      <point x="217" y="281"/>
      <point x="150" y="67"/>
      <point x="31" y="-73" type="curve"/>
      <point x="65" y="-106" type="line"/>
      <point x="244" y="33"/>
      <point x="337" y="214"/>
      <point x="337" y="437" type="curve" smooth="yes"/>
      <point x="337" y="581"/>
      <point x="289" y="706"/>
    </contour>
  </outline>
</glyph>
<glyph name="asterisk" format="2">
  <advance width="461"/>
  <unicode hex="002A"/>
  <outline>
    <contour>
      <point x="182" y="426" type="line"/>
      <point x="303" y="575" type="line"/>
      <point x="256" y="615" type="line"/>
      <point x="120" y="479" type="line"/>
    </contour>
    <contour>
      <point x="275" y="550" type="line"/>
      <point x="301" y="612" type="line"/>
      <point x="143" y="680" type="line"/>
      <point x="108" y="595" type="line"/>
    </contour>
    <contour>
      <point x="324" y="423" type="line"/>
      <point x="396" y="480" type="line"/>
      <point x="297" y="614" type="line"/>
      <point x="241" y="571" type="line"/>
    </contour>
    <contour>
      <point x="236" y="572" type="line"/>
      <point x="303" y="575" type="line"/>
      <point x="334" y="757" type="line"/>
      <point x="246" y="752" type="line"/>
    </contour>
    <contour>
      <point x="262" y="551" type="line"/>
      <point x="441" y="597" type="line"/>
      <point x="422" y="680" type="line"/>
      <point x="249" y="613" type="line"/>
    </contour>
  </outline>
</glyph>
<glyph name="plus" format="2">
  <advance width="691"/>
  <unicode hex="002B"/>
  <outline>
    <contour>
      <point x="264" y="0" type="line"/>
      <point x="369" y="0" type="line"/>
      <point x="424" y="511" type="line"/>
      <point x="324" y="511" type="line"/>
    </contour>
    <contour>
      <point x="88" y="203" type="line"/>
      <point x="593" y="208" type="line"/>
      <point x="605" y="308" type="line"/>
      <point x="101" y="308" type="line"/>
    </contour>
  </outline>
</glyph>
<glyph name="comma" format="2">
  <advance width="317"/>
  <unicode hex="002C"/>
  <outline>
    <contour>
      <point x="33" y="-150" type="line"/>
      <point x="134" y="-132"/>
      <point x="216" y="-29"/>
      <point x="216" y="82" type="curve" smooth="yes"/>
      <point x="216" y="123"/>
      <point x="201" y="154"/>
      <point x="156" y="154" type="curve" smooth="yes"/>
      <point x="107" y="154"/>
      <point x="72" y="114"/>
      <point x="72" y="56" type="curve" smooth="yes"/>
      <point x="72" y="19"/>
      <point x="92" y="-10"/>
      <point x="137" y="-10" type="curve" smooth="yes"/>
      <point x="153" y="-10"/>
      <point x="171" y="-7"/>
      <point x="193" y="1" type="curve"/>
      <point x="132" y="36" type="line"/>
      <point x="134" y="-41"/>
      <point x="96" y="-95"/>
      <point x="26" y="-118" type="curve"/>
    </contour>
  </outline>
</glyph>
<glyph name="hyphen" format="2">
  <advance width="348"/>
  <unicode hex="002D"/>
  <outline>
    <contour>
      <point x="65" y="206" type="line"/>
      <point x="270" y="206" type="line"/>
      <point x="287" y="301" type="line"/>
      <point x="75" y="301" type="line"/>
    </contour>
  </outline>
</glyph>
<glyph name="period" format="2">
  <advance width="326"/>
  <unicode hex="002E"/>
  <outline>
    <contour>
      <point x="129" y="-15" type="curve" smooth="yes"/>
      <point x="181" y="-15"/>
      <point x="218" y="27"/>
      <point x="218" y="87" type="curve" smooth="yes"/>
      <point x="218" y="129"/>
      <point x="194" y="154"/>
      <point x="153" y="154" type="curve" smooth="yes"/>
      <point x="102" y="154"/>
      <point x="64" y="111"/>
      <point x="64" y="52" type="curve" smooth="yes"/>
      <point x="64" y="12"/>
      <point x="87" y="-15"/>
    </contour>
  </outline>
</glyph>
<glyph name="slash" format="2">
  <advance width="412"/>
  <unicode hex="002F"/>
  <outline>
    <contour>
      <point x="66" y="-65" type="line"/>
      <point x="463" y="743" type="line"/>
      <point x="373" y="773" type="line"/>
      <point x="-25" y="-35" type="line"/>
    </contour>
  </outline>
</glyph>
<glyph name="four" format="2">
  <advance width="575"/>
  <unicode hex="0034"/>
  <outline>
    <contour>
      <point x="89" y="182" type="line"/>
      <point x="304" y="182" type="line"/>
      <point x="316" y="273" type="line"/>
      <point x="107" y="273" type="line"/>
      <point x="127" y="222" type="line"/>
      <point x="388" y="530" type="line" smooth="yes"/>
      <point x="407" y="552"/>
      <point x="518" y="655"/>
      <point x="518" y="655" type="curve"/>
      <point x="428" y="739" type="line"/>
      <point x="26" y="274" type="line"/>
    </contour>
    <contour>
      <point x="157" y="-5" type="line"/>
      <point x="198" y="-3"/>
      <point x="249" y="0"/>
      <point x="280" y="0" type="curve"/>
      <point x="497" y="0" type="line"/>
      <point x="510" y="71" type="line"/>
      <point x="360" y="81" type="line"/>
      <point x="422" y="14" type="line"/>
      <point x="423" y="55"/>
      <point x="423" y="117"/>
      <point x="428" y="160" type="curve" smooth="yes"/>
      <point x="460" y="418" type="line"/>
      <point x="312" y="370" type="line"/>
      <point x="286" y="161" type="line" smooth="yes"/>
      <point x="282" y="127"/>
      <point x="267" y="68"/>
      <point x="255" y="14" type="curve"/>
      <point x="334" y="84" type="line"/>
      <point x="161" y="65" type="line"/>
    </contour>
    <contour>
      <point x="415" y="182" type="line"/>
      <point x="522" y="182" type="line"/>
      <point x="535" y="287" type="line"/>
      <point x="427" y="281" type="line"/>
    </contour>
  </outline>
</glyph>
<glyph name="six" format="2">
  <advance width="567"/>
  <unicode hex="0036"/>
  <outline>
    <contour>
      <point x="259" y="-11" type="curve" smooth="yes"/>
      <point x="388" y="-11"/>
      <point x="524" y="80"/>
      <point x="524" y="245" type="curve" smooth="yes"/>
      <point x="524" y="348"/>
      <point x="464" y="413"/>
      <point x="356" y="413" type="curve" smooth="yes"/>
      <point x="331" y="413"/>
      <point x="304" y="410"/>
      <point x="278" y="403" type="curve"/>
      <point x="274" y="331" type="line"/>
      <point x="284" y="333"/>
      <point x="296" y="334"/>
      <point x="305" y="334" type="curve" smooth="yes"/>
      <point x="349" y="334"/>
      <point x="363" y="292"/>
      <point x="363" y="246" type="curve" smooth="yes"/>
      <point x="363" y="148"/>
      <point x="324" y="81"/>
      <point x="270" y="81" type="curve" smooth="yes"/>
      <point x="217" y="81"/>
      <point x="202" y="136"/>
      <point x="202" y="193" type="curve" smooth="yes"/>
      <point x="202" y="409"/>
      <point x="346" y="612"/>
      <point x="556" y="681" type="curve"/>
      <point x="548" y="747" type="line"/>
      <point x="265" y="697"/>
      <point x="42" y="453"/>
      <point x="42" y="202" type="curve" smooth="yes"/>
      <point x="42" y="72"/>
      <point x="123" y="-11"/>
    </contour>
  </outline>
</glyph>
<glyph name="eight" format="2">
  <advance width="562"/>
  <unicode hex="0038"/>
  <outline>
    <contour>
      <point x="247" y="-10" type="curve" smooth="yes"/>
      <point x="363" y="-10"/>
      <point x="507" y="46"/>
      <point x="507" y="190" type="curve" smooth="yes"/>
      <point x="507" y="290"/>
      <point x="428" y="335"/>
      <point x="357" y="380" type="curve" smooth="yes"/>
      <point x="299" y="417"/>
      <point x="246" y="449"/>
      <point x="246" y="508" type="curve" smooth="yes"/>
      <point x="246" y="559"/>
      <point x="281" y="600"/>
      <point x="326" y="600" type="curve" smooth="yes"/>
      <point x="365" y="600"/>
      <point x="384" y="573"/>
      <point x="384" y="535" type="curve" smooth="yes"/>
      <point x="384" y="445"/>
      <point x="288" y="369"/>
      <point x="235" y="339" type="curve"/>
      <point x="333" y="307" type="line"/>
      <point x="460" y="371"/>
      <point x="530" y="453"/>
      <point x="530" y="538" type="curve" smooth="yes"/>
      <point x="530" y="633"/>
      <point x="433" y="682"/>
      <point x="336" y="682" type="curve" smooth="yes"/>
      <point x="232" y="682"/>
      <point x="99" y="627"/>
      <point x="99" y="492" type="curve" smooth="yes"/>
      <point x="99" y="385"/>
      <point x="179" y="340"/>
      <point x="249" y="298" type="curve" smooth="yes"/>
      <point x="305" y="265"/>
      <point x="356" y="233"/>
      <point x="356" y="175" type="curve" smooth="yes"/>
      <point x="356" y="114"/>
      <point x="317" y="72"/>
      <point x="259" y="72" type="curve" smooth="yes"/>
      <point x="210" y="72"/>
      <point x="182" y="101"/>
      <point x="182" y="148" type="curve" smooth="yes"/>
      <point x="182" y="221"/>
      <point x="238" y="286"/>
      <point x="365" y="342" type="curve"/>
      <point x="271" y="391" type="line"/>
      <point x="195" y="351"/>
      <point x="33" y="277"/>
      <point x="33" y="143" type="curve" smooth="yes"/>
      <point x="33" y="38"/>
      <point x="138" y="-10"/>
    </contour>
  </outline>
</glyph>
<glyph name="nine" format="2">
  <advance width="566"/>
  <unicode hex="0039"/>
  <outline>
    <contour>
      <point x="40" y="-105" type="line"/>
      <point x="334" y="-53"/>
      <point x="542" y="210"/>
      <point x="542" y="450" type="curve" smooth="yes"/>
      <point x="542" y="576"/>
      <point x="467" y="662"/>
      <point x="324" y="662" type="curve" smooth="yes"/>
      <point x="194" y="662"/>
      <point x="59" y="562"/>
      <point x="59" y="405" type="curve" smooth="yes"/>
      <point x="59" y="299"/>
      <point x="124" y="238"/>
      <point x="238" y="238" type="curve" smooth="yes"/>
      <point x="268" y="238"/>
      <point x="291" y="243"/>
      <point x="306" y="248" type="curve"/>
      <point x="309" y="320" type="line"/>
      <point x="301" y="319"/>
      <point x="292" y="317"/>
      <point x="278" y="317" type="curve" smooth="yes"/>
      <point x="241" y="317"/>
      <point x="221" y="358"/>
      <point x="221" y="412" type="curve" smooth="yes"/>
      <point x="221" y="502"/>
      <point x="260" y="570"/>
      <point x="314" y="570" type="curve" smooth="yes"/>
      <point x="362" y="570"/>
      <point x="381" y="519"/>
      <point x="381" y="454" type="curve" smooth="yes"/>
      <point x="381" y="246"/>
      <point x="260" y="31"/>
      <point x="27" y="-31" type="curve"/>
    </contour>
  </outline>
</glyph>
<glyph name="colon" format="2">
  <advance width="293"/>
  <unicode hex="003A"/>
  <outline>
    <contour>
      <point x="158" y="328" type="curve" smooth="yes"/>
      <point x="207" y="328"/>
      <point x="241" y="368"/>
      <point x="241" y="424" type="curve" smooth="yes"/>
      <point x="241" y="463"/>
      <point x="219" y="487"/>
      <point x="180" y="487" type="curve" smooth="yes"/>
      <point x="131" y="487"/>
      <point x="96" y="447"/>
      <point x="96" y="390" type="curve" smooth="yes"/>
      <point x="96" y="353"/>
      <point x="117" y="328"/>
    </contour>
    <contour>
      <point x="109" y="-15" type="curve" smooth="yes"/>
      <point x="159" y="-15"/>
      <point x="193" y="25"/>
      <point x="193" y="81" type="curve" smooth="yes"/>
      <point x="193" y="121"/>
      <point x="170" y="144"/>
      <point x="132" y="144" type="curve" smooth="yes"/>
      <point x="83" y="144"/>
      <point x="48" y="104"/>
      <point x="48" y="47" type="curve" smooth="yes"/>
      <point x="48" y="10"/>
      <point x="69" y="-15"/>
    </contour>
  </outline>
</glyph>
<glyph name="less" format="2">
  <advance width="521"/>
  <unicode hex="003C"/>
  <outline>
    <contour>
      <point x="335" y="-15" type="line"/>
      <point x="408" y="60" type="line"/>
      <point x="184" y="291" type="line"/>
      <point x="175" y="207" type="line"/>
      <point x="448" y="438" type="line"/>
      <point x="392" y="513" type="line"/>
      <point x="81" y="249" type="line"/>
    </contour>
  </outline>
</glyph>
<glyph name="equal" format="2">
  <advance width="659"/>
  <unicode hex="003D"/>
  <outline>
    <contour>
      <point x="113" y="288" type="line"/>
      <point x="555" y="293" type="line"/>
      <point x="567" y="394" type="line"/>
      <point x="126" y="394" type="line"/>
    </contour>
    <contour>
      <point x="92" y="98" type="line"/>
      <point x="534" y="103" type="line"/>
      <point x="546" y="204" type="line"/>
      <point x="105" y="204" type="line"/>
    </contour>
  </outline>
</glyph>
<glyph name="greater" format="2">
  <advance width="522"/>
  <unicode hex="003E"/>
  <outline>
    <contour>
      <point x="129" y="-16" type="line"/>
      <point x="441" y="248" type="line"/>
      <point x="187" y="512" type="line"/>
      <point x="114" y="437" type="line"/>
      <point x="337" y="206" type="line"/>
      <point x="347" y="290" type="line"/>
      <point x="74" y="59" type="line"/>
    </contour>
  </outline>
</glyph>
<glyph name="question" format="2">
  <advance width="480"/>
  <unicode hex="003F"/>
  <outline>
    <contour>
      <point x="199" y="225" type="line"/>
      <point x="217" y="241" type="line"/>
      <point x="233" y="424" type="line"/>
      <point x="183" y="363" type="line"/>
      <point x="197" y="361"/>
      <point x="210" y="361"/>
      <point x="224" y="361" type="curve" smooth="yes"/>
      <point x="369" y="361"/>
      <point x="464" y="450"/>
      <point x="464" y="594" type="curve" smooth="yes"/>
      <point x="464" y="709"/>
      <point x="390" y="767"/>
      <point x="278" y="767" type="curve" smooth="yes"/>
      <point x="239" y="767"/>
      <point x="192" y="760"/>
      <point x="141" y="744" type="curve"/>
      <point x="132" y="587" type="line"/>
      <point x="198" y="592" type="line"/>
      <point x="200" y="625" type="line" smooth="yes"/>
      <point x="201" y="642"/>
      <point x="219" y="697"/>
      <point x="229" y="737" type="curve"/>
      <point x="143" y="671" type="line"/>
      <point x="179" y="687"/>
      <point x="214" y="696"/>
      <point x="245" y="696" type="curve" smooth="yes"/>
      <point x="301" y="696"/>
      <point x="338" y="665"/>
      <point x="338" y="600" type="curve" smooth="yes"/>
      <point x="338" y="507"/>
      <point x="285" y="433"/>
      <point x="207" y="433" type="curve" smooth="yes"/>
      <point x="197" y="433"/>
      <point x="170" y="434"/>
      <point x="154" y="436" type="curve"/>
      <point x="122" y="402" type="line"/>
      <point x="101" y="229" type="line"/>
    </contour>
    <contour>
      <point x="126" y="-15" type="curve" smooth="yes"/>
      <point x="174" y="-15"/>
      <point x="202" y="21"/>
      <point x="202" y="72" type="curve" smooth="yes"/>
      <point x="202" y="117"/>
      <point x="177" y="144"/>
      <point x="136" y="144" type="curve" smooth="yes"/>
      <point x="88" y="144"/>
      <point x="61" y="107"/>
      <point x="61" y="55" type="curve" smooth="yes"/>
      <point x="61" y="13"/>
      <point x="83" y="-15"/>
    </contour>
  </outline>
</glyph>
<glyph name="at" format="2">
  <advance width="1024"/>
  <unicode hex="0040"/>
  <outline>
    <contour>
      <point x="415" y="-208" type="curve" smooth="yes"/>
      <point x="498" y="-208"/>
      <point x="591" y="-192"/>
      <point x="689" y="-164" type="curve"/>
      <point x="682" y="-111" type="line"/>
      <point x="682" y="-111"/>
      <point x="514" y="-126"/>
      <point x="464" y="-126" type="curve" smooth="yes"/>
      <point x="294" y="-126"/>
      <point x="198" y="-33"/>
      <point x="198" y="144" type="curve" smooth="yes"/>
      <point x="198" y="384"/>
      <point x="324" y="603"/>
      <point x="564" y="603" type="curve" smooth="yes"/>
      <point x="734" y="603"/>
      <point x="851" y="509"/>
      <point x="851" y="342" type="curve" smooth="yes"/>
      <point x="851" y="180"/>
      <point x="773" y="99"/>
      <point x="688" y="63" type="curve"/>
      <point x="702" y="36" type="line"/>
      <point x="706" y="215"/>
      <point x="727" y="345"/>
      <point x="762" y="483" type="curve"/>
      <point x="724" y="509" type="line"/>
      <point x="611" y="482" type="line"/>
      <point x="609" y="435" type="line" smooth="yes"/>
      <point x="602" y="271"/>
      <point x="497" y="104"/>
      <point x="446" y="104" type="curve" smooth="yes"/>
      <point x="423" y="104"/>
      <point x="417" y="131"/>
      <point x="417" y="169" type="curve" smooth="yes"/>
      <point x="417" y="286"/>
      <point x="460" y="409"/>
      <point x="497" y="409" type="curve" smooth="yes"/>
      <point x="551" y="409"/>
      <point x="623" y="373"/>
      <point x="633" y="371" type="curve"/>
      <point x="654" y="489" type="line"/>
      <point x="634" y="490"/>
      <point x="551" y="509"/>
      <point x="514" y="509" type="curve" smooth="yes"/>
      <point x="400" y="509"/>
      <point x="283" y="306"/>
      <point x="283" y="137" type="curve" smooth="yes"/>
      <point x="283" y="58"/>
      <point x="307" y="-17"/>
      <point x="365" y="-17" type="curve" smooth="yes"/>
      <point x="472" y="-17"/>
      <point x="567" y="111"/>
      <point x="624" y="256" type="curve"/>
      <point x="612" y="272" type="line"/>
      <point x="609" y="186"/>
      <point x="572" y="80"/>
      <point x="544" y="0" type="curve"/>
      <point x="578" y="-18" type="line"/>
      <point x="796" y="-2"/>
      <point x="962" y="158"/>
      <point x="962" y="349" type="curve" smooth="yes"/>
      <point x="962" y="569"/>
      <point x="812" y="667"/>
      <point x="592" y="667" type="curve" smooth="yes"/>
      <point x="272" y="667"/>
      <point x="73" y="466"/>
      <point x="73" y="146" type="curve" smooth="yes"/>
      <point x="73" y="-114"/>
      <point x="219" y="-208"/>
    </contour>
  </outline>
</glyph>
<glyph name="A" format="2">
  <advance width="700"/>
  <unicode hex="0041"/>
  <anchor x="319" y="0" name="bottom"/>
  <anchor x="585" y="10" name="ogonek"/>
  <anchor x="420" y="705" name="top"/>
  <outline>
    <contour>
      <point x="1" y="-5" type="line"/>
      <point x="43" y="-3"/>
      <point x="105" y="0"/>
      <point x="127" y="0" type="curve" smooth="yes"/>
      <point x="235" y="0" type="line"/>
      <point x="249" y="67" type="line"/>
      <point x="135" y="80" type="line"/>
      <point x="188" y="35" type="line"/>
      <point x="190" y="62"/>
      <point x="194" y="97"/>
      <point x="204" y="120" type="curve" smooth="yes"/>
      <point x="418" y="601" type="line"/>
      <point x="369" y="587" type="line"/>
      <point x="431" y="139" type="line" smooth="yes"/>
      <point x="435" y="113"/>
      <point x="429" y="61"/>
      <point x="427" y="44" type="curve"/>
      <point x="486" y="85" type="line"/>
      <point x="369" y="61" type="line"/>
      <point x="363" y="-5" type="line"/>
      <point x="412" y="-3"/>
      <point x="480" y="0"/>
      <point x="510" y="0" type="curve" smooth="yes"/>
      <point x="636" y="0" type="line"/>
      <point x="650" y="67" type="line"/>
      <point x="539" y="79" type="line"/>
      <point x="606" y="45" type="line"/>
      <point x="599" y="59"/>
      <point x="585" y="103"/>
      <point x="580" y="130" type="curve" smooth="yes"/>
      <point x="467" y="716" type="line"/>
      <point x="366" y="705" type="line"/>
      <point x="109" y="162" type="line" smooth="yes"/>
      <point x="89" y="120"/>
      <point x="50" y="66"/>
      <point x="40" y="50" type="curve"/>
      <point x="109" y="81" type="line"/>
      <point x="5" y="60" type="line"/>
    </contour>
    <contour>
      <point x="215" y="192" type="line"/>
      <point x="447" y="192" type="line"/>
      <point x="437" y="269" type="line"/>
      <point x="247" y="266" type="line"/>
    </contour>
  </outline>
</glyph>
<glyph name="B" format="2">
  <advance width="638"/>
  <unicode hex="0042"/>
  <anchor x="286" y="0" name="bottom"/>
  <anchor x="385" y="705" name="top"/>
  <outline>
    <contour>
      <point x="10" y="-5" type="line"/>
      <point x="59" y="-3"/>
      <point x="127" y="0"/>
      <point x="156" y="0" type="curve" smooth="yes"/>
      <point x="199" y="0"/>
      <point x="281" y="-5"/>
      <point x="323" y="-5" type="curve" smooth="yes"/>
      <point x="460" y="-5"/>
      <point x="583" y="69"/>
      <point x="583" y="213" type="curve" smooth="yes"/>
      <point x="583" y="313"/>
      <point x="503" y="366"/>
      <point x="393" y="367" type="curve"/>
      <point x="429" y="308" type="line"/>
      <point x="446" y="426" type="line"/>
      <point x="398" y="365" type="line"/>
      <point x="510" y="373"/>
      <point x="605" y="455"/>
      <point x="605" y="562" type="curve" smooth="yes"/>
      <point x="605" y="657"/>
      <point x="515" y="710"/>
      <point x="409" y="710" type="curve" smooth="yes"/>
      <point x="366" y="710"/>
      <point x="276" y="705"/>
      <point x="234" y="705" type="curve" smooth="yes"/>
      <point x="215" y="705"/>
      <point x="155" y="708"/>
      <point x="115" y="710" type="curve"/>
      <point x="100" y="640" type="line"/>
      <point x="220" y="618" type="line"/>
      <point x="164" y="660" type="line"/>
      <point x="164" y="644"/>
      <point x="165" y="583"/>
      <point x="157" y="526" type="curve" smooth="yes"/>
      <point x="103" y="156" type="line" smooth="yes"/>
      <point x="98" y="124"/>
      <point x="81" y="66"/>
      <point x="73" y="41" type="curve"/>
      <point x="138" y="83" type="line"/>
      <point x="14" y="60" type="line"/>
    </contour>
    <contour>
      <point x="234" y="56" type="line"/>
      <point x="234" y="65"/>
      <point x="240" y="139"/>
      <point x="247" y="187" type="curve" smooth="yes"/>
      <point x="298" y="541" type="line" smooth="yes"/>
      <point x="303" y="574"/>
      <point x="320" y="636"/>
      <point x="326" y="659" type="curve"/>
      <point x="293" y="631" type="line"/>
      <point x="306" y="632"/>
      <point x="350" y="635"/>
      <point x="378" y="635" type="curve" smooth="yes"/>
      <point x="434" y="635"/>
      <point x="470" y="596"/>
      <point x="470" y="546" type="curve" smooth="yes"/>
      <point x="470" y="456"/>
      <point x="411" y="404"/>
      <point x="337" y="404" type="curve" smooth="yes"/>
      <point x="331" y="404" type="line"/>
      <point x="313" y="324" type="line"/>
      <point x="323" y="324" type="line" smooth="yes"/>
      <point x="387" y="324"/>
      <point x="443" y="296"/>
      <point x="443" y="220" type="curve" smooth="yes"/>
      <point x="443" y="128"/>
      <point x="381" y="71"/>
      <point x="298" y="71" type="curve" smooth="yes"/>
      <point x="271" y="71"/>
      <point x="224" y="74"/>
      <point x="212" y="76" type="curve"/>
    </contour>
  </outline>
</glyph>
<glyph name="C" format="2">
  <advance width="660"/>
  <unicode hex="0043"/>
  <anchor x="322" y="0" name="bottom"/>
  <anchor x="456" y="720" name="top"/>
  <outline>
    <contour>
      <point x="352" y="-15" type="curve" smooth="yes"/>
      <point x="434" y="-15"/>
      <point x="503" y="3"/>
      <point x="569" y="19" type="curve"/>
      <point x="585" y="186" type="line"/>
      <point x="515" y="184" type="line"/>
      <point x="513" y="173"/>
      <point x="510" y="155"/>
      <point x="505" y="135" type="curve" smooth="yes"/>
      <point x="501" y="120"/>
      <point x="474" y="65"/>
      <point x="459" y="35" type="curve"/>
      <point x="539" y="94" type="line"/>
      <point x="479" y="81"/>
      <point x="414" y="69"/>
      <point x="360" y="69" type="curve" smooth="yes"/>
      <point x="263" y="69"/>
      <point x="220" y="160"/>
      <point x="220" y="279" type="curve" smooth="yes"/>
      <point x="220" y="451"/>
      <point x="285" y="636"/>
      <point x="441" y="636" type="curve" smooth="yes"/>
      <point x="494" y="636"/>
      <point x="551" y="623"/>
      <point x="606" y="612" type="curve"/>
      <point x="543" y="675" type="line"/>
      <point x="548" y="642"/>
      <point x="557" y="589"/>
      <point x="556" y="576" type="curve" smooth="yes"/>
      <point x="550" y="519" type="line"/>
      <point x="620" y="515" type="line"/>
      <point x="657" y="686" type="line"/>
      <point x="596" y="702"/>
      <point x="535" y="720"/>
      <point x="452" y="720" type="curve" smooth="yes"/>
      <point x="197" y="720"/>
      <point x="60" y="532"/>
      <point x="60" y="286" type="curve" smooth="yes"/>
      <point x="60" y="107"/>
      <point x="159" y="-15"/>
    </contour>
  </outline>
</glyph>
<glyph name="D" format="2">
  <advance width="738"/>
  <unicode hex="0044"/>
  <anchor x="298" y="0" name="bottom"/>
  <anchor x="220" y="353" name="center"/>
  <anchor x="406" y="720" name="top"/>
  <outline>
    <contour>
      <point x="10" y="-5" type="line"/>
      <point x="52" y="-3"/>
      <point x="128" y="0"/>
      <point x="156" y="0" type="curve" smooth="yes"/>
      <point x="215" y="0"/>
      <point x="253" y="-5"/>
      <point x="311" y="-5" type="curve" smooth="yes"/>
      <point x="564" y="-5"/>
      <point x="704" y="175"/>
      <point x="704" y="416" type="curve" smooth="yes"/>
      <point x="704" y="590"/>
      <point x="601" y="710"/>
      <point x="406" y="710" type="curve" smooth="yes"/>
      <point x="363" y="710"/>
      <point x="279" y="705"/>
      <point x="234" y="705" type="curve" smooth="yes"/>
      <point x="212" y="705"/>
      <point x="153" y="708"/>
      <point x="115" y="710" type="curve"/>
      <point x="100" y="640" type="line"/>
      <point x="220" y="618" type="line"/>
      <point x="168" y="684" type="line"/>
      <point x="165" y="639"/>
      <point x="162" y="559"/>
      <point x="157" y="526" type="curve" smooth="yes"/>
      <point x="103" y="156" type="line" smooth="yes"/>
      <point x="99" y="129"/>
      <point x="82" y="68"/>
      <point x="72" y="36" type="curve"/>
      <point x="138" y="83" type="line"/>
      <point x="14" y="60" type="line"/>
    </contour>
    <contour>
      <point x="234" y="55" type="line"/>
      <point x="234" y="82"/>
      <point x="240" y="136"/>
      <point x="247" y="186" type="curve" smooth="yes"/>
      <point x="298" y="541" type="line" smooth="yes"/>
      <point x="302" y="567"/>
      <point x="319" y="635"/>
      <point x="330" y="681" type="curve"/>
      <point x="264" y="629" type="line"/>
      <point x="301" y="631"/>
      <point x="349" y="633"/>
      <point x="390" y="633" type="curve" smooth="yes"/>
      <point x="509" y="633"/>
      <point x="555" y="536"/>
      <point x="555" y="420" type="curve" smooth="yes"/>
      <point x="555" y="255"/>
      <point x="497" y="72"/>
      <point x="308" y="72" type="curve" smooth="yes"/>
      <point x="280" y="72"/>
      <point x="210" y="76"/>
      <point x="187" y="78" type="curve"/>
    </contour>
  </outline>
</glyph>
<glyph name="E" format="2">
  <advance width="607"/>
  <unicode hex="0045"/>
  <anchor x="269" y="0" name="bottom"/>
  <anchor x="492" y="0" name="ogonek"/>
  <anchor x="370" y="720" name="top"/>
  <anchor x="97" y="705" name="topleft"/>
  <outline>
    <contour>
      <point x="10" y="-5" type="line"/>
      <point x="65" y="-2"/>
      <point x="127" y="0"/>
      <point x="156" y="0" type="curve" smooth="yes"/>
      <point x="376" y="0" type="line" smooth="yes"/>
      <point x="403" y="0"/>
      <point x="451" y="0"/>
      <point x="492" y="0" type="curve"/>
      <point x="507" y="14" type="line"/>
      <point x="547" y="184" type="line"/>
      <point x="482" y="189" type="line"/>
      <point x="478" y="173"/>
      <point x="467" y="141"/>
      <point x="462" y="130" type="curve" smooth="yes"/>
      <point x="456" y="116"/>
      <point x="433" y="79"/>
      <point x="402" y="44" type="curve"/>
      <point x="460" y="93" type="line"/>
      <point x="443" y="89"/>
      <point x="402" y="80"/>
      <point x="359" y="80" type="curve" smooth="yes"/>
      <point x="180" y="80" type="line"/>
      <point x="234" y="49" type="line"/>
      <point x="234" y="64"/>
      <point x="240" y="138"/>
      <point x="247" y="186" type="curve" smooth="yes"/>
      <point x="275" y="377" type="line"/>
      <point x="211" y="322" type="line"/>
      <point x="333" y="322" type="line" smooth="yes"/>
      <point x="352" y="322"/>
      <point x="413" y="315"/>
      <point x="453" y="310" type="curve"/>
      <point x="397" y="372" type="line"/>
      <point x="396" y="254" type="line"/>
      <point x="456" y="260" type="line"/>
      <point x="463" y="330"/>
      <point x="472" y="387"/>
      <point x="485" y="466" type="curve"/>
      <point x="428" y="471" type="line"/>
      <point x="393" y="349" type="line"/>
      <point x="464" y="411" type="line"/>
      <point x="417" y="403"/>
      <point x="374" y="397"/>
      <point x="363" y="397" type="curve" smooth="yes"/>
      <point x="221" y="397" type="line"/>
      <point x="269" y="342" type="line"/>
      <point x="299" y="541" type="line" smooth="yes"/>
      <point x="303" y="569"/>
      <point x="321" y="642"/>
      <point x="326" y="664" type="curve"/>
      <point x="261" y="630" type="line"/>
      <point x="426" y="630" type="line" smooth="yes"/>
      <point x="457" y="630"/>
      <point x="520" y="625"/>
      <point x="556" y="623" type="curve"/>
      <point x="486" y="679" type="line"/>
      <point x="496" y="652"/>
      <point x="510" y="601"/>
      <point x="510" y="591" type="curve" smooth="yes"/>
      <point x="510" y="576"/>
      <point x="511" y="557"/>
      <point x="511" y="541" type="curve"/>
      <point x="578" y="546" type="line"/>
      <point x="594" y="692" type="line"/>
      <point x="578" y="710" type="line"/>
      <point x="540" y="708"/>
      <point x="493" y="705"/>
      <point x="466" y="705" type="curve" smooth="yes"/>
      <point x="234" y="705" type="line" smooth="yes"/>
      <point x="203" y="705"/>
      <point x="155" y="708"/>
      <point x="115" y="710" type="curve"/>
      <point x="100" y="640" type="line"/>
      <point x="220" y="618" type="line"/>
      <point x="166" y="657" type="line"/>
      <point x="166" y="645"/>
      <point x="162" y="560"/>
      <point x="157" y="526" type="curve" smooth="yes"/>
      <point x="103" y="156" type="line" smooth="yes"/>
      <point x="99" y="129"/>
      <point x="80" y="62"/>
      <point x="71" y="39" type="curve"/>
      <point x="138" y="83" type="line"/>
      <point x="14" y="60" type="line"/>
    </contour>
  </outline>
</glyph>
<glyph name="F" format="2">
  <advance width="579"/>
  <unicode hex="0046"/>
  <anchor x="251" y="0" name="bottom"/>
  <anchor x="352" y="720" name="top"/>
  <outline>
    <contour>
      <point x="10" y="-5" type="line"/>
      <point x="59" y="-3"/>
      <point x="127" y="0"/>
      <point x="156" y="0" type="curve" smooth="yes"/>
      <point x="293" y="0" type="line"/>
      <point x="308" y="66" type="line"/>
      <point x="182" y="79" type="line"/>
      <point x="238" y="31" type="line"/>
      <point x="238" y="63"/>
      <point x="238" y="126"/>
      <point x="247" y="186" type="curve" smooth="yes"/>
      <point x="275" y="377" type="line"/>
      <point x="209" y="312" type="line"/>
      <point x="331" y="312" type="line" smooth="yes"/>
      <point x="351" y="312"/>
      <point x="411" y="305"/>
      <point x="451" y="300" type="curve"/>
      <point x="396" y="362" type="line"/>
      <point x="394" y="244" type="line"/>
      <point x="454" y="250" type="line"/>
      <point x="461" y="317"/>
      <point x="471" y="383"/>
      <point x="484" y="456" type="curve"/>
      <point x="427" y="461" type="line"/>
      <point x="392" y="339" type="line"/>
      <point x="463" y="401" type="line"/>
      <point x="427" y="395"/>
      <point x="374" y="387"/>
      <point x="361" y="387" type="curve" smooth="yes"/>
      <point x="220" y="387" type="line"/>
      <point x="269" y="342" type="line"/>
      <point x="298" y="541" type="line" smooth="yes"/>
      <point x="302" y="570"/>
      <point x="321" y="642"/>
      <point x="326" y="664" type="curve"/>
      <point x="261" y="630" type="line"/>
      <point x="426" y="630" type="line" smooth="yes"/>
      <point x="457" y="630"/>
      <point x="520" y="625"/>
      <point x="556" y="623" type="curve"/>
      <point x="486" y="679" type="line"/>
      <point x="496" y="652"/>
      <point x="510" y="601"/>
      <point x="510" y="591" type="curve" smooth="yes"/>
      <point x="510" y="576"/>
      <point x="511" y="557"/>
      <point x="511" y="541" type="curve"/>
      <point x="578" y="546" type="line"/>
      <point x="594" y="692" type="line"/>
      <point x="578" y="710" type="line"/>
      <point x="540" y="708"/>
      <point x="493" y="705"/>
      <point x="466" y="705" type="curve" smooth="yes"/>
      <point x="234" y="705" type="line" smooth="yes"/>
      <point x="203" y="705"/>
      <point x="155" y="708"/>
      <point x="115" y="710" type="curve"/>
      <point x="100" y="640" type="line"/>
      <point x="220" y="618" type="line"/>
      <point x="166" y="657" type="line"/>
      <point x="166" y="645"/>
      <point x="162" y="560"/>
      <point x="157" y="526" type="curve" smooth="yes"/>
      <point x="103" y="156" type="line" smooth="yes"/>
      <point x="99" y="130"/>
      <point x="84" y="75"/>
      <point x="72" y="42" type="curve"/>
      <point x="138" y="83" type="line"/>
      <point x="14" y="60" type="line"/>
    </contour>
  </outline>
</glyph>
<glyph name="G" format="2">
  <advance width="706"/>
  <unicode hex="0047"/>
  <anchor x="383" y="0" name="bottom"/>
  <anchor x="533" y="181" name="center"/>
  <anchor x="459" y="720" name="top"/>
  <outline>
    <contour>
      <point x="367" y="-15" type="curve" smooth="yes"/>
      <point x="455" y="-15"/>
      <point x="530" y="2"/>
      <point x="597" y="19" type="curve"/>
      <point x="622" y="189" type="line" smooth="yes"/>
      <point x="626" y="217"/>
      <point x="640" y="281"/>
      <point x="651" y="336" type="curve"/>
      <point x="629" y="359" type="line"/>
      <point x="591" y="357"/>
      <point x="540" y="356"/>
      <point x="525" y="356" type="curve" smooth="yes"/>
      <point x="417" y="356" type="line"/>
      <point x="400" y="268" type="line"/>
      <point x="558" y="255" type="line"/>
      <point x="501" y="316" type="line"/>
      <point x="504" y="239"/>
      <point x="503" y="209"/>
      <point x="502" y="196" type="curve" smooth="yes"/>
      <point x="477" y="26" type="line"/>
      <point x="519" y="88" type="line"/>
      <point x="478" y="79"/>
      <point x="424" y="69"/>
      <point x="376" y="69" type="curve" smooth="yes"/>
      <point x="267" y="69"/>
      <point x="220" y="163"/>
      <point x="220" y="284" type="curve" smooth="yes"/>
      <point x="220" y="460"/>
      <point x="291" y="636"/>
      <point x="457" y="636" type="curve" smooth="yes"/>
      <point x="506" y="636"/>
      <point x="562" y="626"/>
      <point x="614" y="609" type="curve"/>
      <point x="572" y="648" type="line"/>
      <point x="576" y="630"/>
      <point x="584" y="588"/>
      <point x="583" y="576" type="curve" smooth="yes"/>
      <point x="577" y="519" type="line"/>
      <point x="648" y="515" type="line"/>
      <point x="684" y="686" type="line"/>
      <point x="623" y="702"/>
      <point x="550" y="720"/>
      <point x="467" y="720" type="curve" smooth="yes"/>
      <point x="202" y="720"/>
      <point x="60" y="534"/>
      <point x="60" y="289" type="curve" smooth="yes"/>
      <point x="60" y="108"/>
      <point x="164" y="-15"/>
    </contour>
  </outline>
</glyph>
<glyph name="H" format="2">
  <advance width="796"/>
  <unicode hex="0048"/>
  <anchor x="361" y="0" name="bottom"/>
  <anchor x="433" y="520" name="center"/>
  <anchor x="462" y="720" name="top"/>
  <anchor x="97" y="705" name="topleft"/>
  <outline>
    <contour>
      <point x="427" y="-5" type="line"/>
      <point x="476" y="-3"/>
      <point x="545" y="0"/>
      <point x="574" y="0" type="curve" smooth="yes"/>
      <point x="708" y="0" type="line"/>
      <point x="723" y="66" type="line"/>
      <point x="599" y="79" type="line"/>
      <point x="656" y="39" type="line"/>
      <point x="655" y="62"/>
      <point x="656" y="132"/>
      <point x="664" y="186" type="curve" smooth="yes"/>
      <point x="715" y="541" type="line" smooth="yes"/>
      <point x="720" y="575"/>
      <point x="741" y="645"/>
      <point x="747" y="666" type="curve"/>
      <point x="681" y="623" type="line"/>
      <point x="804" y="635" type="line"/>
      <point x="810" y="710" type="line"/>
      <point x="757" y="708"/>
      <point x="695" y="705"/>
      <point x="651" y="705" type="curve" smooth="yes"/>
      <point x="632" y="705"/>
      <point x="572" y="708"/>
      <point x="533" y="710" type="curve"/>
      <point x="517" y="640" type="line"/>
      <point x="637" y="618" type="line"/>
      <point x="581" y="666" type="line"/>
      <point x="581" y="640"/>
      <point x="582" y="575"/>
      <point x="575" y="526" type="curve" smooth="yes"/>
      <point x="520" y="156" type="line" smooth="yes"/>
      <point x="517" y="134"/>
      <point x="499" y="71"/>
      <point x="492" y="47" type="curve"/>
      <point x="556" y="83" type="line"/>
      <point x="432" y="60" type="line"/>
    </contour>
    <contour>
      <point x="10" y="-5" type="line"/>
      <point x="59" y="-3"/>
      <point x="127" y="0"/>
      <point x="156" y="0" type="curve" smooth="yes"/>
      <point x="291" y="0" type="line"/>
      <point x="305" y="66" type="line"/>
      <point x="182" y="79" type="line"/>
      <point x="238" y="39" type="line"/>
      <point x="238" y="59"/>
      <point x="239" y="130"/>
      <point x="247" y="186" type="curve" smooth="yes"/>
      <point x="298" y="541" type="line" smooth="yes"/>
      <point x="303" y="574"/>
      <point x="322" y="639"/>
      <point x="329" y="666" type="curve"/>
      <point x="263" y="623" type="line"/>
      <point x="387" y="635" type="line"/>
      <point x="393" y="710" type="line"/>
      <point x="340" y="708"/>
      <point x="277" y="705"/>
      <point x="234" y="705" type="curve" smooth="yes"/>
      <point x="215" y="705"/>
      <point x="155" y="708"/>
      <point x="115" y="710" type="curve"/>
      <point x="100" y="640" type="line"/>
      <point x="220" y="618" type="line"/>
      <point x="164" y="666" type="line"/>
      <point x="164" y="641"/>
      <point x="164" y="573"/>
      <point x="157" y="526" type="curve" smooth="yes"/>
      <point x="103" y="156" type="line" smooth="yes"/>
      <point x="99" y="130"/>
      <point x="82" y="73"/>
      <point x="75" y="47" type="curve"/>
      <point x="138" y="83" type="line"/>
      <point x="14" y="60" type="line"/>
    </contour>
    <contour>
      <point x="240" y="308" type="line"/>
      <point x="568" y="308" type="line"/>
      <point x="580" y="391" type="line"/>
      <point x="251" y="386" type="line"/>
    </contour>
  </outline>
</glyph>
<glyph name="I" format="2">
  <advance width="378"/>
  <unicode hex="0049"/>
  <anchor x="153" y="0" name="bottom"/>
  <anchor x="294" y="10" name="ogonek"/>
  <anchor x="254" y="720" name="top"/>
  <anchor x="97" y="705" name="topleft"/>
  <outline>
    <contour>
      <point x="10" y="-5" type="line"/>
      <point x="59" y="-3"/>
      <point x="127" y="0"/>
      <point x="156" y="0" type="curve" smooth="yes"/>
      <point x="291" y="0" type="line"/>
      <point x="305" y="66" type="line"/>
      <point x="182" y="79" type="line"/>
      <point x="238" y="39" type="line"/>
      <point x="238" y="59"/>
      <point x="239" y="130"/>
      <point x="247" y="186" type="curve" smooth="yes"/>
      <point x="298" y="541" type="line" smooth="yes"/>
      <point x="303" y="574"/>
      <point x="322" y="639"/>
      <point x="329" y="666" type="curve"/>
      <point x="263" y="623" type="line"/>
      <point x="387" y="635" type="line"/>
      <point x="393" y="710" type="line"/>
      <point x="340" y="708"/>
      <point x="277" y="705"/>
      <point x="234" y="705" type="curve" smooth="yes"/>
      <point x="215" y="705"/>
      <point x="155" y="708"/>
      <point x="115" y="710" type="curve"/>
      <point x="100" y="640" type="line"/>
      <point x="220" y="618" type="line"/>
      <point x="164" y="666" type="line"/>
      <point x="164" y="641"/>
      <point x="164" y="573"/>
      <point x="157" y="526" type="curve" smooth="yes"/>
      <point x="103" y="156" type="line" smooth="yes"/>
      <point x="99" y="130"/>
      <point x="82" y="73"/>
      <point x="75" y="47" type="curve"/>
      <point x="138" y="83" type="line"/>
      <point x="14" y="60" type="line"/>
    </contour>
  </outline>
</glyph>
<glyph name="J" format="2">
  <advance width="353"/>
  <unicode hex="004A"/>
  <anchor x="142" y="0" name="bottom"/>
  <anchor x="228" y="705" name="top"/>
  <outline>
    <contour>
      <point x="10" y="-200" type="line"/>
      <point x="106" y="-119"/>
      <point x="199" y="-26"/>
      <point x="204" y="5" type="curve" smooth="yes"/>
      <point x="282" y="541" type="line"/>
      <point x="287" y="574"/>
      <point x="306" y="639"/>
      <point x="313" y="666" type="curve"/>
      <point x="247" y="623" type="line"/>
      <point x="371" y="635" type="line"/>
      <point x="377" y="710" type="line"/>
      <point x="324" y="708"/>
      <point x="261" y="705"/>
      <point x="218" y="705" type="curve" smooth="yes"/>
      <point x="199" y="705"/>
      <point x="139" y="708"/>
      <point x="99" y="710" type="curve"/>
      <point x="84" y="640" type="line"/>
      <point x="204" y="618" type="line"/>
      <point x="148" y="666" type="line"/>
      <point x="148" y="646"/>
      <point x="149" y="576"/>
      <point x="141" y="526" type="curve"/>
      <point x="66" y="11" type="line" smooth="yes"/>
      <point x="63" y="-9"/>
      <point x="-35" y="-171"/>
      <point x="-35" y="-171" type="curve"/>
    </contour>
  </outline>
</glyph>
<glyph name="K" format="2">
  <advance width="750"/>
  <unicode hex="004B"/>
  <anchor x="339" y="0" name="bottom"/>
  <anchor x="440" y="720" name="top"/>
  <outline>
    <contour>
      <point x="395" y="-5" type="line"/>
      <point x="444" y="-3"/>
      <point x="512" y="0"/>
      <point x="541" y="0" type="curve" smooth="yes"/>
      <point x="678" y="0" type="line"/>
      <point x="693" y="67" type="line"/>
      <point x="588" y="81" type="line"/>
      <point x="663" y="54" type="line"/>
      <point x="652" y="62"/>
      <point x="610" y="108"/>
      <point x="595" y="129" type="curve" smooth="yes"/>
      <point x="400" y="414" type="line"/>
      <point x="393" y="327" type="line"/>
      <point x="583" y="546" type="line" smooth="yes"/>
      <point x="602" y="568"/>
      <point x="665" y="625"/>
      <point x="696" y="649" type="curve"/>
      <point x="616" y="622" type="line"/>
      <point x="732" y="635" type="line"/>
      <point x="738" y="710" type="line"/>
      <point x="693" y="708"/>
      <point x="639" y="705"/>
      <point x="604" y="705" type="curve" smooth="yes"/>
      <point x="584" y="705"/>
      <point x="527" y="708"/>
      <point x="489" y="710" type="curve"/>
      <point x="473" y="640" type="line"/>
      <point x="562" y="621" type="line"/>
      <point x="528" y="663" type="line"/>
      <point x="500" y="619"/>
      <point x="484" y="596"/>
      <point x="469" y="577" type="curve" smooth="yes"/>
      <point x="277" y="353" type="line"/>
      <point x="396" y="164" type="line" smooth="yes"/>
      <point x="413" y="137"/>
      <point x="446" y="62"/>
      <point x="449" y="55" type="curve"/>
      <point x="498" y="81" type="line"/>
      <point x="399" y="60" type="line"/>
    </contour>
    <contour>
      <point x="10" y="-5" type="line"/>
      <point x="59" y="-3"/>
      <point x="127" y="0"/>
      <point x="156" y="0" type="curve" smooth="yes"/>
      <point x="291" y="0" type="line"/>
      <point x="305" y="66" type="line"/>
      <point x="182" y="79" type="line"/>
      <point x="238" y="39" type="line"/>
      <point x="238" y="59"/>
      <point x="239" y="130"/>
      <point x="247" y="186" type="curve" smooth="yes"/>
      <point x="298" y="541" type="line" smooth="yes"/>
      <point x="303" y="574"/>
      <point x="322" y="639"/>
      <point x="329" y="666" type="curve"/>
      <point x="263" y="623" type="line"/>
      <point x="387" y="635" type="line"/>
      <point x="393" y="710" type="line"/>
      <point x="340" y="708"/>
      <point x="277" y="705"/>
      <point x="234" y="705" type="curve" smooth="yes"/>
      <point x="215" y="705"/>
      <point x="155" y="708"/>
      <point x="115" y="710" type="curve"/>
      <point x="100" y="640" type="line"/>
      <point x="220" y="618" type="line"/>
      <point x="164" y="666" type="line"/>
      <point x="164" y="641"/>
      <point x="164" y="573"/>
      <point x="157" y="526" type="curve" smooth="yes"/>
      <point x="103" y="156" type="line" smooth="yes"/>
      <point x="99" y="130"/>
      <point x="82" y="73"/>
      <point x="75" y="47" type="curve"/>
      <point x="138" y="83" type="line"/>
      <point x="14" y="60" type="line"/>
    </contour>
  </outline>
</glyph>
<glyph name="L" format="2">
  <advance width="567"/>
  <unicode hex="004C"/>
  <anchor x="275" y="0" name="bottom"/>
  <anchor x="207" y="355" name="center"/>
  <anchor x="548" y="423" name="centerright"/>
  <anchor x="294" y="720" name="top"/>
  <anchor x="494" y="494" name="topright"/>
  <outline>
    <contour>
      <point x="10" y="-5" type="line"/>
      <point x="59" y="-3"/>
      <point x="103" y="0"/>
      <point x="132" y="0" type="curve" smooth="yes"/>
      <point x="352" y="0" type="line" smooth="yes"/>
      <point x="377" y="0"/>
      <point x="425" y="-2"/>
      <point x="462" y="-4" type="curve"/>
      <point x="483" y="14" type="line"/>
      <point x="522" y="184" type="line"/>
      <point x="458" y="189" type="line"/>
      <point x="450" y="162"/>
      <point x="445" y="149"/>
      <point x="437" y="129" type="curve" smooth="yes"/>
      <point x="429" y="110"/>
      <point x="409" y="79"/>
      <point x="378" y="44" type="curve"/>
      <point x="436" y="93" type="line"/>
      <point x="419" y="89"/>
      <point x="377" y="80"/>
      <point x="335" y="80" type="curve" smooth="yes"/>
      <point x="162" y="80" type="line"/>
      <point x="238" y="39" type="line"/>
      <point x="238" y="59"/>
      <point x="239" y="130"/>
      <point x="247" y="186" type="curve" smooth="yes"/>
      <point x="298" y="541" type="line" smooth="yes"/>
      <point x="303" y="574"/>
      <point x="322" y="639"/>
      <point x="329" y="666" type="curve"/>
      <point x="263" y="623" type="line"/>
      <point x="387" y="635" type="line"/>
      <point x="393" y="710" type="line"/>
      <point x="340" y="708"/>
      <point x="277" y="705"/>
      <point x="234" y="705" type="curve" smooth="yes"/>
      <point x="215" y="705"/>
      <point x="155" y="708"/>
      <point x="115" y="710" type="curve"/>
      <point x="100" y="640" type="line"/>
      <point x="220" y="618" type="line"/>
      <point x="164" y="666" type="line"/>
      <point x="164" y="641"/>
      <point x="164" y="573"/>
      <point x="157" y="526" type="curve" smooth="yes"/>
      <point x="103" y="156" type="line" smooth="yes"/>
      <point x="99" y="130"/>
      <point x="82" y="73"/>
      <point x="75" y="47" type="curve"/>
      <point x="138" y="83" type="line"/>
      <point x="14" y="60" type="line"/>
    </contour>
  </outline>
</glyph>
<glyph name="M" format="2">
  <advance width="935"/>
  <unicode hex="004D"/>
  <anchor x="438.672" y="0" name="bottom"/>
  <anchor x="525.235" y="705" name="top"/>
  <outline>
    <contour>
      <point x="5" y="-5" type="line"/>
      <point x="46" y="-3"/>
      <point x="105" y="0"/>
      <point x="133" y="0" type="curve" smooth="yes"/>
      <point x="246" y="0" type="line"/>
      <point x="260" y="66" type="line"/>
      <point x="138" y="79" type="line"/>
      <point x="195" y="39" type="line"/>
      <point x="195" y="62"/>
      <point x="197" y="134"/>
      <point x="205" y="187" type="curve"/>
      <point x="285" y="590" type="line"/>
      <point x="264" y="590" type="line"/>
      <point x="377" y="0" type="line"/>
      <point x="456" y="0" type="line"/>
      <point x="744" y="586" type="line"/>
      <point x="725" y="591" type="line"/>
      <point x="681" y="157" type="line" smooth="yes"/>
      <point x="679" y="134"/>
      <point x="662" y="72"/>
      <point x="655" y="47" type="curve"/>
      <point x="711" y="83" type="line"/>
      <point x="594" y="60" type="line"/>
      <point x="590" y="-5" type="line"/>
      <point x="638" y="-3"/>
      <point x="701" y="0"/>
      <point x="729" y="0" type="curve" smooth="yes"/>
      <point x="863" y="0" type="line"/>
      <point x="878" y="66" type="line"/>
      <point x="755" y="79" type="line"/>
      <point x="815" y="39" type="line"/>
      <point x="813" y="62"/>
      <point x="808" y="141"/>
      <point x="811" y="186" type="curve" smooth="yes"/>
      <point x="837" y="541" type="line" smooth="yes"/>
      <point x="840" y="575"/>
      <point x="856" y="643"/>
      <point x="865" y="672" type="curve"/>
      <point x="797" y="623" type="line"/>
      <point x="920" y="635" type="line"/>
      <point x="927" y="710" type="line"/>
      <point x="873" y="708"/>
      <point x="801" y="705"/>
      <point x="767" y="705" type="curve" smooth="yes"/>
      <point x="709" y="705" type="line"/>
      <point x="687" y="685" type="line"/>
      <point x="625" y="546" type="line"/>
      <point x="438" y="159" type="line"/>
      <point x="472" y="154" type="line"/>
      <point x="405" y="533" type="line"/>
      <point x="383" y="685" type="line"/>
      <point x="368" y="705" type="line"/>
      <point x="255" y="705" type="line" smooth="yes"/>
      <point x="235" y="705"/>
      <point x="176" y="708"/>
      <point x="136" y="710" type="curve"/>
      <point x="121" y="640" type="line"/>
      <point x="240" y="618" type="line"/>
      <point x="184" y="672" type="line"/>
      <point x="184" y="654"/>
      <point x="189" y="581"/>
      <point x="177" y="526" type="curve" smooth="yes"/>
      <point x="100" y="157" type="line"/>
      <point x="96" y="133"/>
      <point x="77" y="73"/>
      <point x="69" y="47" type="curve"/>
      <point x="133" y="83" type="line"/>
      <point x="9" y="60" type="line"/>
    </contour>
  </outline>
</glyph>
<glyph name="N" format="2">
  <advance width="790"/>
  <unicode hex="004E"/>
  <anchor x="357" y="0" name="bottom"/>
  <anchor x="458" y="720" name="top"/>
  <outline>
    <contour>
      <point x="10" y="-5" type="line"/>
      <point x="51" y="-3"/>
      <point x="109" y="0"/>
      <point x="138" y="0" type="curve" smooth="yes"/>
      <point x="261" y="0" type="line"/>
      <point x="276" y="66" type="line"/>
      <point x="154" y="79" type="line"/>
      <point x="210" y="39" type="line"/>
      <point x="210" y="76"/>
      <point x="214" y="145"/>
      <point x="220" y="186" type="curve" smooth="yes"/>
      <point x="270" y="532" type="line"/>
      <point x="236" y="526" type="line"/>
      <point x="519" y="0" type="line"/>
      <point x="638" y="0" type="line"/>
      <point x="717" y="541" type="line" smooth="yes"/>
      <point x="722" y="574"/>
      <point x="740" y="627"/>
      <point x="752" y="660" type="curve"/>
      <point x="684" y="623" type="line"/>
      <point x="808" y="635" type="line"/>
      <point x="814" y="710" type="line"/>
      <point x="774" y="708"/>
      <point x="698" y="705"/>
      <point x="666" y="705" type="curve" smooth="yes"/>
      <point x="652" y="705"/>
      <point x="595" y="708"/>
      <point x="560" y="710" type="curve"/>
      <point x="545" y="640" type="line"/>
      <point x="665" y="618" type="line"/>
      <point x="609" y="673" type="line"/>
      <point x="609" y="643"/>
      <point x="611" y="582"/>
      <point x="603" y="526" type="curve" smooth="yes"/>
      <point x="549" y="158" type="line"/>
      <point x="584" y="164" type="line"/>
      <point x="383" y="535" type="line"/>
      <point x="318" y="685" type="line"/>
      <point x="302" y="705" type="line"/>
      <point x="234" y="705" type="line" smooth="yes"/>
      <point x="215" y="705"/>
      <point x="154" y="708"/>
      <point x="115" y="710" type="curve"/>
      <point x="99" y="640" type="line"/>
      <point x="219" y="618" type="line"/>
      <point x="163" y="669" type="line"/>
      <point x="163" y="651"/>
      <point x="165" y="583"/>
      <point x="157" y="526" type="curve" smooth="yes"/>
      <point x="103" y="157" type="line" smooth="yes"/>
      <point x="100" y="137"/>
      <point x="82" y="73"/>
      <point x="75" y="48" type="curve"/>
      <point x="138" y="83" type="line"/>
      <point x="14" y="60" type="line"/>
    </contour>
  </outline>
</glyph>
<glyph name="P" format="2">
  <advance width="621"/>
  <unicode hex="0050"/>
  <anchor x="278.672" y="0" name="bottom"/>
  <anchor x="365.235" y="705" name="top"/>
  <outline>
    <contour>
      <point x="10" y="-5" type="line"/>
      <point x="59" y="-3"/>
      <point x="127" y="0"/>
      <point x="156" y="0" type="curve" smooth="yes"/>
      <point x="301" y="0" type="line"/>
      <point x="315" y="66" type="line"/>
      <point x="182" y="79" type="line"/>
      <point x="238" y="39" type="line"/>
      <point x="238" y="59"/>
      <point x="239" y="130"/>
      <point x="247" y="186" type="curve" smooth="yes"/>
      <point x="298" y="541" type="line" smooth="yes"/>
      <point x="303" y="573"/>
      <point x="319" y="639"/>
      <point x="326" y="666" type="curve"/>
      <point x="253" y="631" type="line"/>
      <point x="293" y="634"/>
      <point x="336" y="636"/>
      <point x="351" y="636" type="curve" smooth="yes"/>
      <point x="430" y="636"/>
      <point x="469" y="599"/>
      <point x="469" y="526" type="curve" smooth="yes"/>
      <point x="469" y="410"/>
      <point x="399" y="346"/>
      <point x="297" y="346" type="curve" smooth="yes"/>
      <point x="260" y="346"/>
      <point x="207" y="346"/>
      <point x="175" y="346" type="curve"/>
      <point x="164" y="274" type="line"/>
      <point x="217" y="273"/>
      <point x="269" y="272"/>
      <point x="322" y="272" type="curve" smooth="yes"/>
      <point x="470" y="272"/>
      <point x="614" y="365"/>
      <point x="614" y="528" type="curve" smooth="yes"/>
      <point x="614" y="645"/>
      <point x="534" y="710"/>
      <point x="413" y="710" type="curve" smooth="yes"/>
      <point x="366" y="710"/>
      <point x="282" y="705"/>
      <point x="234" y="705" type="curve" smooth="yes"/>
      <point x="215" y="705"/>
      <point x="155" y="708"/>
      <point x="115" y="710" type="curve"/>
      <point x="100" y="640" type="line"/>
      <point x="220" y="618" type="line"/>
      <point x="164" y="666" type="line"/>
      <point x="164" y="641"/>
      <point x="164" y="573"/>
      <point x="157" y="526" type="curve" smooth="yes"/>
      <point x="103" y="156" type="line" smooth="yes"/>
      <point x="99" y="130"/>
      <point x="82" y="73"/>
      <point x="75" y="47" type="curve"/>
      <point x="138" y="83" type="line"/>
      <point x="14" y="60" type="line"/>
    </contour>
  </outline>
</glyph>
<glyph name="Q" format="2">
  <advance width="787"/>
  <unicode hex="0051"/>
  <anchor x="361" y="0" name="bottom"/>
  <anchor x="447" y="705" name="top"/>
  <outline>
    <contour>
      <point x="355" y="-15" type="curve" smooth="yes"/>
      <point x="594" y="-15"/>
      <point x="753" y="164"/>
      <point x="753" y="414" type="curve" smooth="yes"/>
      <point x="753" y="598"/>
      <point x="643" y="720"/>
      <point x="457" y="720" type="curve" smooth="yes"/>
      <point x="218" y="720"/>
      <point x="59" y="541"/>
      <point x="59" y="290" type="curve" smooth="yes"/>
      <point x="59" y="107"/>
      <point x="169" y="-15"/>
    </contour>
    <contour>
      <point x="615" y="-224" type="line"/>
      <point x="713" y="-108" type="line"/>
      <point x="665" y="-86"/>
      <point x="583" y="-49"/>
      <point x="570" y="-39" type="curve" smooth="yes"/>
      <point x="500" y="17" type="line"/>
      <point x="365" y="-7" type="line"/>
    </contour>
    <contour>
      <point x="365" y="71" type="curve" smooth="yes"/>
      <point x="266" y="71"/>
      <point x="219" y="146"/>
      <point x="219" y="274" type="curve" smooth="yes"/>
      <point x="219" y="479"/>
      <point x="288" y="634"/>
      <point x="448" y="634" type="curve" smooth="yes"/>
      <point x="546" y="634"/>
      <point x="593" y="559"/>
      <point x="593" y="430" type="curve" smooth="yes"/>
      <point x="593" y="225"/>
      <point x="523" y="71"/>
    </contour>
  </outline>
</glyph>
<glyph name="R" format="2">
  <advance width="673"/>
  <unicode hex="0052"/>
  <anchor x="321" y="0" name="bottom"/>
  <anchor x="372" y="720" name="top"/>
  <outline>
    <contour>
      <point x="10" y="-5" type="line"/>
      <point x="59" y="-3"/>
      <point x="127" y="0"/>
      <point x="156" y="0" type="curve" smooth="yes"/>
      <point x="291" y="0" type="line"/>
      <point x="305" y="66" type="line"/>
      <point x="182" y="79" type="line"/>
      <point x="238" y="39" type="line"/>
      <point x="238" y="59"/>
      <point x="239" y="130"/>
      <point x="247" y="186" type="curve" smooth="yes"/>
      <point x="298" y="541" type="line" smooth="yes"/>
      <point x="303" y="574"/>
      <point x="322" y="639"/>
      <point x="329" y="666" type="curve"/>
      <point x="212" y="628" type="line"/>
      <point x="249" y="630"/>
      <point x="330" y="636"/>
      <point x="352" y="636" type="curve" smooth="yes"/>
      <point x="431" y="636"/>
      <point x="474" y="601"/>
      <point x="474" y="530" type="curve" smooth="yes"/>
      <point x="474" y="427"/>
      <point x="427" y="359"/>
      <point x="310" y="359" type="curve" smooth="yes"/>
      <point x="269" y="359"/>
      <point x="225" y="360"/>
      <point x="170" y="362" type="curve"/>
      <point x="167" y="292" type="line"/>
      <point x="218" y="289"/>
      <point x="284" y="283"/>
      <point x="320" y="283" type="curve" smooth="yes"/>
      <point x="471" y="283"/>
      <point x="618" y="380"/>
      <point x="618" y="536" type="curve" smooth="yes"/>
      <point x="618" y="646"/>
      <point x="537" y="710"/>
      <point x="415" y="710" type="curve" smooth="yes"/>
      <point x="367" y="710"/>
      <point x="282" y="705"/>
      <point x="234" y="705" type="curve" smooth="yes"/>
      <point x="215" y="705"/>
      <point x="155" y="708"/>
      <point x="115" y="710" type="curve"/>
      <point x="100" y="640" type="line"/>
      <point x="220" y="618" type="line"/>
      <point x="164" y="666" type="line"/>
      <point x="164" y="641"/>
      <point x="164" y="573"/>
      <point x="157" y="526" type="curve" smooth="yes"/>
      <point x="103" y="156" type="line" smooth="yes"/>
      <point x="99" y="130"/>
      <point x="82" y="73"/>
      <point x="75" y="47" type="curve"/>
      <point x="138" y="83" type="line"/>
      <point x="14" y="60" type="line"/>
    </contour>
    <contour>
      <point x="423" y="0" type="curve"/>
      <point x="606" y="0" type="line"/>
      <point x="620" y="67" type="line"/>
      <point x="511" y="76" type="line"/>
      <point x="584" y="41" type="line"/>
      <point x="573" y="60"/>
      <point x="546" y="114"/>
      <point x="539" y="129" type="curve" smooth="yes"/>
      <point x="533" y="143"/>
      <point x="483" y="243"/>
      <point x="449" y="349" type="curve"/>
      <point x="307" y="345" type="line"/>
      <point x="390" y="116" type="line" smooth="yes"/>
      <point x="401" y="85"/>
      <point x="414" y="34"/>
    </contour>
  </outline>
</glyph>
<glyph name="S" format="2">
  <advance width="581"/>
  <unicode hex="0053"/>
  <anchor x="244" y="0" name="bottom"/>
  <anchor x="359" y="720" name="top"/>
  <outline>
    <contour>
      <point x="250" y="-15" type="curve" smooth="yes"/>
      <point x="400" y="-15"/>
      <point x="526" y="74"/>
      <point x="526" y="226" type="curve" smooth="yes"/>
      <point x="526" y="420"/>
      <point x="250" y="415"/>
      <point x="250" y="538" type="curve" smooth="yes"/>
      <point x="250" y="599"/>
      <point x="298" y="637"/>
      <point x="363" y="637" type="curve" smooth="yes"/>
      <point x="417" y="637"/>
      <point x="451" y="610"/>
      <point x="478" y="592" type="curve"/>
      <point x="432" y="674" type="line"/>
      <point x="439" y="642"/>
      <point x="451" y="589"/>
      <point x="451" y="576" type="curve" smooth="yes"/>
      <point x="451" y="569"/>
      <point x="445" y="532"/>
      <point x="441" y="508" type="curve"/>
      <point x="517" y="503" type="line"/>
      <point x="557" y="685" type="line"/>
      <point x="493" y="705"/>
      <point x="414" y="720"/>
      <point x="349" y="720" type="curve" smooth="yes"/>
      <point x="206" y="720"/>
      <point x="96" y="635"/>
      <point x="96" y="497" type="curve" smooth="yes"/>
      <point x="96" y="301"/>
      <point x="371" y="310"/>
      <point x="371" y="180" type="curve" smooth="yes"/>
      <point x="371" y="110"/>
      <point x="316" y="73"/>
      <point x="251" y="73" type="curve" smooth="yes"/>
      <point x="187" y="73"/>
      <point x="145" y="101"/>
      <point x="130" y="109" type="curve"/>
      <point x="152" y="83" type="line"/>
      <point x="148" y="94"/>
      <point x="139" y="130"/>
      <point x="139" y="143" type="curve" smooth="yes"/>
      <point x="139" y="148"/>
      <point x="148" y="212"/>
      <point x="148" y="212" type="curve"/>
      <point x="72" y="218" type="line"/>
      <point x="30" y="34" type="line"/>
      <point x="92" y="3"/>
      <point x="171" y="-15"/>
    </contour>
  </outline>
</glyph>
<glyph name="T" format="2">
  <advance width="661"/>
  <unicode hex="0054"/>
  <anchor x="291" y="0" name="bottom"/>
  <anchor x="341" y="353" name="center"/>
  <anchor x="392" y="720" name="top"/>
  <outline>
    <contour>
      <point x="138" y="-5" type="line"/>
      <point x="186" y="-3"/>
      <point x="266" y="0"/>
      <point x="294" y="0" type="curve" smooth="yes"/>
      <point x="438" y="0" type="line"/>
      <point x="453" y="66" type="line"/>
      <point x="320" y="79" type="line"/>
      <point x="376" y="39" type="line"/>
      <point x="375" y="62"/>
      <point x="378" y="134"/>
      <point x="385" y="186" type="curve" smooth="yes"/>
      <point x="436" y="541" type="line" smooth="yes"/>
      <point x="442" y="582"/>
      <point x="462" y="645"/>
      <point x="467" y="666" type="curve"/>
      <point x="302" y="666" type="line"/>
      <point x="302" y="640"/>
      <point x="302" y="574"/>
      <point x="295" y="526" type="curve" smooth="yes"/>
      <point x="241" y="156" type="line" smooth="yes"/>
      <point x="237" y="131"/>
      <point x="219" y="71"/>
      <point x="213" y="47" type="curve"/>
      <point x="276" y="83" type="line"/>
      <point x="142" y="60" type="line"/>
    </contour>
    <contour>
      <point x="138" y="511" type="line"/>
      <point x="142" y="530"/>
      <point x="156" y="580"/>
      <point x="160" y="590" type="curve" smooth="yes"/>
      <point x="163" y="596"/>
      <point x="188" y="649"/>
      <point x="201" y="677" type="curve"/>
      <point x="129" y="623" type="line"/>
      <point x="159" y="625"/>
      <point x="223" y="630"/>
      <point x="257" y="630" type="curve" smooth="yes"/>
      <point x="504" y="630" type="line" smooth="yes"/>
      <point x="534" y="630"/>
      <point x="579" y="626"/>
      <point x="607" y="623" type="curve"/>
      <point x="565" y="678" type="line"/>
      <point x="574" y="651"/>
      <point x="588" y="599"/>
      <point x="589" y="589" type="curve" smooth="yes"/>
      <point x="590" y="577"/>
      <point x="588" y="530"/>
      <point x="588" y="511" type="curve"/>
      <point x="655" y="516" type="line"/>
      <point x="672" y="692" type="line"/>
      <point x="656" y="710" type="line"/>
      <point x="617" y="708"/>
      <point x="559" y="705"/>
      <point x="541" y="705" type="curve" smooth="yes"/>
      <point x="238" y="705" type="line" smooth="yes"/>
      <point x="221" y="705"/>
      <point x="163" y="708"/>
      <point x="126" y="710" type="curve"/>
      <point x="103" y="692" type="line"/>
      <point x="71" y="516" type="line"/>
    </contour>
  </outline>
</glyph>
<glyph name="U" format="2">
  <advance width="760"/>
  <unicode hex="0055"/>
  <anchor x="338" y="0" name="bottom"/>
  <anchor x="628" y="460" name="horn"/>
  <anchor x="453" y="0" name="ogonek"/>
  <anchor x="439" y="720" name="top"/>
  <anchor x="782" y="705" name="topright"/>
  <outline>
    <contour>
      <point x="334" y="-15" type="curve" smooth="yes"/>
      <point x="512" y="-15"/>
      <point x="624" y="93"/>
      <point x="650" y="268" type="curve" smooth="yes"/>
      <point x="690" y="541" type="line" smooth="yes"/>
      <point x="695" y="574"/>
      <point x="712" y="634"/>
      <point x="721" y="664" type="curve"/>
      <point x="655" y="623" type="line"/>
      <point x="778" y="635" type="line"/>
      <point x="785" y="710" type="line"/>
      <point x="735" y="708"/>
      <point x="672" y="705"/>
      <point x="636" y="705" type="curve" smooth="yes"/>
      <point x="617" y="705"/>
      <point x="563" y="708"/>
      <point x="527" y="710" type="curve"/>
      <point x="512" y="640" type="line"/>
      <point x="632" y="618" type="line"/>
      <point x="576" y="668" type="line"/>
      <point x="576" y="651"/>
      <point x="578" y="583"/>
      <point x="570" y="526" type="curve" smooth="yes"/>
      <point x="531" y="261" type="line" smooth="yes"/>
      <point x="515" y="155"/>
      <point x="467" y="87"/>
      <point x="363" y="87" type="curve" smooth="yes"/>
      <point x="281" y="87"/>
      <point x="238" y="143"/>
      <point x="238" y="223" type="curve" smooth="yes"/>
      <point x="238" y="247"/>
      <point x="242" y="269"/>
      <point x="283" y="541" type="curve" smooth="yes"/>
      <point x="288" y="575"/>
      <point x="307" y="637"/>
      <point x="314" y="665" type="curve"/>
      <point x="248" y="623" type="line"/>
      <point x="371" y="635" type="line"/>
      <point x="378" y="710" type="line"/>
      <point x="324" y="708"/>
      <point x="252" y="705"/>
      <point x="216" y="705" type="curve" smooth="yes"/>
      <point x="198" y="705"/>
      <point x="135" y="708"/>
      <point x="95" y="710" type="curve"/>
      <point x="80" y="640" type="line"/>
      <point x="200" y="618" type="line"/>
      <point x="144" y="664" type="line"/>
      <point x="144" y="650"/>
      <point x="145" y="583"/>
      <point x="137" y="526" type="curve" smooth="yes"/>
      <point x="100" y="270"/>
      <point x="95" y="243"/>
      <point x="96" y="208" type="curve" smooth="yes"/>
      <point x="96" y="73"/>
      <point x="172" y="-15"/>
    </contour>
  </outline>
</glyph>
<glyph name="V" format="2">
  <advance width="689"/>
  <unicode hex="0056"/>
  <anchor x="297" y="0" name="bottom"/>
  <anchor x="398" y="720" name="top"/>
  <outline>
    <contour>
      <point x="255" y="0" type="line"/>
      <point x="357" y="0" type="line"/>
      <point x="626" y="541" type="line" smooth="yes"/>
      <point x="646" y="581"/>
      <point x="691" y="642"/>
      <point x="701" y="656" type="curve"/>
      <point x="626" y="620" type="line"/>
      <point x="706" y="635" type="line"/>
      <point x="713" y="710" type="line"/>
      <point x="666" y="708"/>
      <point x="610" y="705"/>
      <point x="584" y="705" type="curve" smooth="yes"/>
      <point x="569" y="705"/>
      <point x="503" y="708"/>
      <point x="468" y="710" type="curve"/>
      <point x="452" y="640" type="line"/>
      <point x="598" y="617" type="line"/>
      <point x="554" y="660" type="line"/>
      <point x="548" y="639"/>
      <point x="515" y="553"/>
      <point x="503" y="527" type="curve" smooth="yes"/>
      <point x="323" y="141" type="line"/>
      <point x="356" y="137" type="line"/>
      <point x="286" y="541" type="line" smooth="yes"/>
      <point x="281" y="569"/>
      <point x="278" y="644"/>
      <point x="278" y="670" type="curve"/>
      <point x="223" y="623" type="line"/>
      <point x="359" y="635" type="line"/>
      <point x="365" y="710" type="line"/>
      <point x="311" y="708"/>
      <point x="227" y="705"/>
      <point x="192" y="705" type="curve" smooth="yes"/>
      <point x="173" y="705"/>
      <point x="132" y="708"/>
      <point x="92" y="710" type="curve"/>
      <point x="77" y="640" type="line"/>
      <point x="171" y="618" type="line"/>
      <point x="109" y="652" type="line"/>
      <point x="114" y="634"/>
      <point x="135" y="560"/>
      <point x="142" y="526" type="curve" smooth="yes"/>
    </contour>
  </outline>
</glyph>
<glyph name="W" format="2">
  <advance width="990"/>
  <unicode hex="0057"/>
  <anchor x="458" y="0" name="bottom"/>
  <anchor x="544" y="705" name="top"/>
  <outline>
    <contour>
      <point x="225" y="0" type="line"/>
      <point x="328" y="0" type="line"/>
      <point x="545" y="496" type="line"/>
      <point x="514" y="499" type="line"/>
      <point x="592" y="0" type="line"/>
      <point x="694" y="0" type="line"/>
      <point x="936" y="541" type="line" smooth="yes"/>
      <point x="951" y="575"/>
      <point x="993" y="638"/>
      <point x="1007" y="656" type="curve"/>
      <point x="936" y="620" type="line"/>
      <point x="1006" y="635" type="line"/>
      <point x="1013" y="710" type="line"/>
      <point x="966" y="708"/>
      <point x="920" y="705"/>
      <point x="894" y="705" type="curve" smooth="yes"/>
      <point x="879" y="705"/>
      <point x="813" y="708"/>
      <point x="778" y="710" type="curve"/>
      <point x="762" y="640" type="line"/>
      <point x="908" y="617" type="line"/>
      <point x="864" y="660" type="line"/>
      <point x="858" y="638"/>
      <point x="826" y="549"/>
      <point x="817" y="526" type="curve" smooth="yes"/>
      <point x="661" y="140" type="line"/>
      <point x="688" y="136" type="line"/>
      <point x="619" y="678" type="line"/>
      <point x="520" y="678" type="line"/>
      <point x="294" y="141" type="line"/>
      <point x="321" y="136" type="line"/>
      <point x="280" y="541" type="line" smooth="yes"/>
      <point x="277" y="571"/>
      <point x="278" y="642"/>
      <point x="278" y="670" type="curve"/>
      <point x="223" y="623" type="line"/>
      <point x="359" y="635" type="line"/>
      <point x="365" y="710" type="line"/>
      <point x="311" y="708"/>
      <point x="227" y="705"/>
      <point x="192" y="705" type="curve" smooth="yes"/>
      <point x="173" y="705"/>
      <point x="132" y="708"/>
      <point x="92" y="710" type="curve"/>
      <point x="77" y="640" type="line"/>
      <point x="171" y="618" type="line"/>
      <point x="109" y="652" type="line"/>
      <point x="115" y="631"/>
      <point x="130" y="559"/>
      <point x="136" y="526" type="curve" smooth="yes"/>
    </contour>
  </outline>
</glyph>
<glyph name="X" format="2">
  <advance width="746"/>
  <unicode hex="0058"/>
  <anchor x="343.672" y="0" name="bottom"/>
  <anchor x="430.235" y="705" name="top"/>
  <outline>
    <contour>
      <point x="10" y="-5" type="line"/>
      <point x="53" y="-3"/>
      <point x="116" y="0"/>
      <point x="139" y="0" type="curve" smooth="yes"/>
      <point x="250" y="0" type="line"/>
      <point x="265" y="67" type="line"/>
      <point x="157" y="80" type="line"/>
      <point x="193" y="42" type="line"/>
      <point x="208" y="67"/>
      <point x="237" y="113"/>
      <point x="253" y="134" type="curve" smooth="yes"/>
      <point x="392" y="310" type="line"/>
      <point x="331" y="315" type="line"/>
      <point x="418" y="148" type="line" smooth="yes"/>
      <point x="432" y="121"/>
      <point x="452" y="65"/>
      <point x="459" y="40" type="curve"/>
      <point x="504" y="83" type="line"/>
      <point x="399" y="61" type="line"/>
      <point x="394" y="-5" type="line"/>
      <point x="444" y="-3"/>
      <point x="515" y="0"/>
      <point x="545" y="0" type="curve" smooth="yes"/>
      <point x="671" y="0" type="line"/>
      <point x="685" y="67" type="line"/>
      <point x="579" y="80" type="line"/>
      <point x="645" y="57" type="line"/>
      <point x="609" y="108"/>
      <point x="599" y="124"/>
      <point x="589" y="141" type="curve" smooth="yes"/>
      <point x="435" y="425" type="line"/>
      <point x="427" y="331" type="line"/>
      <point x="603" y="558" type="line" smooth="yes"/>
      <point x="623" y="584"/>
      <point x="683" y="633"/>
      <point x="701" y="648" type="curve"/>
      <point x="619" y="621" type="line"/>
      <point x="746" y="635" type="line"/>
      <point x="752" y="710" type="line"/>
      <point x="708" y="708"/>
      <point x="646" y="705"/>
      <point x="620" y="705" type="curve" smooth="yes"/>
      <point x="600" y="705"/>
      <point x="547" y="708"/>
      <point x="510" y="710" type="curve"/>
      <point x="495" y="639" type="line"/>
      <point x="595" y="620" type="line"/>
      <point x="560" y="664" type="line"/>
      <point x="547" y="640"/>
      <point x="509" y="585"/>
      <point x="494" y="564" type="curve" smooth="yes"/>
      <point x="383" y="412" type="line"/>
      <point x="441" y="407" type="line"/>
      <point x="375" y="541" type="line" smooth="yes"/>
      <point x="357" y="578"/>
      <point x="338" y="634"/>
      <point x="334" y="655" type="curve"/>
      <point x="285" y="623" type="line"/>
      <point x="390" y="634" type="line"/>
      <point x="396" y="710" type="line"/>
      <point x="344" y="708"/>
      <point x="274" y="705"/>
      <point x="240" y="705" type="curve" smooth="yes"/>
      <point x="216" y="705"/>
      <point x="158" y="708"/>
      <point x="117" y="710" type="curve"/>
      <point x="101" y="640" type="line"/>
      <point x="213" y="620" type="line"/>
      <point x="141" y="656" type="line"/>
      <point x="164" y="621"/>
      <point x="188" y="577"/>
      <point x="204" y="549" type="curve" smooth="yes"/>
      <point x="339" y="296" type="line"/>
      <point x="348" y="390" type="line"/>
      <point x="164" y="165" type="line" smooth="yes"/>
      <point x="138" y="133"/>
      <point x="72" y="74"/>
      <point x="49" y="52" type="curve"/>
      <point x="124" y="82" type="line"/>
      <point x="14" y="60" type="line"/>
    </contour>
  </outline>
</glyph>
<glyph name="Y" format="2">
  <advance width="683"/>
  <unicode hex="0059"/>
  <anchor x="300" y="0" name="bottom"/>
  <anchor x="401" y="720" name="top"/>
  <anchor x="87" y="705" name="topleft"/>
  <outline>
    <contour>
      <point x="295" y="218" type="line"/>
      <point x="397" y="218" type="line"/>
      <point x="605" y="541" type="line" smooth="yes"/>
      <point x="627" y="575"/>
      <point x="684" y="640"/>
      <point x="696" y="656" type="curve"/>
      <point x="621" y="620" type="line"/>
      <point x="701" y="635" type="line"/>
      <point x="708" y="710" type="line"/>
      <point x="662" y="708"/>
      <point x="604" y="705"/>
      <point x="579" y="705" type="curve" smooth="yes"/>
      <point x="564" y="705"/>
      <point x="508" y="708"/>
      <point x="473" y="710" type="curve"/>
      <point x="458" y="640" type="line"/>
      <point x="594" y="617" type="line"/>
      <point x="549" y="660" type="line"/>
      <point x="543" y="638"/>
      <point x="496" y="548"/>
      <point x="483" y="527" type="curve" smooth="yes"/>
      <point x="349" y="315" type="line"/>
      <point x="398" y="310" type="line"/>
      <point x="309" y="556" type="line" smooth="yes"/>
      <point x="302" y="575"/>
      <point x="292" y="647"/>
      <point x="292" y="670" type="curve"/>
      <point x="232" y="623" type="line"/>
      <point x="358" y="635" type="line"/>
      <point x="364" y="710" type="line"/>
      <point x="310" y="708"/>
      <point x="234" y="705"/>
      <point x="201" y="705" type="curve" smooth="yes"/>
      <point x="181" y="705"/>
      <point x="132" y="708"/>
      <point x="92" y="710" type="curve"/>
      <point x="77" y="640" type="line"/>
      <point x="179" y="618" type="line"/>
      <point x="113" y="652" type="line"/>
      <point x="121" y="635"/>
      <point x="163" y="556"/>
      <point x="174" y="528" type="curve" smooth="yes"/>
    </contour>
    <contour>
      <point x="162" y="-5" type="line"/>
      <point x="211" y="-3"/>
      <point x="290" y="0"/>
      <point x="318" y="0" type="curve" smooth="yes"/>
      <point x="463" y="0" type="line"/>
      <point x="477" y="66" type="line"/>
      <point x="344" y="79" type="line"/>
      <point x="400" y="39" type="line"/>
      <point x="400" y="62"/>
      <point x="401" y="132"/>
      <point x="409" y="186" type="curve" smooth="yes"/>
      <point x="430" y="328" type="line"/>
      <point x="291" y="328" type="line"/>
      <point x="265" y="156" type="line" smooth="yes"/>
      <point x="261" y="130"/>
      <point x="244" y="73"/>
      <point x="237" y="47" type="curve"/>
      <point x="300" y="83" type="line"/>
      <point x="166" y="60" type="line"/>
    </contour>
  </outline>
</glyph>
<glyph name="Z" format="2">
  <advance width="623"/>
  <unicode hex="005A"/>
  <anchor x="276" y="0" name="bottom"/>
  <anchor x="326" y="353" name="center"/>
  <anchor x="367" y="720" name="top"/>
  <outline>
    <contour>
      <point x="506" y="-4" type="curve"/>
      <point x="529" y="14" type="line"/>
      <point x="567" y="192" type="line"/>
      <point x="504" y="197" type="line"/>
      <point x="500" y="181"/>
      <point x="489" y="148"/>
      <point x="483" y="134" type="curve" smooth="yes"/>
      <point x="478" y="121"/>
      <point x="451" y="79"/>
      <point x="429" y="48" type="curve"/>
      <point x="508" y="98" type="line"/>
      <point x="485" y="93"/>
      <point x="415" y="81"/>
      <point x="374" y="81" type="curve" smooth="yes"/>
      <point x="157" y="81" type="line"/>
      <point x="194" y="50" type="line"/>
      <point x="224" y="98"/>
      <point x="267" y="171"/>
      <point x="289" y="201" type="curve" smooth="yes"/>
      <point x="487" y="471" type="line" smooth="yes"/>
      <point x="520" y="516"/>
      <point x="564" y="572"/>
      <point x="611" y="631" type="curve"/>
      <point x="612" y="705" type="line"/>
      <point x="253" y="705" type="line" smooth="yes"/>
      <point x="237" y="705"/>
      <point x="182" y="710"/>
      <point x="143" y="714" type="curve"/>
      <point x="121" y="696" type="line"/>
      <point x="90" y="516" type="line"/>
      <point x="157" y="511" type="line"/>
      <point x="162" y="532"/>
      <point x="173" y="571"/>
      <point x="177" y="580" type="curve" smooth="yes"/>
      <point x="183" y="593"/>
      <point x="208" y="635"/>
      <point x="227" y="666" type="curve"/>
      <point x="173" y="618" type="line"/>
      <point x="184" y="618"/>
      <point x="236" y="624"/>
      <point x="279" y="624" type="curve" smooth="yes"/>
      <point x="491" y="624" type="line"/>
      <point x="454" y="657" type="line"/>
      <point x="429" y="613"/>
      <point x="395" y="553"/>
      <point x="372" y="522" type="curve" smooth="yes"/>
      <point x="158" y="232" type="line" smooth="yes"/>
      <point x="131" y="195"/>
      <point x="81" y="136"/>
      <point x="29" y="74" type="curve"/>
      <point x="28" y="0" type="line"/>
      <point x="396" y="0" type="line" smooth="yes"/>
      <point x="415" y="0"/>
      <point x="469" y="-2"/>
    </contour>
  </outline>
</glyph>
<glyph name="bracketleft" format="2">
  <advance width="440"/>
  <unicode hex="005B"/>
  <outline>
    <contour>
      <point x="319" y="-107" type="line"/>
      <point x="330" y="-41" type="line"/>
      <point x="157" y="-24" type="line"/>
      <point x="211" y="-96" type="line"/>
      <point x="211" y="-2"/>
      <point x="213" y="47"/>
      <point x="215" y="63" type="curve" smooth="yes"/>
      <point x="287" y="653" type="line" smooth="yes"/>
      <point x="289" y="673"/>
      <point x="310" y="761"/>
      <point x="322" y="813" type="curve"/>
      <point x="250" y="746" type="line"/>
      <point x="426" y="764" type="line"/>
      <point x="431" y="829" type="line"/>
      <point x="219" y="825" type="line"/>
      <point x="192" y="799" type="line"/>
      <point x="192" y="786"/>
      <point x="176" y="624"/>
      <point x="174" y="607" type="curve" smooth="yes"/>
      <point x="114" y="125" type="line" smooth="yes"/>
      <point x="112" y="105"/>
      <point x="87" y="-63"/>
      <point x="86" y="-71" type="curve"/>
      <point x="107" y="-103" type="line"/>
    </contour>
  </outline>
</glyph>
<glyph name="backslash" format="2">
  <advance width="406"/>
  <unicode hex="005C"/>
  <outline>
    <contour>
      <point x="263" y="-65" type="line"/>
      <point x="361" y="-35" type="line"/>
      <point x="168" y="773" type="line"/>
      <point x="71" y="743" type="line"/>
    </contour>
  </outline>
</glyph>
<glyph name="bracketright" format="2">
  <advance width="439"/>
  <unicode hex="005D"/>
  <outline>
    <contour>
      <point x="148" y="829" type="line"/>
      <point x="137" y="763" type="line"/>
      <point x="310" y="746" type="line"/>
      <point x="256" y="818" type="line"/>
      <point x="256" y="722"/>
      <point x="254" y="675"/>
      <point x="252" y="659" type="curve" smooth="yes"/>
      <point x="180" y="69" type="line" smooth="yes"/>
      <point x="177" y="49"/>
      <point x="159" y="-33"/>
      <point x="145" y="-91" type="curve"/>
      <point x="217" y="-24" type="line"/>
      <point x="41" y="-42" type="line"/>
      <point x="36" y="-107" type="line"/>
      <point x="248" y="-103" type="line"/>
      <point x="275" y="-77" type="line"/>
      <point x="275" y="-65"/>
      <point x="291" y="95"/>
      <point x="293" y="115" type="curve" smooth="yes"/>
      <point x="353" y="597" type="line" smooth="yes"/>
      <point x="355" y="617"/>
      <point x="380" y="785"/>
      <point x="381" y="793" type="curve"/>
      <point x="360" y="825" type="line"/>
    </contour>
  </outline>
</glyph>
<glyph name="asciicircum" format="2">
  <advance width="650"/>
  <unicode hex="005E"/>
  <outline>
    <contour>
      <point x="153" y="314" type="line"/>
      <point x="406" y="630" type="line"/>
      <point x="333" y="630" type="line"/>
      <point x="513" y="314" type="line"/>
      <point x="609" y="373" type="line"/>
      <point x="382" y="732" type="line"/>
      <point x="71" y="373" type="line"/>
    </contour>
  </outline>
</glyph>
<glyph name="a" format="2">
  <advance width="568"/>
  <unicode hex="0061"/>
  <anchor x="248" y="0" name="bottom"/>
  <anchor x="406" y="0" name="ogonek"/>
  <anchor x="318" y="494" name="top"/>
  <outline>
    <contour>
      <point x="110" y="-15" type="curve" smooth="yes"/>
      <point x="218" y="-15"/>
      <point x="316" y="113"/>
      <point x="375" y="266" type="curve"/>
      <point x="363" y="282" type="line"/>
      <point x="361" y="198"/>
      <point x="320" y="86"/>
      <point x="290" y="3" type="curve"/>
      <point x="325" y="-15" type="line"/>
      <point x="526" y="27" type="line"/>
      <point x="530" y="80" type="line"/>
      <point x="389" y="93" type="line"/>
      <point x="450" y="38" type="line"/>
      <point x="454" y="215"/>
      <point x="482" y="351"/>
      <point x="516" y="485" type="curve"/>
      <point x="476" y="513" type="line"/>
      <point x="358" y="484" type="line"/>
      <point x="356" y="438" type="line" smooth="yes"/>
      <point x="349" y="273"/>
      <point x="246" y="114"/>
      <point x="197" y="114" type="curve" smooth="yes"/>
      <point x="174" y="114"/>
      <point x="170" y="140"/>
      <point x="170" y="175" type="curve" smooth="yes"/>
      <point x="170" y="292"/>
      <point x="210" y="407"/>
      <point x="245" y="407" type="curve" smooth="yes"/>
      <point x="299" y="407"/>
      <point x="370" y="372"/>
      <point x="380" y="370" type="curve"/>
      <point x="403" y="492" type="line"/>
      <point x="383" y="493"/>
      <point x="300" y="513"/>
      <point x="262" y="513" type="curve" smooth="yes"/>
      <point x="146" y="513"/>
      <point x="30" y="312"/>
      <point x="30" y="140" type="curve" smooth="yes"/>
      <point x="30" y="62"/>
      <point x="53" y="-15"/>
    </contour>
  </outline>
</glyph>
<glyph name="b" format="2">
  <advance width="535"/>
  <unicode hex="0062"/>
  <anchor x="233" y="0" name="bottom"/>
  <anchor x="340" y="756" name="top"/>
  <outline>
    <contour>
      <point x="56" y="-15" type="line"/>
      <point x="213" y="13" type="line"/>
      <point x="129" y="6" type="line"/>
      <point x="140" y="7"/>
      <point x="233" y="-15"/>
      <point x="273" y="-15" type="curve" smooth="yes"/>
      <point x="389" y="-15"/>
      <point x="505" y="186"/>
      <point x="505" y="358" type="curve" smooth="yes"/>
      <point x="505" y="436"/>
      <point x="482" y="513"/>
      <point x="425" y="513" type="curve" smooth="yes"/>
      <point x="333" y="513"/>
      <point x="243" y="412"/>
      <point x="179" y="247" type="curve"/>
      <point x="190" y="255" type="line"/>
      <point x="209" y="379"/>
      <point x="252" y="578"/>
      <point x="289" y="742" type="curve"/>
      <point x="255" y="770" type="line"/>
      <point x="57" y="737" type="line"/>
      <point x="60" y="684" type="line"/>
      <point x="190" y="667" type="line"/>
      <point x="129" y="692" type="line"/>
      <point x="124" y="611"/>
      <point x="87" y="232"/>
      <point x="21" y="3" type="curve"/>
    </contour>
    <contour>
      <point x="179" y="60" type="line"/>
      <point x="186" y="225"/>
      <point x="288" y="384"/>
      <point x="338" y="384" type="curve" smooth="yes"/>
      <point x="361" y="384"/>
      <point x="364" y="358"/>
      <point x="364" y="323" type="curve" smooth="yes"/>
      <point x="364" y="206"/>
      <point x="325" y="90"/>
      <point x="290" y="90" type="curve" smooth="yes"/>
      <point x="242" y="90"/>
      <point x="170" y="122"/>
      <point x="130" y="140" type="curve"/>
    </contour>
  </outline>
</glyph>
<glyph name="c" format="2">
  <advance width="434"/>
  <unicode hex="0063"/>
  <anchor x="158" y="0" name="bottom"/>
  <anchor x="283" y="494" name="top"/>
  <outline>
    <contour>
      <point x="159" y="-15" type="curve" smooth="yes"/>
      <point x="244" y="-15"/>
      <point x="331" y="42"/>
      <point x="385" y="122" type="curve"/>
      <point x="338" y="162" type="line"/>
      <point x="289" y="113"/>
      <point x="248" y="86"/>
      <point x="215" y="86" type="curve" smooth="yes"/>
      <point x="182" y="86"/>
      <point x="165" y="109"/>
      <point x="165" y="152" type="curve" smooth="yes"/>
      <point x="165" y="270"/>
      <point x="211" y="415"/>
      <point x="250" y="415" type="curve" smooth="yes"/>
      <point x="284" y="415"/>
      <point x="322" y="403"/>
      <point x="380" y="376" type="curve"/>
      <point x="326" y="462" type="line"/>
      <point x="326" y="305" type="line"/>
      <point x="381" y="302" type="line"/>
      <point x="416" y="465" type="line"/>
      <point x="391" y="504" type="line"/>
      <point x="361" y="508"/>
      <point x="294" y="513"/>
      <point x="256" y="513" type="curve" smooth="yes"/>
      <point x="157" y="513"/>
      <point x="26" y="298"/>
      <point x="26" y="138" type="curve" smooth="yes"/>
      <point x="26" y="41"/>
      <point x="76" y="-15"/>
    </contour>
  </outline>
</glyph>
<glyph name="d" format="2">
  <advance width="567"/>
  <unicode hex="0064"/>
  <anchor x="245" y="0" name="bottom"/>
  <anchor x="412" y="585" name="center"/>
  <anchor x="354" y="756" name="top"/>
  <anchor x="606" y="494" name="topright"/>
  <outline>
    <contour>
      <point x="110" y="-15" type="curve" smooth="yes"/>
      <point x="218" y="-15"/>
      <point x="316" y="113"/>
      <point x="375" y="266" type="curve"/>
      <point x="363" y="279" type="line"/>
      <point x="361" y="195"/>
      <point x="320" y="83"/>
      <point x="290" y="0" type="curve"/>
      <point x="325" y="-18" type="line"/>
      <point x="526" y="27" type="line"/>
      <point x="530" y="80" type="line"/>
      <point x="389" y="90" type="line"/>
      <point x="439" y="46" type="line"/>
      <point x="454" y="172"/>
      <point x="491" y="458"/>
      <point x="549" y="742" type="curve"/>
      <point x="515" y="770" type="line"/>
      <point x="306" y="737" type="line"/>
      <point x="309" y="684" type="line"/>
      <point x="451" y="668" type="line"/>
      <point x="391" y="713" type="line"/>
      <point x="390" y="676"/>
      <point x="378" y="555"/>
      <point x="366" y="479" type="curve"/>
      <point x="356" y="438" type="line"/>
      <point x="349" y="273"/>
      <point x="247" y="114"/>
      <point x="197" y="114" type="curve" smooth="yes"/>
      <point x="174" y="114"/>
      <point x="170" y="140"/>
      <point x="170" y="175" type="curve" smooth="yes"/>
      <point x="170" y="292"/>
      <point x="210" y="407"/>
      <point x="245" y="407" type="curve" smooth="yes"/>
      <point x="299" y="407"/>
      <point x="370" y="372"/>
      <point x="380" y="370" type="curve"/>
      <point x="403" y="492" type="line"/>
      <point x="383" y="493"/>
      <point x="300" y="513"/>
      <point x="262" y="513" type="curve" smooth="yes"/>
      <point x="146" y="513"/>
      <point x="30" y="312"/>
      <point x="30" y="140" type="curve" smooth="yes"/>
      <point x="30" y="62"/>
      <point x="53" y="-15"/>
    </contour>
  </outline>
</glyph>
<glyph name="e" format="2">
  <advance width="450"/>
  <unicode hex="0065"/>
  <anchor x="153" y="0" name="bottom"/>
  <anchor x="252" y="0" name="ogonek"/>
  <anchor x="293" y="494" name="top"/>
  <outline>
    <contour>
      <point x="158" y="-15" type="curve" smooth="yes"/>
      <point x="242" y="-15"/>
      <point x="343" y="44"/>
      <point x="401" y="124" type="curve"/>
      <point x="355" y="164" type="line"/>
      <point x="319" y="127"/>
      <point x="257" y="82"/>
      <point x="215" y="82" type="curve" smooth="yes"/>
      <point x="184" y="82"/>
      <point x="161" y="102"/>
      <point x="161" y="154" type="curve" smooth="yes"/>
      <point x="161" y="270"/>
      <point x="210" y="423"/>
      <point x="258" y="423" type="curve" smooth="yes"/>
      <point x="297" y="423"/>
      <point x="311" y="413"/>
      <point x="311" y="395" type="curve" smooth="yes"/>
      <point x="311" y="339"/>
      <point x="242" y="270"/>
      <point x="126" y="260" type="curve"/>
      <point x="125" y="198" type="line"/>
      <point x="321" y="222"/>
      <point x="439" y="310"/>
      <point x="439" y="424" type="curve" smooth="yes"/>
      <point x="439" y="483"/>
      <point x="383" y="513"/>
      <point x="278" y="513" type="curve" smooth="yes"/>
      <point x="173" y="513"/>
      <point x="23" y="299"/>
      <point x="23" y="138" type="curve" smooth="yes"/>
      <point x="23" y="28"/>
      <point x="84" y="-15"/>
    </contour>
  </outline>
</glyph>
<glyph name="g" format="2">
  <advance width="543"/>
  <unicode hex="0067"/>
  <anchor x="318" y="-36" name="center"/>
  <anchor x="336" y="494" name="top"/>
  <outline>
    <contour>
      <point x="-16" y="-208" type="line"/>
      <point x="208" y="-283"/>
      <point x="408" y="-201"/>
      <point x="435" y="15" type="curve" smooth="yes"/>
      <point x="457" y="191"/>
      <point x="483" y="351"/>
      <point x="517" y="485" type="curve"/>
      <point x="477" y="513" type="line"/>
      <point x="358" y="481" type="line"/>
      <point x="356" y="435" type="line" smooth="yes"/>
      <point x="349" y="270"/>
      <point x="246" y="114"/>
      <point x="197" y="114" type="curve" smooth="yes"/>
      <point x="174" y="114"/>
      <point x="170" y="140"/>
      <point x="170" y="175" type="curve" smooth="yes"/>
      <point x="170" y="292"/>
      <point x="210" y="407"/>
      <point x="245" y="407" type="curve" smooth="yes"/>
      <point x="299" y="407"/>
      <point x="370" y="372"/>
      <point x="380" y="370" type="curve"/>
      <point x="403" y="492" type="line"/>
      <point x="383" y="493"/>
      <point x="300" y="513"/>
      <point x="262" y="513" type="curve" smooth="yes"/>
      <point x="146" y="513"/>
      <point x="30" y="312"/>
      <point x="30" y="140" type="curve" smooth="yes"/>
      <point x="30" y="62"/>
      <point x="53" y="-15"/>
      <point x="110" y="-15" type="curve" smooth="yes"/>
      <point x="218" y="-15"/>
      <point x="316" y="113"/>
      <point x="375" y="266" type="curve"/>
      <point x="363" y="279" type="line"/>
      <point x="358" y="195"/>
      <point x="329" y="76"/>
      <point x="304" y="-7" type="curve"/>
      <point x="304" y="-18"/>
      <point x="305" y="-88"/>
      <point x="288" y="-102" type="curve" smooth="yes"/>
      <point x="241" y="-142"/>
      <point x="131" y="-136"/>
      <point x="27" y="-89" type="curve"/>
    </contour>
  </outline>
</glyph>
<glyph name="h" format="2">
  <advance width="579"/>
  <unicode hex="0068"/>
  <anchor x="261" y="0" name="bottom"/>
  <anchor x="212" y="585" name="center"/>
  <anchor x="225" y="756" name="top"/>
  <outline>
    <contour>
      <point x="58" y="-15" type="line"/>
      <point x="173" y="3" type="line"/>
      <point x="174" y="10"/>
      <point x="175" y="16"/>
      <point x="176" y="23" type="curve"/>
      <point x="201" y="187"/>
      <point x="284" y="385"/>
      <point x="353" y="385" type="curve" smooth="yes"/>
      <point x="372" y="385"/>
      <point x="374" y="360"/>
      <point x="374" y="341" type="curve" smooth="yes"/>
      <point x="374" y="282"/>
      <point x="332" y="125"/>
      <point x="297" y="3" type="curve"/>
      <point x="331" y="-15" type="line"/>
      <point x="532" y="27" type="line"/>
      <point x="536" y="80" type="line"/>
      <point x="404" y="90" type="line"/>
      <point x="464" y="40" type="line"/>
      <point x="468" y="179"/>
      <point x="519" y="332"/>
      <point x="519" y="431" type="curve" smooth="yes"/>
      <point x="519" y="478"/>
      <point x="491" y="513"/>
      <point x="439" y="513" type="curve" smooth="yes"/>
      <point x="347" y="513"/>
      <point x="255" y="405"/>
      <point x="191" y="240" type="curve"/>
      <point x="192" y="240" type="line"/>
      <point x="211" y="364"/>
      <point x="252" y="578"/>
      <point x="289" y="742" type="curve"/>
      <point x="255" y="770" type="line"/>
      <point x="57" y="737" type="line"/>
      <point x="60" y="684" type="line"/>
      <point x="190" y="667" type="line"/>
      <point x="129" y="692" type="line"/>
      <point x="124" y="611"/>
      <point x="87" y="232"/>
      <point x="21" y="3" type="curve"/>
    </contour>
  </outline>
</glyph>
<glyph name="k" format="2">
  <advance width="578"/>
  <unicode hex="006B"/>
  <anchor x="259" y="0" name="bottom"/>
  <anchor x="351" y="746" name="top"/>
  <outline>
    <contour>
      <point x="60" y="-15" type="line"/>
      <point x="176" y="3" type="line"/>
      <point x="178" y="23"/>
      <point x="179" y="39"/>
      <point x="182" y="57" type="curve"/>
      <point x="208" y="226"/>
      <point x="306" y="406"/>
      <point x="374" y="406" type="curve" smooth="yes"/>
      <point x="390" y="406"/>
      <point x="400" y="395"/>
      <point x="400" y="378" type="curve" smooth="yes"/>
      <point x="400" y="318"/>
      <point x="341" y="263"/>
      <point x="243" y="229" type="curve"/>
      <point x="243" y="180" type="line"/>
      <point x="358" y="-15" type="line"/>
      <point x="527" y="27" type="line"/>
      <point x="531" y="80" type="line"/>
      <point x="400" y="95" type="line"/>
      <point x="489" y="65" type="line"/>
      <point x="440" y="103"/>
      <point x="383" y="184"/>
      <point x="347" y="255" type="curve"/>
      <point x="313" y="195" type="line"/>
      <point x="466" y="253"/>
      <point x="539" y="326"/>
      <point x="539" y="429" type="curve" smooth="yes"/>
      <point x="539" y="486"/>
      <point x="510" y="513"/>
      <point x="451" y="513" type="curve" smooth="yes"/>
      <point x="337" y="513"/>
      <point x="234" y="373"/>
      <point x="175" y="197" type="curve"/>
      <point x="185" y="198" type="line"/>
      <point x="206" y="337"/>
      <point x="251" y="572"/>
      <point x="289" y="742" type="curve"/>
      <point x="255" y="770" type="line"/>
      <point x="57" y="737" type="line"/>
      <point x="60" y="684" type="line"/>
      <point x="190" y="667" type="line"/>
      <point x="130" y="713" type="line"/>
      <point x="119" y="503"/>
      <point x="66" y="157"/>
      <point x="22" y="3" type="curve"/>
    </contour>
  </outline>
</glyph>
<glyph name="l" format="2">
  <advance width="299"/>
  <unicode hex="006C"/>
  <anchor x="151" y="0" name="bottom"/>
  <anchor x="154" y="382" name="center"/>
  <anchor x="368" y="410" name="centerright"/>
  <anchor x="185" y="756" name="top"/>
  <anchor x="342" y="494" name="topright"/>
  <outline>
    <contour>
      <point x="56" y="-15" type="line"/>
      <point x="256" y="27" type="line"/>
      <point x="260" y="80" type="line"/>
      <point x="122" y="93" type="line"/>
      <point x="183" y="65" type="line"/>
      <point x="193" y="182"/>
      <point x="233" y="439"/>
      <point x="288" y="742" type="curve"/>
      <point x="254" y="770" type="line"/>
      <point x="56" y="737" type="line"/>
      <point x="59" y="684" type="line"/>
      <point x="189" y="667" type="line"/>
      <point x="128" y="692" type="line"/>
      <point x="123" y="611"/>
      <point x="87" y="232"/>
      <point x="21" y="3" type="curve"/>
    </contour>
  </outline>
</glyph>
<glyph name="m" format="2">
  <advance width="891"/>
  <unicode hex="006D"/>
  <anchor x="416" y="0" name="bottom"/>
  <anchor x="476" y="494" name="top"/>
  <outline>
    <contour>
      <point x="71" y="-15" type="line"/>
      <point x="187" y="3" type="line"/>
      <point x="189" y="19"/>
      <point x="192" y="35"/>
      <point x="194" y="51" type="curve"/>
      <point x="218" y="193"/>
      <point x="311" y="384"/>
      <point x="379" y="384" type="curve" smooth="yes"/>
      <point x="399" y="384"/>
      <point x="401" y="359"/>
      <point x="401" y="340" type="curve" smooth="yes"/>
      <point x="401" y="281"/>
      <point x="358" y="125"/>
      <point x="323" y="3" type="curve"/>
      <point x="358" y="-15" type="line"/>
      <point x="473" y="3" type="line"/>
      <point x="474" y="13"/>
      <point x="475" y="22"/>
      <point x="476" y="31" type="curve"/>
      <point x="496" y="176"/>
      <point x="595" y="384"/>
      <point x="665" y="384" type="curve" smooth="yes"/>
      <point x="684" y="384"/>
      <point x="686" y="359"/>
      <point x="686" y="340" type="curve" smooth="yes"/>
      <point x="686" y="281"/>
      <point x="644" y="125"/>
      <point x="609" y="3" type="curve"/>
      <point x="643" y="-15" type="line"/>
      <point x="844" y="27" type="line"/>
      <point x="848" y="80" type="line"/>
      <point x="716" y="90" type="line"/>
      <point x="776" y="40" type="line"/>
      <point x="780" y="179"/>
      <point x="831" y="331"/>
      <point x="831" y="430" type="curve" smooth="yes"/>
      <point x="831" y="477"/>
      <point x="803" y="513"/>
      <point x="751" y="513" type="curve" smooth="yes"/>
      <point x="623" y="513"/>
      <point x="527" y="333"/>
      <point x="477" y="233" type="curve"/>
      <point x="482" y="222" type="line"/>
      <point x="533" y="358"/>
      <point x="588" y="513"/>
      <point x="465" y="513" type="curve" smooth="yes"/>
      <point x="330" y="513"/>
      <point x="238" y="337"/>
      <point x="190" y="221" type="curve"/>
      <point x="195" y="222" type="line"/>
      <point x="219" y="342"/>
      <point x="252" y="416"/>
      <point x="277" y="485" type="curve"/>
      <point x="238" y="513" type="line"/>
      <point x="47" y="470" type="line"/>
      <point x="47" y="418" type="line"/>
      <point x="178" y="410" type="line"/>
      <point x="116" y="450" type="line"/>
      <point x="110" y="318"/>
      <point x="85" y="183"/>
      <point x="36" y="3" type="curve"/>
    </contour>
  </outline>
</glyph>
<glyph name="n" format="2">
  <advance width="608"/>
  <unicode hex="006E"/>
  <anchor x="279" y="0" name="bottom"/>
  <anchor x="339" y="494" name="top"/>
  <outline>
    <contour>
      <point x="70" y="-15" type="line"/>
      <point x="186" y="3" type="line"/>
      <point x="188" y="17"/>
      <point x="190" y="34"/>
      <point x="193" y="50" type="curve"/>
      <point x="217" y="192"/>
      <point x="313" y="384"/>
      <point x="381" y="384" type="curve" smooth="yes"/>
      <point x="401" y="384"/>
      <point x="403" y="359"/>
      <point x="403" y="340" type="curve" smooth="yes"/>
      <point x="403" y="281"/>
      <point x="361" y="125"/>
      <point x="325" y="3" type="curve"/>
      <point x="361" y="-15" type="line"/>
      <point x="562" y="27" type="line"/>
      <point x="566" y="80" type="line"/>
      <point x="433" y="93" type="line"/>
      <point x="493" y="42" type="line"/>
      <point x="496" y="179"/>
      <point x="548" y="331"/>
      <point x="548" y="430" type="curve" smooth="yes"/>
      <point x="548" y="477"/>
      <point x="519" y="513"/>
      <point x="467" y="513" type="curve" smooth="yes"/>
      <point x="337" y="513"/>
      <point x="245" y="357"/>
      <point x="191" y="222" type="curve"/>
      <point x="195" y="222" type="line"/>
      <point x="219" y="342"/>
      <point x="253" y="416"/>
      <point x="276" y="485" type="curve"/>
      <point x="237" y="513" type="line"/>
      <point x="46" y="470" type="line"/>
      <point x="46" y="418" type="line"/>
      <point x="177" y="410" type="line"/>
      <point x="116" y="450" type="line"/>
      <point x="111" y="318"/>
      <point x="84" y="183"/>
      <point x="36" y="3" type="curve"/>
    </contour>
  </outline>
</glyph>
<glyph name="o" format="2">
  <advance width="512"/>
  <unicode hex="006F"/>
  <anchor x="221" y="0" name="bottom"/>
  <anchor x="256" y="247" name="center"/>
  <anchor x="290" y="5" name="ogonek"/>
  <anchor x="291" y="494" name="top"/>
  <anchor x="386" y="440" name="topright"/>
  <outline>
    <contour>
      <point x="193" y="-15" type="curve" smooth="yes"/>
      <point x="353" y="-15"/>
      <point x="483" y="138"/>
      <point x="483" y="328" type="curve" smooth="yes"/>
      <point x="483" y="449"/>
      <point x="426" y="513"/>
      <point x="319" y="513" type="curve" smooth="yes"/>
      <point x="160" y="513"/>
      <point x="29" y="360"/>
      <point x="29" y="170" type="curve" smooth="yes"/>
      <point x="29" y="49"/>
      <point x="87" y="-15"/>
    </contour>
    <contour>
      <point x="226" y="78" type="curve" smooth="yes"/>
      <point x="195" y="78"/>
      <point x="175" y="113"/>
      <point x="175" y="174" type="curve" smooth="yes"/>
      <point x="175" y="331"/>
      <point x="215" y="420"/>
      <point x="287" y="420" type="curve" smooth="yes"/>
      <point x="317" y="420"/>
      <point x="337" y="385"/>
      <point x="337" y="324" type="curve" smooth="yes"/>
      <point x="337" y="167"/>
      <point x="297" y="78"/>
    </contour>
  </outline>
</glyph>
<glyph name="p" format="2">
  <advance width="548"/>
  <unicode hex="0070"/>
  <anchor x="241" y="0" name="bottom"/>
  <anchor x="311" y="494" name="top"/>
  <outline>
    <contour>
      <point x="40" y="-274" type="line"/>
      <point x="156" y="-256" type="line"/>
      <point x="168" y="-147"/>
      <point x="180" y="-54"/>
      <point x="193" y="36" type="curve"/>
      <point x="189" y="210"/>
      <point x="299" y="384"/>
      <point x="352" y="384" type="curve" smooth="yes"/>
      <point x="374" y="384"/>
      <point x="378" y="358"/>
      <point x="378" y="323" type="curve" smooth="yes"/>
      <point x="378" y="206"/>
      <point x="338" y="91"/>
      <point x="304" y="91" type="curve" smooth="yes"/>
      <point x="264" y="91"/>
      <point x="213" y="111"/>
      <point x="188" y="122" type="curve"/>
      <point x="173" y="2" type="line"/>
      <point x="206" y="-4"/>
      <point x="259" y="-15"/>
      <point x="286" y="-15" type="curve" smooth="yes"/>
      <point x="402" y="-15"/>
      <point x="519" y="186"/>
      <point x="519" y="358" type="curve" smooth="yes"/>
      <point x="519" y="436"/>
      <point x="495" y="513"/>
      <point x="439" y="513" type="curve" smooth="yes"/>
      <point x="318" y="513"/>
      <point x="246" y="366"/>
      <point x="185" y="245" type="curve"/>
      <point x="193" y="247" type="line"/>
      <point x="212" y="338"/>
      <point x="249" y="428"/>
      <point x="271" y="485" type="curve"/>
      <point x="231" y="513" type="line"/>
      <point x="40" y="470" type="line"/>
      <point x="40" y="418" type="line"/>
      <point x="173" y="410" type="line"/>
      <point x="112" y="440" type="line"/>
      <point x="105" y="301"/>
      <point x="65" y="-38"/>
      <point x="6" y="-256" type="curve"/>
    </contour>
  </outline>
</glyph>
<glyph name="q" format="2">
  <advance width="532"/>
  <unicode hex="0071"/>
  <anchor x="227" y="0" name="bottom"/>
  <anchor x="287" y="494" name="top"/>
  <outline>
    <contour>
      <point x="275" y="-277" type="line"/>
      <point x="394" y="-253" type="line"/>
      <point x="410" y="-94"/>
      <point x="458" y="313"/>
      <point x="506" y="485" type="curve"/>
      <point x="466" y="513" type="line"/>
      <point x="358" y="484" type="line"/>
      <point x="356" y="438" type="line" smooth="yes"/>
      <point x="349" y="273"/>
      <point x="246" y="114"/>
      <point x="197" y="114" type="curve" smooth="yes"/>
      <point x="174" y="114"/>
      <point x="170" y="140"/>
      <point x="170" y="175" type="curve" smooth="yes"/>
      <point x="170" y="292"/>
      <point x="210" y="407"/>
      <point x="245" y="407" type="curve" smooth="yes"/>
      <point x="299" y="407"/>
      <point x="370" y="372"/>
      <point x="380" y="370" type="curve"/>
      <point x="396" y="492" type="line"/>
      <point x="376" y="493"/>
      <point x="301" y="513"/>
      <point x="263" y="513" type="curve" smooth="yes"/>
      <point x="147" y="513"/>
      <point x="30" y="312"/>
      <point x="30" y="140" type="curve" smooth="yes"/>
      <point x="30" y="62"/>
      <point x="53" y="-15"/>
      <point x="110" y="-15" type="curve" smooth="yes"/>
      <point x="218" y="-15"/>
      <point x="316" y="113"/>
      <point x="375" y="266" type="curve"/>
      <point x="363" y="282" type="line"/>
      <point x="356" y="198"/>
      <point x="323" y="79"/>
      <point x="298" y="-4" type="curve"/>
      <point x="280" y="-96"/>
      <point x="259" y="-186"/>
      <point x="240" y="-259" type="curve"/>
    </contour>
  </outline>
</glyph>
<glyph name="r" format="2">
  <advance width="423"/>
  <unicode hex="0072"/>
  <anchor x="161" y="0" name="bottom"/>
  <anchor x="241" y="494" name="top"/>
  <outline>
    <contour>
      <point x="70" y="-15" type="line"/>
      <point x="186" y="3" type="line"/>
      <point x="188" y="55"/>
      <point x="192" y="110"/>
      <point x="203" y="159" type="curve"/>
      <point x="217" y="213"/>
      <point x="271" y="340"/>
      <point x="326" y="340" type="curve" smooth="yes"/>
      <point x="341" y="340"/>
      <point x="373" y="325"/>
      <point x="387" y="318" type="curve"/>
      <point x="428" y="497" type="line"/>
      <point x="421" y="504"/>
      <point x="409" y="512"/>
      <point x="398" y="512" type="curve" smooth="yes"/>
      <point x="338" y="512"/>
      <point x="244" y="368"/>
      <point x="167" y="187" type="curve"/>
      <point x="187" y="206" type="line"/>
      <point x="202" y="300"/>
      <point x="233" y="382"/>
      <point x="276" y="485" type="curve"/>
      <point x="237" y="513" type="line"/>
      <point x="46" y="470" type="line"/>
      <point x="46" y="418" type="line"/>
      <point x="177" y="410" type="line"/>
      <point x="116" y="447" type="line"/>
      <point x="110" y="326"/>
      <point x="89" y="201"/>
      <point x="36" y="3" type="curve"/>
    </contour>
  </outline>
</glyph>
<glyph name="s" format="2">
  <advance width="426"/>
  <unicode hex="0073"/>
  <anchor x="169" y="0" name="bottom"/>
  <anchor x="249" y="494" name="top"/>
  <outline>
    <contour>
      <point x="178" y="-15" type="curve" smooth="yes"/>
      <point x="291" y="-15"/>
      <point x="372" y="53"/>
      <point x="372" y="153" type="curve" smooth="yes"/>
      <point x="372" y="266"/>
      <point x="206" y="334"/>
      <point x="206" y="398" type="curve" smooth="yes"/>
      <point x="206" y="425"/>
      <point x="225" y="444"/>
      <point x="247" y="444" type="curve" smooth="yes"/>
      <point x="284" y="444"/>
      <point x="309" y="426"/>
      <point x="349" y="382" type="curve"/>
      <point x="308" y="481" type="line"/>
      <point x="313" y="335" type="line"/>
      <point x="364" y="332" type="line"/>
      <point x="402" y="460" type="line"/>
      <point x="381" y="498" type="line"/>
      <point x="344" y="505"/>
      <point x="301" y="513"/>
      <point x="259" y="513" type="curve" smooth="yes"/>
      <point x="145" y="513"/>
      <point x="72" y="456"/>
      <point x="72" y="365" type="curve" smooth="yes"/>
      <point x="72" y="232"/>
      <point x="228" y="182"/>
      <point x="228" y="115" type="curve" smooth="yes"/>
      <point x="228" y="76"/>
      <point x="208" y="57"/>
      <point x="176" y="57" type="curve" smooth="yes"/>
      <point x="140" y="57"/>
      <point x="108" y="78"/>
      <point x="67" y="129" type="curve"/>
      <point x="105" y="27" type="line"/>
      <point x="109" y="180" type="line"/>
      <point x="62" y="193" type="line"/>
      <point x="14" y="76" type="line"/>
      <point x="23" y="32" type="line"/>
      <point x="76" y="-1"/>
      <point x="123" y="-15"/>
    </contour>
  </outline>
</glyph>
<glyph name="t" format="2">
  <advance width="415"/>
  <unicode hex="0074"/>
  <anchor x="164" y="0" name="bottom"/>
  <anchor x="168" y="270" name="center"/>
  <anchor x="227" y="550" name="top"/>
  <anchor x="375" y="543" name="topright"/>
  <outline>
    <contour>
      <point x="380" y="121" type="curve"/>
      <point x="331" y="161" type="line"/>
      <point x="266" y="76"/>
      <point x="201" y="44"/>
      <point x="214" y="143" type="curve" smooth="yes"/>
      <point x="227" y="244"/>
      <point x="239" y="329"/>
      <point x="261" y="457" type="curve"/>
      <point x="185" y="418" type="line"/>
      <point x="379" y="418" type="line"/>
      <point x="399" y="497" type="line"/>
      <point x="207" y="497" type="line"/>
      <point x="260" y="455" type="line"/>
      <point x="280" y="591" type="line"/>
      <point x="214" y="612" type="line"/>
      <point x="214" y="612"/>
      <point x="169" y="534"/>
      <point x="151" y="522" type="curve" smooth="yes"/>
      <point x="127" y="506"/>
      <point x="74" y="488"/>
      <point x="44" y="478" type="curve"/>
      <point x="37" y="418" type="line"/>
      <point x="177" y="418" type="line"/>
      <point x="119" y="460" type="line"/>
      <point x="105" y="333"/>
      <point x="90" y="236"/>
      <point x="69" y="126" type="curve" smooth="yes"/>
      <point x="33" y="-62"/>
      <point x="257" y="-66"/>
    </contour>
  </outline>
</glyph>
<glyph name="u" format="2">
  <advance width="592"/>
  <unicode hex="0075"/>
  <anchor x="260" y="0" name="bottom"/>
  <anchor x="433" y="492" name="horn"/>
  <anchor x="424" y="0" name="ogonek"/>
  <anchor x="350" y="494" name="top"/>
  <anchor x="596" y="494" name="topright"/>
  <outline>
    <contour>
      <point x="132" y="-15" type="curve" smooth="yes"/>
      <point x="266" y="-15"/>
      <point x="352" y="140"/>
      <point x="391" y="254" type="curve"/>
      <point x="379" y="253" type="line"/>
      <point x="380" y="183"/>
      <point x="339" y="80"/>
      <point x="309" y="3" type="curve"/>
      <point x="344" y="-15" type="line"/>
      <point x="545" y="27" type="line"/>
      <point x="549" y="80" type="line"/>
      <point x="409" y="93" type="line"/>
      <point x="469" y="52" type="line"/>
      <point x="472" y="177"/>
      <point x="507" y="307"/>
      <point x="553" y="485" type="curve"/>
      <point x="514" y="513" type="line"/>
      <point x="404" y="495" type="line"/>
      <point x="397" y="446" type="line"/>
      <point x="380" y="357"/>
      <point x="340" y="250"/>
      <point x="297" y="182" type="curve" smooth="yes"/>
      <point x="269" y="137"/>
      <point x="244" y="114"/>
      <point x="220" y="114" type="curve" smooth="yes"/>
      <point x="205" y="114"/>
      <point x="203" y="137"/>
      <point x="203" y="155" type="curve" smooth="yes"/>
      <point x="203" y="213"/>
      <point x="235" y="339"/>
      <point x="277" y="485" type="curve"/>
      <point x="236" y="513" type="line"/>
      <point x="46" y="470" type="line"/>
      <point x="46" y="418" type="line"/>
      <point x="177" y="410" type="line"/>
      <point x="116" y="459" type="line"/>
      <point x="120" y="318"/>
      <point x="56" y="168"/>
      <point x="56" y="66" type="curve" smooth="yes"/>
      <point x="56" y="20"/>
      <point x="83" y="-15"/>
    </contour>
  </outline>
</glyph>
<glyph name="v" format="2">
  <advance width="531"/>
  <unicode hex="0076"/>
  <anchor x="230" y="0" name="bottom"/>
  <anchor x="300" y="494" name="top"/>
  <outline>
    <contour>
      <point x="148" y="-15" type="curve" smooth="yes"/>
      <point x="320" y="-15"/>
      <point x="514" y="241"/>
      <point x="527" y="485" type="curve"/>
      <point x="488" y="513" type="line"/>
      <point x="319" y="470" type="line"/>
      <point x="319" y="418" type="line"/>
      <point x="445" y="410" type="line"/>
      <point x="380" y="436" type="line"/>
      <point x="384" y="399"/>
      <point x="387" y="366"/>
      <point x="387" y="354" type="curve" smooth="yes"/>
      <point x="387" y="236"/>
      <point x="301" y="97"/>
      <point x="229" y="97" type="curve" smooth="yes"/>
      <point x="215" y="97"/>
      <point x="205" y="106"/>
      <point x="205" y="118" type="curve" smooth="yes"/>
      <point x="205" y="157"/>
      <point x="245" y="340"/>
      <point x="245" y="380" type="curve" smooth="yes"/>
      <point x="245" y="485" type="line"/>
      <point x="204" y="513" type="line"/>
      <point x="41" y="470" type="line"/>
      <point x="41" y="418" type="line"/>
      <point x="170" y="410" type="line"/>
      <point x="105" y="436" type="line"/>
      <point x="107" y="419"/>
      <point x="109" y="363"/>
      <point x="109" y="342" type="curve" smooth="yes"/>
      <point x="109" y="287"/>
      <point x="64" y="111"/>
      <point x="64" y="56" type="curve" smooth="yes"/>
      <point x="64" y="8"/>
      <point x="91" y="-15"/>
    </contour>
  </outline>
</glyph>
<glyph name="w" format="2">
  <advance width="814"/>
  <unicode hex="0077"/>
  <anchor x="378" y="0" name="bottom"/>
  <anchor x="438" y="494" name="top"/>
  <outline>
    <contour>
      <point x="143" y="-15" type="curve" smooth="yes"/>
      <point x="240" y="-15"/>
      <point x="327" y="53"/>
      <point x="388" y="147" type="curve"/>
      <point x="361" y="173" type="line"/>
      <point x="361" y="115"/>
      <point x="359" y="79"/>
      <point x="359" y="55" type="curve" smooth="yes"/>
      <point x="359" y="14"/>
      <point x="378" y="-15"/>
      <point x="430" y="-15" type="curve" smooth="yes"/>
      <point x="632" y="-15"/>
      <point x="796" y="266"/>
      <point x="810" y="485" type="curve"/>
      <point x="771" y="513" type="line"/>
      <point x="607" y="470" type="line"/>
      <point x="606" y="418" type="line"/>
      <point x="728" y="410" type="line"/>
      <point x="660" y="450" type="line"/>
      <point x="664" y="413"/>
      <point x="668" y="370"/>
      <point x="668" y="354" type="curve" smooth="yes"/>
      <point x="668" y="237"/>
      <point x="585" y="97"/>
      <point x="507" y="97" type="curve" smooth="yes"/>
      <point x="498" y="97"/>
      <point x="484" y="104"/>
      <point x="484" y="118" type="curve" smooth="yes"/>
      <point x="484" y="157"/>
      <point x="520" y="339"/>
      <point x="520" y="380" type="curve"/>
      <point x="514" y="494" type="line"/>
      <point x="480" y="512" type="line"/>
      <point x="368" y="494" type="line"/>
      <point x="368" y="492"/>
      <point x="382" y="365"/>
      <point x="382" y="354" type="curve" smooth="yes"/>
      <point x="382" y="233"/>
      <point x="312" y="97"/>
      <point x="225" y="97" type="curve" smooth="yes"/>
      <point x="215" y="97"/>
      <point x="202" y="104"/>
      <point x="202" y="118" type="curve" smooth="yes"/>
      <point x="202" y="157"/>
      <point x="238" y="338"/>
      <point x="242" y="380" type="curve"/>
      <point x="243" y="485" type="line"/>
      <point x="203" y="513" type="line"/>
      <point x="43" y="470" type="line"/>
      <point x="42" y="418" type="line"/>
      <point x="167" y="410" type="line"/>
      <point x="101" y="443" type="line"/>
      <point x="104" y="414"/>
      <point x="105" y="365"/>
      <point x="105" y="346" type="curve" smooth="yes"/>
      <point x="105" y="283"/>
      <point x="60" y="113"/>
      <point x="60" y="55" type="curve" smooth="yes"/>
      <point x="60" y="14"/>
      <point x="80" y="-15"/>
    </contour>
  </outline>
</glyph>
<glyph name="x" format="2">
  <advance width="551"/>
  <unicode hex="0078"/>
  <anchor x="242" y="0" name="bottom"/>
  <anchor x="312" y="494" name="top"/>
  <outline>
    <contour>
      <point x="320" y="-15" type="line"/>
      <point x="496" y="27" type="line"/>
      <point x="500" y="80" type="line"/>
      <point x="349" y="93" type="line"/>
      <point x="419" y="76" type="line"/>
      <point x="413" y="105"/>
      <point x="319" y="313"/>
      <point x="273" y="485" type="curve"/>
      <point x="232" y="513" type="line"/>
      <point x="58" y="469" type="line"/>
      <point x="69" y="418" type="line"/>
      <point x="192" y="410" type="line"/>
      <point x="107" y="446" type="line"/>
      <point x="181" y="335"/>
      <point x="272" y="63"/>
      <point x="285" y="3" type="curve"/>
    </contour>
    <contour>
      <point x="58" y="-15" type="line"/>
      <point x="151" y="55" type="line"/>
      <point x="177" y="87"/>
      <point x="217" y="137"/>
      <point x="248" y="171" type="curve"/>
      <point x="215" y="258" type="line"/>
      <point x="178" y="219"/>
      <point x="113" y="137"/>
      <point x="102" y="129" type="curve" smooth="yes"/>
      <point x="92" y="122"/>
      <point x="37" y="96"/>
      <point x="4" y="83" type="curve"/>
      <point x="28" y="7" type="line"/>
    </contour>
    <contour>
      <point x="336" y="235" type="line"/>
      <point x="372" y="273"/>
      <point x="449" y="366"/>
      <point x="461" y="373" type="curve" smooth="yes"/>
      <point x="471" y="379"/>
      <point x="503" y="390"/>
      <point x="531" y="402" type="curve"/>
      <point x="528" y="491" type="line"/>
      <point x="496" y="513" type="line"/>
      <point x="403" y="441" type="line"/>
      <point x="354" y="380"/>
      <point x="330" y="354"/>
      <point x="304" y="324" type="curve"/>
    </contour>
  </outline>
</glyph>
<glyph name="y" format="2">
  <advance width="575"/>
  <unicode hex="0079"/>
  <anchor x="459" y="-102" name="bottom"/>
  <anchor x="333" y="494" name="top"/>
  <outline>
    <contour>
      <point x="17" y="-205" type="line"/>
      <point x="241" y="-280"/>
      <point x="441" y="-198"/>
      <point x="468" y="18" type="curve" smooth="yes"/>
      <point x="490" y="194"/>
      <point x="515" y="351"/>
      <point x="549" y="485" type="curve"/>
      <point x="509" y="513" type="line"/>
      <point x="400" y="495" type="line"/>
      <point x="392" y="446" type="line"/>
      <point x="373" y="357"/>
      <point x="352" y="250"/>
      <point x="307" y="182" type="curve" smooth="yes"/>
      <point x="280" y="141"/>
      <point x="250" y="114"/>
      <point x="223" y="114" type="curve" smooth="yes"/>
      <point x="204" y="114"/>
      <point x="202" y="139"/>
      <point x="202" y="158" type="curve" smooth="yes"/>
      <point x="202" y="218"/>
      <point x="241" y="364"/>
      <point x="276" y="485" type="curve"/>
      <point x="236" y="513" type="line"/>
      <point x="45" y="470" type="line"/>
      <point x="45" y="418" type="line"/>
      <point x="177" y="410" type="line"/>
      <point x="115" y="459" type="line"/>
      <point x="118" y="320"/>
      <point x="57" y="168"/>
      <point x="57" y="67" type="curve" smooth="yes"/>
      <point x="57" y="20"/>
      <point x="85" y="-15"/>
      <point x="137" y="-15" type="curve" smooth="yes"/>
      <point x="271" y="-15"/>
      <point x="359" y="140"/>
      <point x="403" y="254" type="curve"/>
      <point x="396" y="282" type="line"/>
      <point x="391" y="198"/>
      <point x="362" y="79"/>
      <point x="337" y="-4" type="curve"/>
      <point x="337" y="-15"/>
      <point x="338" y="-85"/>
      <point x="321" y="-99" type="curve" smooth="yes"/>
      <point x="273" y="-138"/>
      <point x="164" y="-133"/>
      <point x="60" y="-86" type="curve"/>
    </contour>
  </outline>
</glyph>
<glyph name="z" format="2">
  <advance width="498"/>
  <unicode hex="007A"/>
  <anchor x="215" y="0" name="bottom"/>
  <anchor x="250" y="247" name="center"/>
  <anchor x="255" y="494" name="top"/>
  <outline>
    <contour>
      <point x="53" y="-15" type="line"/>
      <point x="104" y="-2" type="line"/>
      <point x="394" y="-15" type="line"/>
      <point x="428" y="17" type="line"/>
      <point x="451" y="167" type="line"/>
      <point x="401" y="182" type="line"/>
      <point x="386" y="148"/>
      <point x="364" y="98"/>
      <point x="341" y="53" type="curve"/>
      <point x="406" y="104" type="line"/>
      <point x="316" y="76"/>
      <point x="254" y="79"/>
      <point x="169" y="79" type="curve"/>
      <point x="196" y="49" type="line"/>
      <point x="268" y="171"/>
      <point x="331" y="271"/>
      <point x="479" y="459" type="curve"/>
      <point x="455" y="505" type="line"/>
      <point x="397" y="490" type="line"/>
      <point x="90" y="513" type="line"/>
      <point x="65" y="474" type="line"/>
      <point x="57" y="323" type="line"/>
      <point x="110" y="320" type="line"/>
      <point x="155" y="455" type="line"/>
      <point x="97" y="385" type="line"/>
      <point x="190" y="411"/>
      <point x="231" y="407"/>
      <point x="364" y="408" type="curve"/>
      <point x="306" y="436" type="line"/>
      <point x="240" y="320"/>
      <point x="144" y="180"/>
      <point x="14" y="23" type="curve"/>
    </contour>
  </outline>
</glyph>
<glyph name="braceleft" format="2">
  <advance width="428"/>
  <unicode hex="007B"/>
  <outline>
    <contour>
      <point x="307" y="-107" type="line"/>
      <point x="318" y="-40" type="line"/>
      <point x="126" y="-23" type="line"/>
      <point x="190" y="-103" type="line"/>
      <point x="205" y="29"/>
      <point x="253" y="176"/>
      <point x="302" y="310" type="curve"/>
      <point x="127" y="374" type="line"/>
      <point x="142" y="331" type="line"/>
      <point x="148" y="392" type="line"/>
      <point x="125" y="349" type="line"/>
      <point x="312" y="406" type="line"/>
      <point x="295" y="555"/>
      <point x="282" y="651"/>
      <point x="301" y="813" type="curve"/>
      <point x="219" y="744" type="line"/>
      <point x="413" y="762" type="line"/>
      <point x="419" y="829" type="line"/>
      <point x="201" y="825" type="line"/>
      <point x="174" y="798" type="line"/>
      <point x="191" y="662"/>
      <point x="209" y="525"/>
      <point x="197" y="408" type="curve"/>
      <point x="221" y="447" type="line"/>
      <point x="100" y="398" type="line"/>
      <point x="88" y="324" type="line"/>
      <point x="199" y="275" type="line"/>
      <point x="186" y="321" type="line"/>
      <point x="167" y="195"/>
      <point x="120" y="77"/>
      <point x="67" y="-70" type="curve"/>
      <point x="89" y="-103" type="line"/>
    </contour>
  </outline>
</glyph>
<glyph name="bar" format="2">
  <advance width="340"/>
  <unicode hex="007C"/>
  <outline>
    <contour>
      <point x="164" y="-122" type="line"/>
      <point x="287" y="752" type="line"/>
      <point x="194" y="760" type="line"/>
      <point x="71" y="-113" type="line"/>
    </contour>
  </outline>
</glyph>
<glyph name="braceright" format="2">
  <advance width="429"/>
  <unicode hex="007D"/>
  <outline>
    <contour>
      <point x="37" y="-107" type="line"/>
      <point x="255" y="-103" type="line"/>
      <point x="282" y="-76" type="line"/>
      <point x="265" y="56"/>
      <point x="246" y="189"/>
      <point x="259" y="314" type="curve"/>
      <point x="235" y="275" type="line"/>
      <point x="356" y="324" type="line"/>
      <point x="368" y="398" type="line"/>
      <point x="257" y="447" type="line"/>
      <point x="270" y="401" type="line"/>
      <point x="289" y="527"/>
      <point x="336" y="645"/>
      <point x="389" y="792" type="curve"/>
      <point x="367" y="825" type="line"/>
      <point x="149" y="829" type="line"/>
      <point x="138" y="762" type="line"/>
      <point x="330" y="745" type="line"/>
      <point x="266" y="825" type="line"/>
      <point x="251" y="693"/>
      <point x="203" y="546"/>
      <point x="154" y="412" type="curve"/>
      <point x="329" y="348" type="line"/>
      <point x="314" y="391" type="line"/>
      <point x="308" y="330" type="line"/>
      <point x="331" y="373" type="line"/>
      <point x="144" y="316" type="line"/>
      <point x="161" y="167"/>
      <point x="174" y="71"/>
      <point x="155" y="-91" type="curve"/>
      <point x="237" y="-22" type="line"/>
      <point x="43" y="-40" type="line"/>
    </contour>
  </outline>
</glyph>
<glyph name="asciitilde" format="2">
  <advance width="621"/>
  <unicode hex="007E"/>
  <outline>
    <contour>
      <point x="421" y="160" type="curve" smooth="yes"/>
      <point x="461" y="160"/>
      <point x="520" y="237"/>
      <point x="551" y="276" type="curve"/>
      <point x="502" y="321" type="line"/>
      <point x="486" y="305"/>
      <point x="456" y="272"/>
      <point x="431" y="272" type="curve" smooth="yes"/>
      <point x="378" y="272"/>
      <point x="267" y="332"/>
      <point x="199" y="332" type="curve" smooth="yes"/>
      <point x="160" y="332"/>
      <point x="99" y="255"/>
      <point x="69" y="216" type="curve"/>
      <point x="118" y="171" type="line"/>
      <point x="133" y="187"/>
      <point x="165" y="220"/>
      <point x="188" y="220" type="curve" smooth="yes"/>
      <point x="241" y="220"/>
      <point x="362" y="160"/>
    </contour>
  </outline>
</glyph>
<glyph name="exclamdown" format="2">
  <advance width="295"/>
  <unicode hex="00A1"/>
  <outline>
    <contour>
      <point x="110" y="267" type="line"/>
      <point x="89" y="251" type="line"/>
      <point x="81" y="174" type="line" smooth="yes"/>
      <point x="75" y="119"/>
      <point x="26" y="-101"/>
      <point x="-11" y="-251" type="curve"/>
      <point x="15" y="-279" type="line"/>
      <point x="126" y="-270" type="line"/>
      <point x="182" y="196" type="line"/>
      <point x="192" y="262" type="line"/>
    </contour>
    <contour>
      <point x="169" y="507" type="curve" smooth="yes"/>
      <point x="120" y="507"/>
      <point x="86" y="468"/>
      <point x="86" y="411" type="curve" smooth="yes"/>
      <point x="86" y="371"/>
      <point x="109" y="348"/>
      <point x="147" y="348" type="curve" smooth="yes"/>
      <point x="196" y="348"/>
      <point x="231" y="388"/>
      <point x="231" y="445" type="curve" smooth="yes"/>
      <point x="231" y="482"/>
      <point x="210" y="507"/>
    </contour>
  </outline>
</glyph>
<glyph name="cent" format="2">
  <advance width="545"/>
  <unicode hex="00A2"/>
  <outline>
    <contour>
      <point x="283" y="66" type="curve" smooth="yes"/>
      <point x="348" y="66"/>
      <point x="417" y="98"/>
      <point x="465" y="133" type="curve"/>
      <point x="439" y="188" type="line"/>
      <point x="439" y="188"/>
      <point x="386" y="155"/>
      <point x="319" y="155" type="curve" smooth="yes"/>
      <point x="251" y="155"/>
      <point x="219" y="201"/>
      <point x="219" y="279" type="curve" smooth="yes"/>
      <point x="219" y="411"/>
      <point x="272" y="510"/>
      <point x="343" y="510" type="curve" smooth="yes"/>
      <point x="384" y="510"/>
      <point x="419" y="486"/>
      <point x="446" y="463" type="curve"/>
      <point x="400" y="521" type="line"/>
      <point x="406" y="498"/>
      <point x="407" y="469"/>
      <point x="404" y="445" type="curve" smooth="yes"/>
      <point x="397" y="395" type="line"/>
      <point x="475" y="392" type="line"/>
      <point x="511" y="556" type="line"/>
      <point x="502" y="561"/>
      <point x="428" y="583"/>
      <point x="345" y="583" type="curve" smooth="yes"/>
      <point x="183" y="583"/>
      <point x="73" y="457"/>
      <point x="73" y="272" type="curve" smooth="yes"/>
      <point x="73" y="141"/>
      <point x="144" y="66"/>
    </contour>
    <contour>
      <point x="274" y="-71" type="line"/>
      <point x="308" y="132" type="line"/>
      <point x="248" y="132" type="line"/>
      <point x="214" y="-68" type="line"/>
    </contour>
    <contour>
      <point x="319" y="554" type="line"/>
      <point x="379" y="554" type="line"/>
      <point x="406" y="717" type="line"/>
      <point x="347" y="720" type="line"/>
    </contour>
  </outline>
</glyph>
<glyph name="sterling" format="2">
  <advance width="674"/>
  <unicode hex="00A3"/>
  <outline>
    <contour>
      <point x="120" y="77" type="curve"/>
      <point x="284" y="79" type="line"/>
      <point x="284" y="96"/>
      <point x="283" y="145"/>
      <point x="289" y="193" type="curve" smooth="yes"/>
      <point x="326" y="488" type="line" smooth="yes"/>
      <point x="332" y="538"/>
      <point x="370" y="579"/>
      <point x="417" y="579" type="curve" smooth="yes"/>
      <point x="473" y="579"/>
      <point x="528" y="564"/>
      <point x="583" y="551" type="curve"/>
      <point x="516" y="620" type="line"/>
      <point x="523" y="556"/>
      <point x="524" y="533"/>
      <point x="524" y="520" type="curve" smooth="yes"/>
      <point x="521" y="475" type="line"/>
      <point x="592" y="472" type="line"/>
      <point x="625" y="635" type="line"/>
      <point x="563" y="651"/>
      <point x="492" y="667"/>
      <point x="429" y="667" type="curve" smooth="yes"/>
      <point x="302" y="667"/>
      <point x="194" y="596"/>
      <point x="178" y="466" type="curve" smooth="yes"/>
      <point x="140" y="163" type="line" smooth="yes"/>
      <point x="137" y="139"/>
      <point x="116" y="65"/>
    </contour>
    <contour>
      <point x="51" y="-5" type="line"/>
      <point x="101" y="-3"/>
      <point x="151" y="0"/>
      <point x="201" y="0" type="curve" smooth="yes"/>
      <point x="531" y="0" type="line"/>
      <point x="552" y="18" type="line"/>
      <point x="588" y="190" type="line"/>
      <point x="519" y="195" type="line"/>
      <point x="501" y="138" type="line" smooth="yes"/>
      <point x="496" y="121"/>
      <point x="464" y="71"/>
      <point x="445" y="37" type="curve"/>
      <point x="542" y="102" type="line"/>
      <point x="495" y="97"/>
      <point x="431" y="87"/>
      <point x="402" y="87" type="curve" smooth="yes"/>
      <point x="219" y="87" type="line"/>
      <point x="179" y="87" type="line"/>
      <point x="55" y="65" type="line"/>
    </contour>
    <contour>
      <point x="69" y="268" type="line"/>
      <point x="472" y="287" type="line"/>
      <point x="478" y="351" type="line"/>
      <point x="75" y="333" type="line"/>
    </contour>
  </outline>
</glyph>
<glyph name="currency" format="2">
  <advance width="704"/>
  <unicode hex="00A4"/>
  <outline>
    <contour>
      <point x="332" y="71" type="curve" smooth="yes"/>
      <point x="500" y="71"/>
      <point x="606" y="184"/>
      <point x="606" y="365" type="curve" smooth="yes"/>
      <point x="606" y="492"/>
      <point x="532" y="563"/>
      <point x="394" y="563" type="curve" smooth="yes"/>
      <point x="225" y="563"/>
      <point x="121" y="450"/>
      <point x="121" y="269" type="curve" smooth="yes"/>
      <point x="121" y="142"/>
      <point x="195" y="71"/>
    </contour>
    <contour>
      <point x="89" y="3" type="line"/>
      <point x="231" y="142" type="line"/>
      <point x="181" y="180" type="line"/>
      <point x="47" y="48" type="line"/>
    </contour>
    <contour>
      <point x="552" y="2" type="line"/>
      <point x="606" y="47" type="line"/>
      <point x="506" y="180" type="line"/>
      <point x="446" y="142" type="line"/>
    </contour>
    <contour>
      <point x="342" y="150" type="curve" smooth="yes"/>
      <point x="272" y="150"/>
      <point x="243" y="186"/>
      <point x="243" y="263" type="curve" smooth="yes"/>
      <point x="243" y="407"/>
      <point x="293" y="484"/>
      <point x="384" y="484" type="curve" smooth="yes"/>
      <point x="453" y="484"/>
      <point x="484" y="448"/>
      <point x="484" y="370" type="curve" smooth="yes"/>
      <point x="484" y="229"/>
      <point x="434" y="150"/>
    </contour>
    <contour>
      <point x="212" y="448" type="line"/>
      <point x="268" y="490" type="line"/>
      <point x="160" y="631" type="line"/>
      <point x="106" y="586" type="line"/>
    </contour>
    <contour>
      <point x="541" y="448" type="line"/>
      <point x="673" y="578" type="line"/>
      <point x="630" y="623" type="line"/>
      <point x="497" y="490" type="line"/>
    </contour>
  </outline>
</glyph>
<glyph name="yen" format="2">
  <advance width="773"/>
  <unicode hex="00A5"/>
  <outline>
    <contour>
      <point x="328" y="197" type="line"/>
      <point x="440" y="197" type="line"/>
      <point x="644" y="511" type="line" smooth="yes"/>
      <point x="670" y="551"/>
      <point x="714" y="585"/>
      <point x="737" y="604" type="curve"/>
      <point x="648" y="577" type="line"/>
      <point x="759" y="589" type="line"/>
      <point x="764" y="667" type="line"/>
      <point x="764" y="667"/>
      <point x="700" y="663"/>
      <point x="634" y="663" type="curve" smooth="yes"/>
      <point x="605" y="663"/>
      <point x="529" y="667"/>
      <point x="529" y="667" type="curve"/>
      <point x="515" y="595" type="line"/>
      <point x="618" y="579" type="line"/>
      <point x="568" y="628" type="line"/>
      <point x="559" y="590"/>
      <point x="555" y="571"/>
      <point x="546" y="556" type="curve" smooth="yes"/>
      <point x="384" y="294" type="line"/>
      <point x="439" y="294" type="line"/>
      <point x="344" y="545" type="line" smooth="yes"/>
      <point x="338" y="561"/>
      <point x="335" y="585"/>
      <point x="335" y="617" type="curve"/>
      <point x="274" y="579" type="line"/>
      <point x="383" y="589" type="line"/>
      <point x="389" y="667" type="line"/>
      <point x="389" y="667"/>
      <point x="300" y="663"/>
      <point x="223" y="663" type="curve" smooth="yes"/>
      <point x="205" y="663"/>
      <point x="111" y="667"/>
      <point x="111" y="667" type="curve"/>
      <point x="97" y="595" type="line"/>
      <point x="215" y="573" type="line"/>
      <point x="146" y="606" type="line"/>
      <point x="160" y="582"/>
      <point x="173" y="565"/>
      <point x="182" y="544" type="curve" smooth="yes"/>
    </contour>
    <contour>
      <point x="218" y="-5" type="line"/>
      <point x="218" y="-5"/>
      <point x="332" y="0"/>
      <point x="361" y="0" type="curve"/>
      <point x="498" y="0" type="line"/>
      <point x="510" y="68" type="line"/>
      <point x="391" y="80" type="line"/>
      <point x="453" y="22" type="line"/>
      <point x="450" y="49"/>
      <point x="454" y="151"/>
      <point x="458" y="184" type="curve" smooth="yes"/>
      <point x="471" y="284" type="line"/>
      <point x="319" y="284" type="line"/>
      <point x="303" y="155" type="line" smooth="yes"/>
      <point x="300" y="129"/>
      <point x="281" y="59"/>
      <point x="271" y="22" type="curve"/>
      <point x="346" y="84" type="line"/>
      <point x="222" y="63" type="line"/>
    </contour>
    <contour>
      <point x="130" y="162" type="line"/>
      <point x="641" y="181" type="line"/>
      <point x="647" y="245" type="line"/>
      <point x="136" y="227" type="line"/>
    </contour>
    <contour>
      <point x="138" y="268" type="line"/>
      <point x="650" y="287" type="line"/>
      <point x="656" y="351" type="line"/>
      <point x="145" y="333" type="line"/>
    </contour>
  </outline>
</glyph>
<glyph name="brokenbar" format="2">
  <advance width="310"/>
  <unicode hex="00A6"/>
  <outline>
    <contour>
      <point x="215" y="392" type="line"/>
      <point x="268" y="752" type="line"/>
      <point x="174" y="760" type="line"/>
      <point x="121" y="400" type="line"/>
    </contour>
    <contour>
      <point x="140" y="-122" type="line"/>
      <point x="188" y="205" type="line"/>
      <point x="94" y="212" type="line"/>
      <point x="46" y="-113" type="line"/>
    </contour>
  </outline>
</glyph>
<glyph name="section" format="2">
  <advance width="565"/>
  <unicode hex="00A7"/>
  <outline>
    <contour>
      <point x="219" y="-114" type="curve" smooth="yes"/>
      <point x="324" y="-114"/>
      <point x="439" y="-59"/>
      <point x="439" y="49" type="curve" smooth="yes"/>
      <point x="439" y="208"/>
      <point x="196" y="252"/>
      <point x="196" y="342" type="curve" smooth="yes"/>
      <point x="196" y="358"/>
      <point x="202" y="375"/>
      <point x="214" y="390" type="curve"/>
      <point x="187" y="415" type="line"/>
      <point x="178" y="409"/>
      <point x="127" y="380"/>
      <point x="105" y="322" type="curve" smooth="yes"/>
      <point x="98" y="305"/>
      <point x="94" y="286"/>
      <point x="94" y="266" type="curve" smooth="yes"/>
      <point x="94" y="145"/>
      <point x="309" y="96"/>
      <point x="309" y="19" type="curve" smooth="yes"/>
      <point x="309" y="-20"/>
      <point x="272" y="-44"/>
      <point x="232" y="-44" type="curve" smooth="yes"/>
      <point x="197" y="-44"/>
      <point x="166" y="-34"/>
      <point x="146" y="-24" type="curve"/>
      <point x="54" y="-77" type="line"/>
      <point x="80" y="-89"/>
      <point x="144" y="-114"/>
    </contour>
    <contour>
      <point x="54" y="-77" type="line"/>
      <point x="154" y="-62" type="line"/>
      <point x="153" y="-47"/>
      <point x="150" y="-3"/>
      <point x="151" y="9" type="curve" smooth="yes"/>
      <point x="158" y="77" type="line"/>
      <point x="92" y="83" type="line"/>
    </contour>
    <contour>
      <point x="401" y="191" type="line"/>
      <point x="410" y="198"/>
      <point x="492" y="246"/>
      <point x="492" y="342" type="curve" smooth="yes"/>
      <point x="492" y="461"/>
      <point x="271" y="516"/>
      <point x="271" y="591" type="curve"/>
      <point x="271" y="625"/>
      <point x="299" y="651"/>
      <point x="332" y="651" type="curve" smooth="yes"/>
      <point x="369" y="651"/>
      <point x="399" y="640"/>
      <point x="420" y="630" type="curve"/>
      <point x="510" y="697" type="line"/>
      <point x="498" y="700"/>
      <point x="415" y="720"/>
      <point x="342" y="720" type="curve" smooth="yes"/>
      <point x="233" y="720"/>
      <point x="144" y="661"/>
      <point x="144" y="560" type="curve" smooth="yes"/>
      <point x="144" y="397"/>
      <point x="393" y="363"/>
      <point x="393" y="266" type="curve" smooth="yes"/>
      <point x="393" y="248"/>
      <point x="383" y="229"/>
      <point x="373" y="215" type="curve"/>
    </contour>
    <contour>
      <point x="475" y="540" type="line"/>
      <point x="510" y="697" type="line"/>
      <point x="410" y="693" type="line"/>
      <point x="415" y="657"/>
      <point x="421" y="603"/>
      <point x="420" y="594" type="curve" smooth="yes"/>
      <point x="414" y="546" type="line"/>
    </contour>
  </outline>
</glyph>
<glyph name="copyright" format="2">
  <advance width="892"/>
  <unicode hex="00A9"/>
  <outline>
    <contour>
      <point x="458" y="-15" type="curve" smooth="yes"/>
      <point x="660" y="-15"/>
      <point x="824" y="152"/>
      <point x="824" y="350" type="curve" smooth="yes"/>
      <point x="824" y="554"/>
      <point x="661" y="715"/>
      <point x="458" y="715" type="curve" smooth="yes"/>
      <point x="258" y="715"/>
      <point x="93" y="552"/>
      <point x="93" y="350" type="curve" smooth="yes"/>
      <point x="93" y="144"/>
      <point x="260" y="-15"/>
    </contour>
    <contour>
      <point x="449" y="141" type="curve" smooth="yes"/>
      <point x="498" y="141"/>
      <point x="545" y="151"/>
      <point x="588" y="161" type="curve"/>
      <point x="598" y="271" type="line"/>
      <point x="547" y="269" type="line"/>
      <point x="545" y="260"/>
      <point x="542" y="247"/>
      <point x="541" y="242" type="curve" smooth="yes"/>
      <point x="540" y="237"/>
      <point x="518" y="196"/>
      <point x="505" y="173" type="curve"/>
      <point x="575" y="223" type="line"/>
      <point x="538" y="217"/>
      <point x="486" y="212"/>
      <point x="455" y="212" type="curve" smooth="yes"/>
      <point x="409" y="212"/>
      <point x="397" y="253"/>
      <point x="397" y="310" type="curve" smooth="yes"/>
      <point x="397" y="389"/>
      <point x="416" y="497"/>
      <point x="502" y="497" type="curve" smooth="yes"/>
      <point x="537" y="497"/>
      <point x="574" y="492"/>
      <point x="608" y="488" type="curve"/>
      <point x="553" y="542" type="line"/>
      <point x="557" y="521"/>
      <point x="566" y="484"/>
      <point x="565" y="474" type="curve" smooth="yes"/>
      <point x="562" y="432" type="line"/>
      <point x="614" y="429" type="line"/>
      <point x="639" y="548" type="line"/>
      <point x="602" y="557"/>
      <point x="562" y="568"/>
      <point x="509" y="568" type="curve" smooth="yes"/>
      <point x="346" y="568"/>
      <point x="259" y="462"/>
      <point x="259" y="321" type="curve" smooth="yes"/>
      <point x="259" y="213"/>
      <point x="322" y="141"/>
    </contour>
    <contour>
      <point x="459" y="54" type="curve" smooth="yes"/>
      <point x="297" y="54"/>
      <point x="163" y="188"/>
      <point x="163" y="350" type="curve" smooth="yes"/>
      <point x="163" y="516"/>
      <point x="297" y="646"/>
      <point x="459" y="646" type="curve" smooth="yes"/>
      <point x="622" y="646"/>
      <point x="755" y="511"/>
      <point x="755" y="350" type="curve" smooth="yes"/>
      <point x="755" y="188"/>
      <point x="623" y="54"/>
    </contour>
  </outline>
</glyph>
<glyph name="ordfeminine" format="2">
  <advance width="421"/>
  <unicode hex="00AA"/>
  <anchor x="216" y="330" name="bottom"/>
  <anchor x="324" y="330" name="ogonek"/>
  <anchor x="262" y="651" name="top"/>
  <outline>
    <contour>
      <point x="122" y="318" type="curve" smooth="yes"/>
      <point x="195" y="318"/>
      <point x="261" y="403"/>
      <point x="301" y="507" type="curve"/>
      <point x="293" y="517" type="line"/>
      <point x="292" y="464"/>
      <point x="262" y="384"/>
      <point x="243" y="330" type="curve"/>
      <point x="267" y="318" type="line"/>
      <point x="403" y="345" type="line"/>
      <point x="406" y="381" type="line"/>
      <point x="311" y="390" type="line"/>
      <point x="352" y="352" type="line"/>
      <point x="355" y="465"/>
      <point x="371" y="548"/>
      <point x="396" y="643" type="curve"/>
      <point x="368" y="662" type="line"/>
      <point x="288" y="642" type="line"/>
      <point x="287" y="613" type="line" smooth="yes"/>
      <point x="283" y="504"/>
      <point x="215" y="408"/>
      <point x="182" y="408" type="curve" smooth="yes"/>
      <point x="167" y="408"/>
      <point x="164" y="423"/>
      <point x="164" y="445" type="curve" smooth="yes"/>
      <point x="164" y="521"/>
      <point x="190" y="588"/>
      <point x="213" y="588" type="curve" smooth="yes"/>
      <point x="249" y="588"/>
      <point x="296" y="566"/>
      <point x="303" y="565" type="curve"/>
      <point x="319" y="648" type="line"/>
      <point x="305" y="648"/>
      <point x="249" y="662"/>
      <point x="224" y="662" type="curve" smooth="yes"/>
      <point x="146" y="662"/>
      <point x="69" y="533"/>
      <point x="69" y="419" type="curve" smooth="yes"/>
      <point x="69" y="372"/>
      <point x="84" y="318"/>
    </contour>
  </outline>
</glyph>
<glyph name="logicalnot" format="2">
  <advance width="639"/>
  <unicode hex="00AC"/>
  <outline>
    <contour>
      <point x="407" y="65" type="line"/>
      <point x="503" y="65" type="line"/>
      <point x="531" y="308" type="line"/>
      <point x="89" y="308" type="line"/>
      <point x="77" y="207" type="line"/>
      <point x="489" y="212" type="line"/>
      <point x="434" y="274" type="line"/>
    </contour>
  </outline>
</glyph>
<glyph name="registered" format="2">
  <advance width="892"/>
  <unicode hex="00AE"/>
  <outline>
    <contour>
      <point x="458" y="-15" type="curve" smooth="yes"/>
      <point x="660" y="-15"/>
      <point x="824" y="152"/>
      <point x="824" y="350" type="curve" smooth="yes"/>
      <point x="824" y="554"/>
      <point x="661" y="715"/>
      <point x="458" y="715" type="curve" smooth="yes"/>
      <point x="258" y="715"/>
      <point x="93" y="552"/>
      <point x="93" y="350" type="curve" smooth="yes"/>
      <point x="93" y="144"/>
      <point x="260" y="-15"/>
    </contour>
    <contour>
      <point x="266" y="157" type="line"/>
      <point x="298" y="158"/>
      <point x="339" y="160"/>
      <point x="362" y="160" type="curve" smooth="yes"/>
      <point x="451" y="160" type="line"/>
      <point x="460" y="208" type="line"/>
      <point x="384" y="218" type="line"/>
      <point x="433" y="191" type="line"/>
      <point x="434" y="198"/>
      <point x="431" y="237"/>
      <point x="438" y="284" type="curve" smooth="yes"/>
      <point x="465" y="476" type="line" smooth="yes"/>
      <point x="467" y="490"/>
      <point x="481" y="525"/>
      <point x="484" y="534" type="curve"/>
      <point x="401" y="569" type="line"/>
      <point x="386" y="569"/>
      <point x="345" y="571"/>
      <point x="327" y="572" type="curve"/>
      <point x="316" y="518" type="line"/>
      <point x="396" y="502" type="line"/>
      <point x="348" y="534" type="line"/>
      <point x="348" y="525"/>
      <point x="348" y="478"/>
      <point x="341" y="431" type="curve" smooth="yes"/>
      <point x="317" y="267" type="line" smooth="yes"/>
      <point x="313" y="241"/>
      <point x="302" y="214"/>
      <point x="300" y="206" type="curve"/>
      <point x="351" y="220" type="line"/>
      <point x="270" y="207" type="line"/>
    </contour>
    <contour>
      <point x="458" y="54" type="curve" smooth="yes"/>
      <point x="296" y="54"/>
      <point x="162" y="188"/>
      <point x="162" y="350" type="curve" smooth="yes"/>
      <point x="162" y="516"/>
      <point x="296" y="646"/>
      <point x="458" y="646" type="curve" smooth="yes"/>
      <point x="621" y="646"/>
      <point x="754" y="511"/>
      <point x="754" y="350" type="curve" smooth="yes"/>
      <point x="754" y="188"/>
      <point x="622" y="54"/>
    </contour>
    <contour>
      <point x="516" y="160" type="curve"/>
      <point x="644" y="160" type="line"/>
      <point x="652" y="209" type="line"/>
      <point x="584" y="213" type="line"/>
      <point x="648" y="180" type="line"/>
      <point x="647" y="182"/>
      <point x="625" y="226"/>
      <point x="621" y="237" type="curve" smooth="yes"/>
      <point x="619" y="242"/>
      <point x="585" y="301"/>
      <point x="566" y="362" type="curve"/>
      <point x="448" y="360" type="line"/>
      <point x="498" y="227" type="line" smooth="yes"/>
      <point x="499" y="224"/>
      <point x="510" y="183"/>
    </contour>
    <contour>
      <point x="452" y="309" type="curve" smooth="yes"/>
      <point x="549" y="309"/>
      <point x="655" y="374"/>
      <point x="655" y="463" type="curve" smooth="yes"/>
      <point x="655" y="529"/>
      <point x="606" y="572"/>
      <point x="530" y="572" type="curve" smooth="yes"/>
      <point x="496" y="572"/>
      <point x="435" y="569"/>
      <point x="401" y="569" type="curve"/>
      <point x="405" y="507" type="line"/>
      <point x="454" y="511"/>
      <point x="469" y="509"/>
      <point x="476" y="509" type="curve" smooth="yes"/>
      <point x="517" y="509"/>
      <point x="532" y="497"/>
      <point x="532" y="462" type="curve" smooth="yes"/>
      <point x="532" y="418"/>
      <point x="519" y="374"/>
      <point x="447" y="374" type="curve" smooth="yes"/>
      <point x="424" y="374"/>
      <point x="394" y="371"/>
      <point x="368" y="368" type="curve"/>
      <point x="370" y="318" type="line"/>
      <point x="397" y="315"/>
      <point x="445" y="309"/>
    </contour>
  </outline>
</glyph>
<glyph name="degree" format="2">
  <advance width="457"/>
  <unicode hex="00B0"/>
  <outline>
    <contour>
      <point x="246" y="415" type="curve" smooth="yes"/>
      <point x="336" y="415"/>
      <point x="403" y="479"/>
      <point x="403" y="574" type="curve" smooth="yes"/>
      <point x="403" y="644"/>
      <point x="357" y="683"/>
      <point x="284" y="683" type="curve" smooth="yes"/>
      <point x="192" y="683"/>
      <point x="128" y="618"/>
      <point x="128" y="526" type="curve" smooth="yes"/>
      <point x="128" y="458"/>
      <point x="173" y="415"/>
    </contour>
    <contour>
      <point x="256" y="476" type="curve" smooth="yes"/>
      <point x="226" y="476"/>
      <point x="216" y="500"/>
      <point x="216" y="529" type="curve" smooth="yes"/>
      <point x="216" y="573"/>
      <point x="233" y="622"/>
      <point x="276" y="622" type="curve" smooth="yes"/>
      <point x="305" y="622"/>
      <point x="316" y="602"/>
      <point x="316" y="572" type="curve" smooth="yes"/>
      <point x="316" y="529"/>
      <point x="298" y="476"/>
    </contour>
  </outline>
</glyph>
<glyph name="plusminus" format="2">
  <advance width="662"/>
  <unicode hex="00B1"/>
  <outline>
    <contour>
      <point x="268" y="137" type="line"/>
      <point x="368" y="137" type="line"/>
      <point x="410" y="562" type="line"/>
      <point x="314" y="562" type="line"/>
    </contour>
    <contour>
      <point x="78" y="0" type="line"/>
      <point x="516" y="0" type="line"/>
      <point x="528" y="96" type="line"/>
      <point x="88" y="91" type="line"/>
    </contour>
    <contour>
      <point x="122" y="300" type="line"/>
      <point x="561" y="305" type="line"/>
      <point x="572" y="400" type="line"/>
      <point x="133" y="400" type="line"/>
    </contour>
  </outline>
</glyph>
<glyph name="twosuperior" format="2">
  <advance width="430"/>
  <unicode hex="00B2"/>
  <outline>
    <contour>
      <point x="355" y="328" type="line"/>
      <point x="378" y="341" type="line"/>
      <point x="399" y="474" type="line"/>
      <point x="345" y="478" type="line"/>
      <point x="337" y="456" type="line"/>
      <point x="337" y="454"/>
      <point x="318" y="406"/>
      <point x="304" y="377" type="curve"/>
      <point x="369" y="425" type="line"/>
      <point x="331" y="420"/>
      <point x="287" y="413"/>
      <point x="265" y="413" type="curve" smooth="yes"/>
      <point x="156" y="413" type="line"/>
      <point x="152" y="377" type="line"/>
      <point x="344" y="518"/>
      <point x="401" y="585"/>
      <point x="401" y="664" type="curve" smooth="yes"/>
      <point x="401" y="726"/>
      <point x="351" y="760"/>
      <point x="262" y="760" type="curve" smooth="yes"/>
      <point x="217" y="760"/>
      <point x="172" y="753"/>
      <point x="127" y="738" type="curve"/>
      <point x="116" y="621" type="line"/>
      <point x="171" y="625" type="line"/>
      <point x="175" y="653" type="line" smooth="yes"/>
      <point x="176" y="661"/>
      <point x="189" y="696"/>
      <point x="198" y="719" type="curve"/>
      <point x="152" y="656" type="line"/>
      <point x="181" y="679"/>
      <point x="213" y="690"/>
      <point x="238" y="690" type="curve" smooth="yes"/>
      <point x="266" y="690"/>
      <point x="285" y="676"/>
      <point x="285" y="648" type="curve" smooth="yes"/>
      <point x="285" y="587"/>
      <point x="227" y="526"/>
      <point x="69" y="398" type="curve"/>
      <point x="70" y="330" type="line"/>
      <point x="287" y="330" type="line"/>
    </contour>
  </outline>
</glyph>
<glyph name="threesuperior" format="2">
  <advance width="380"/>
  <unicode hex="00B3"/>
  <outline>
    <contour>
      <point x="66" y="262" type="line"/>
      <point x="226" y="273"/>
      <point x="356" y="361"/>
      <point x="356" y="455" type="curve" smooth="yes"/>
      <point x="356" y="505"/>
      <point x="308" y="554"/>
      <point x="249" y="548" type="curve"/>
      <point x="245" y="531" type="line"/>
      <point x="315" y="553"/>
      <point x="365" y="598"/>
      <point x="365" y="663" type="curve" smooth="yes"/>
      <point x="365" y="727"/>
      <point x="318" y="760"/>
      <point x="229" y="760" type="curve" smooth="yes"/>
      <point x="191" y="760"/>
      <point x="147" y="754"/>
      <point x="109" y="741" type="curve"/>
      <point x="104" y="629" type="line"/>
      <point x="159" y="632" type="line"/>
      <point x="164" y="668" type="line" smooth="yes"/>
      <point x="165" y="678"/>
      <point x="178" y="710"/>
      <point x="187" y="736" type="curve"/>
      <point x="152" y="684" type="line"/>
      <point x="160" y="690"/>
      <point x="195" y="698"/>
      <point x="217" y="698" type="curve" smooth="yes"/>
      <point x="243" y="698"/>
      <point x="257" y="685"/>
      <point x="257" y="662" type="curve" smooth="yes"/>
      <point x="257" y="609"/>
      <point x="216" y="564"/>
      <point x="146" y="551" type="curve"/>
      <point x="149" y="500" type="line"/>
      <point x="149" y="500"/>
      <point x="174" y="503"/>
      <point x="188" y="503" type="curve" smooth="yes"/>
      <point x="222" y="503"/>
      <point x="238" y="486"/>
      <point x="238" y="453" type="curve" smooth="yes"/>
      <point x="238" y="371"/>
      <point x="156" y="325"/>
      <point x="58" y="315" type="curve"/>
    </contour>
  </outline>
</glyph>
<glyph name="micro" format="2">
  <advance width="701"/>
  <unicode hex="00B5"/>
  <outline>
    <contour>
      <point x="80" y="-277" type="line"/>
      <point x="194" y="-259" type="line"/>
      <point x="204" y="-126"/>
      <point x="212" y="-76"/>
      <point x="220" y="-4" type="curve"/>
      <point x="197" y="-18" type="line"/>
      <point x="328" y="-18"/>
      <point x="406" y="140"/>
      <point x="456" y="252" type="curve"/>
      <point x="443" y="250" type="line"/>
      <point x="442" y="180"/>
      <point x="409" y="83"/>
      <point x="382" y="0" type="curve"/>
      <point x="417" y="-18" type="line"/>
      <point x="620" y="24" type="line"/>
      <point x="622" y="77" type="line"/>
      <point x="479" y="90" type="line"/>
      <point x="540" y="49" type="line"/>
      <point x="542" y="174"/>
      <point x="571" y="304"/>
      <point x="617" y="492" type="curve"/>
      <point x="581" y="510" type="line"/>
      <point x="468" y="492" type="line"/>
      <point x="467" y="476"/>
      <point x="464" y="456"/>
      <point x="461" y="443" type="curve" smooth="yes"/>
      <point x="442" y="355"/>
      <point x="404" y="247"/>
      <point x="360" y="181" type="curve" smooth="yes"/>
      <point x="329" y="135"/>
      <point x="299" y="111"/>
      <point x="272" y="111" type="curve" smooth="yes"/>
      <point x="256" y="111"/>
      <point x="248" y="125"/>
      <point x="248" y="153" type="curve" smooth="yes"/>
      <point x="248" y="204"/>
      <point x="270" y="301"/>
      <point x="316" y="482" type="curve"/>
      <point x="276" y="510" type="line"/>
      <point x="83" y="467" type="line"/>
      <point x="84" y="415" type="line"/>
      <point x="219" y="407" type="line"/>
      <point x="158" y="437" type="line"/>
      <point x="156" y="298"/>
      <point x="97" y="-48"/>
      <point x="45" y="-259" type="curve"/>
    </contour>
  </outline>
</glyph>
<glyph name="paragraph" format="2">
  <advance width="644"/>
  <unicode hex="00B6"/>
  <outline>
    <contour>
      <point x="276" y="-200" type="line"/>
      <point x="361" y="-126"/>
      <point x="459" y="-29"/>
      <point x="464" y="2" type="curve" smooth="yes"/>
      <point x="543" y="541" type="line"/>
      <point x="547" y="573"/>
      <point x="567" y="642"/>
      <point x="574" y="668" type="curve"/>
      <point x="511" y="626" type="line"/>
      <point x="633" y="637" type="line"/>
      <point x="639" y="710" type="line"/>
      <point x="587" y="708"/>
      <point x="534" y="705"/>
      <point x="492" y="705" type="curve"/>
      <point x="435" y="705" type="line"/>
      <point x="335" y="11" type="line" smooth="yes"/>
      <point x="332" y="-9"/>
      <point x="233" y="-172"/>
      <point x="233" y="-172" type="curve"/>
    </contour>
    <contour>
      <point x="306" y="291" type="curve"/>
      <point x="336" y="316" type="line"/>
      <point x="392" y="711" type="line"/>
      <point x="371" y="714"/>
      <point x="356" y="715"/>
      <point x="344" y="715" type="curve" smooth="yes"/>
      <point x="199" y="715"/>
      <point x="96" y="620"/>
      <point x="96" y="470" type="curve" smooth="yes"/>
      <point x="96" y="350"/>
      <point x="191" y="291"/>
    </contour>
  </outline>
</glyph>
<glyph name="periodcentered" format="2">
  <advance width="326"/>
  <unicode hex="00B7"/>
  <outline>
    <contour>
      <point x="157" y="215" type="curve" smooth="yes"/>
      <point x="209" y="215"/>
      <point x="246" y="257"/>
      <point x="246" y="317" type="curve" smooth="yes"/>
      <point x="246" y="359"/>
      <point x="222" y="384"/>
      <point x="181" y="384" type="curve" smooth="yes"/>
      <point x="130" y="384"/>
      <point x="92" y="341"/>
      <point x="92" y="282" type="curve" smooth="yes"/>
      <point x="92" y="242"/>
      <point x="115" y="215"/>
    </contour>
  </outline>
</glyph>
<glyph name="onesuperior" format="2">
  <advance width="358"/>
  <unicode hex="00B9"/>
  <outline>
    <contour>
      <point x="59" y="327" type="line"/>
      <point x="85" y="328"/>
      <point x="163" y="330"/>
      <point x="180" y="330" type="curve" smooth="yes"/>
      <point x="332" y="330" type="line"/>
      <point x="342" y="379" type="line"/>
      <point x="231" y="386" type="line"/>
      <point x="276" y="337" type="line"/>
      <point x="275" y="418"/>
      <point x="277" y="438"/>
      <point x="279" y="459" type="curve" smooth="yes"/>
      <point x="299" y="607" type="line" smooth="yes"/>
      <point x="303" y="639"/>
      <point x="323" y="759"/>
      <point x="323" y="759" type="curve"/>
      <point x="247" y="767" type="line"/>
      <point x="92" y="660" type="line"/>
      <point x="112" y="616" type="line"/>
      <point x="242" y="654" type="line"/>
      <point x="203" y="684" type="line"/>
      <point x="172" y="440" type="line" smooth="yes"/>
      <point x="169" y="417"/>
      <point x="155" y="372"/>
      <point x="144" y="337" type="curve"/>
      <point x="204" y="388" type="line"/>
      <point x="62" y="375" type="line"/>
    </contour>
  </outline>
</glyph>
<glyph name="ordmasculine" format="2">
  <advance width="380"/>
  <unicode hex="00BA"/>
  <outline>
    <contour>
      <point x="178" y="318" type="curve" smooth="yes"/>
      <point x="285" y="318"/>
      <point x="372" y="416"/>
      <point x="372" y="540" type="curve" smooth="yes"/>
      <point x="372" y="620"/>
      <point x="333" y="662"/>
      <point x="261" y="662" type="curve" smooth="yes"/>
      <point x="155" y="662"/>
      <point x="67" y="564"/>
      <point x="67" y="440" type="curve" smooth="yes"/>
      <point x="67" y="359"/>
      <point x="107" y="318"/>
    </contour>
    <contour>
      <point x="200" y="382" type="curve" smooth="yes"/>
      <point x="179" y="382"/>
      <point x="166" y="405"/>
      <point x="166" y="445" type="curve" smooth="yes"/>
      <point x="166" y="543"/>
      <point x="192" y="598"/>
      <point x="240" y="598" type="curve" smooth="yes"/>
      <point x="260" y="598"/>
      <point x="273" y="575"/>
      <point x="273" y="535" type="curve" smooth="yes"/>
      <point x="273" y="436"/>
      <point x="247" y="382"/>
    </contour>
  </outline>
</glyph>
<glyph name="questiondown" format="2">
  <advance width="474"/>
  <unicode hex="00BF"/>
  <outline>
    <contour>
      <point x="276" y="268" type="line"/>
      <point x="258" y="252" type="line"/>
      <point x="242" y="69" type="line"/>
      <point x="292" y="130" type="line"/>
      <point x="278" y="132"/>
      <point x="265" y="132"/>
      <point x="251" y="132" type="curve" smooth="yes"/>
      <point x="106" y="132"/>
      <point x="11" y="43"/>
      <point x="11" y="-101" type="curve" smooth="yes"/>
      <point x="11" y="-216"/>
      <point x="85" y="-274"/>
      <point x="197" y="-274" type="curve" smooth="yes"/>
      <point x="236" y="-274"/>
      <point x="283" y="-267"/>
      <point x="334" y="-251" type="curve"/>
      <point x="343" y="-94" type="line"/>
      <point x="277" y="-99" type="line"/>
      <point x="275" y="-132" type="line" smooth="yes"/>
      <point x="274" y="-149"/>
      <point x="256" y="-204"/>
      <point x="246" y="-244" type="curve"/>
      <point x="332" y="-178" type="line"/>
      <point x="296" y="-194"/>
      <point x="261" y="-203"/>
      <point x="230" y="-203" type="curve" smooth="yes"/>
      <point x="174" y="-203"/>
      <point x="137" y="-172"/>
      <point x="137" y="-107" type="curve" smooth="yes"/>
      <point x="137" y="-14"/>
      <point x="190" y="60"/>
      <point x="268" y="60" type="curve" smooth="yes"/>
      <point x="278" y="60"/>
      <point x="305" y="59"/>
      <point x="321" y="57" type="curve"/>
      <point x="353" y="91" type="line"/>
      <point x="374" y="264" type="line"/>
    </contour>
    <contour>
      <point x="349" y="508" type="curve" smooth="yes"/>
      <point x="301" y="508"/>
      <point x="273" y="472"/>
      <point x="273" y="421" type="curve" smooth="yes"/>
      <point x="273" y="376"/>
      <point x="298" y="349"/>
      <point x="339" y="349" type="curve" smooth="yes"/>
      <point x="387" y="349"/>
      <point x="414" y="386"/>
      <point x="414" y="438" type="curve" smooth="yes"/>
      <point x="414" y="480"/>
      <point x="392" y="508"/>
    </contour>
  </outline>
</glyph>
<glyph name="AE" format="2">
  <advance width="951"/>
  <unicode hex="00C6"/>
  <anchor x="605" y="0" name="bottom"/>
  <anchor x="706" y="720" name="top"/>
  <outline>
    <contour>
      <point x="1" y="-5" type="line"/>
      <point x="43" y="-3"/>
      <point x="105" y="0"/>
      <point x="127" y="0" type="curve" smooth="yes"/>
      <point x="235" y="0" type="line"/>
      <point x="249" y="67" type="line"/>
      <point x="144" y="80" type="line"/>
      <point x="189" y="35" type="line"/>
      <point x="195" y="60"/>
      <point x="205" y="95"/>
      <point x="219" y="120" type="curve" smooth="yes"/>
      <point x="510" y="601" type="line"/>
      <point x="459" y="587" type="line"/>
      <point x="449" y="138" type="line" smooth="yes"/>
      <point x="448" y="109"/>
      <point x="435" y="67"/>
      <point x="429" y="44" type="curve"/>
      <point x="495" y="85" type="line"/>
      <point x="369" y="61" type="line"/>
      <point x="363" y="-5" type="line"/>
      <point x="412" y="-3"/>
      <point x="480" y="0"/>
      <point x="510" y="0" type="curve" smooth="yes"/>
      <point x="636" y="0" type="line"/>
      <point x="608" y="45" type="line"/>
      <point x="604" y="57"/>
      <point x="598" y="101"/>
      <point x="597" y="130" type="curve" smooth="yes"/>
      <point x="579" y="705" type="line"/>
      <point x="476" y="705" type="line"/>
      <point x="130" y="162" type="line" smooth="yes"/>
      <point x="109" y="129"/>
      <point x="57" y="66"/>
      <point x="43" y="50" type="curve"/>
      <point x="117" y="81" type="line"/>
      <point x="5" y="60" type="line"/>
    </contour>
    <contour>
      <point x="247" y="192" type="line"/>
      <point x="479" y="192" type="line"/>
      <point x="486" y="269" type="line"/>
      <point x="281" y="266" type="line"/>
    </contour>
    <contour>
      <point x="516" y="0" type="line"/>
      <point x="729" y="0" type="line" smooth="yes"/>
      <point x="755" y="0"/>
      <point x="803" y="0"/>
      <point x="844" y="0" type="curve"/>
      <point x="860" y="14" type="line"/>
      <point x="899" y="184" type="line"/>
      <point x="835" y="189" type="line"/>
      <point x="830" y="172"/>
      <point x="819" y="140"/>
      <point x="814" y="129" type="curve" smooth="yes"/>
      <point x="808" y="114"/>
      <point x="785" y="78"/>
      <point x="755" y="44" type="curve"/>
      <point x="812" y="93" type="line"/>
      <point x="796" y="89"/>
      <point x="753" y="80"/>
      <point x="711" y="80" type="curve" smooth="yes"/>
      <point x="516" y="80" type="line"/>
    </contour>
    <contour>
      <point x="736" y="251" type="line"/>
      <point x="796" y="257" type="line"/>
      <point x="802" y="323"/>
      <point x="813" y="392"/>
      <point x="825" y="463" type="curve"/>
      <point x="768" y="468" type="line"/>
      <point x="733" y="346" type="line"/>
      <point x="804" y="408" type="line"/>
      <point x="772" y="403"/>
      <point x="715" y="395"/>
      <point x="702" y="395" type="curve" smooth="yes"/>
      <point x="504" y="395" type="line"/>
      <point x="504" y="319" type="line"/>
      <point x="672" y="319" type="line" smooth="yes"/>
      <point x="691" y="319"/>
      <point x="748" y="313"/>
      <point x="793" y="308" type="curve"/>
      <point x="737" y="369" type="line"/>
    </contour>
    <contour>
      <point x="833" y="541" type="curve"/>
      <point x="901" y="546" type="line"/>
      <point x="916" y="692" type="line"/>
      <point x="900" y="710" type="line"/>
      <point x="861" y="708"/>
      <point x="814" y="705"/>
      <point x="788" y="705" type="curve" smooth="yes"/>
      <point x="489" y="705" type="line"/>
      <point x="489" y="630" type="line"/>
      <point x="748" y="630" type="line" smooth="yes"/>
      <point x="779" y="630"/>
      <point x="839" y="625"/>
      <point x="878" y="622" type="curve"/>
      <point x="809" y="679" type="line"/>
      <point x="818" y="652"/>
      <point x="832" y="601"/>
      <point x="832" y="590" type="curve" smooth="yes"/>
      <point x="832" y="575"/>
      <point x="833" y="557"/>
    </contour>
  </outline>
</glyph>
<glyph name="multiply" format="2">
  <advance width="566"/>
  <unicode hex="00D7"/>
  <outline>
    <contour>
      <point x="107" y="24" type="line"/>
      <point x="516" y="389" type="line"/>
      <point x="453" y="460" type="line"/>
      <point x="47" y="92" type="line"/>
    </contour>
    <contour>
      <point x="402" y="26" type="line"/>
      <point x="482" y="98" type="line"/>
      <point x="159" y="459" type="line"/>
      <point x="82" y="390" type="line"/>
    </contour>
  </outline>
</glyph>
<glyph name="Oslash" format="2">
  <advance width="787"/>
  <unicode hex="00D8"/>
  <anchor x="364.672" y="0" name="bottom"/>
  <anchor x="451.235" y="705" name="top"/>
  <anchor x="406" y="353" name="center"/>
  <anchor x="486" y="0" name="ogonek"/>
  <anchor x="91" y="705" name="topleft"/>
  <anchor x="629" y="620" name="topright"/>
  <outline>
    <contour>
      <point x="162" y="-125" type="line"/>
      <point x="710" y="794" type="line"/>
      <point x="652" y="826" type="line"/>
      <point x="106" y="-93" type="line"/>
    </contour>
    <component base="O"/>
  </outline>
</glyph>
<glyph name="Thorn" format="2">
  <advance width="590"/>
  <unicode hex="00DE"/>
  <anchor x="264.672" y="0" name="bottom"/>
  <anchor x="351.235" y="705" name="top"/>
  <outline>
    <contour>
      <point x="10" y="-5" type="line"/>
      <point x="59" y="-3"/>
      <point x="127" y="0"/>
      <point x="156" y="0" type="curve" smooth="yes"/>
      <point x="291" y="0" type="line"/>
      <point x="305" y="66" type="line"/>
      <point x="182" y="79" type="line"/>
      <point x="238" y="39" type="line"/>
      <point x="238" y="59"/>
      <point x="239" y="130"/>
      <point x="247" y="186" type="curve" smooth="yes"/>
      <point x="298" y="541" type="line" smooth="yes"/>
      <point x="303" y="574"/>
      <point x="322" y="639"/>
      <point x="329" y="666" type="curve"/>
      <point x="263" y="623" type="line"/>
      <point x="387" y="635" type="line"/>
      <point x="393" y="710" type="line"/>
      <point x="340" y="708"/>
      <point x="277" y="705"/>
      <point x="234" y="705" type="curve" smooth="yes"/>
      <point x="215" y="705"/>
      <point x="155" y="708"/>
      <point x="115" y="710" type="curve"/>
      <point x="100" y="640" type="line"/>
      <point x="220" y="618" type="line"/>
      <point x="164" y="666" type="line"/>
      <point x="164" y="641"/>
      <point x="164" y="573"/>
      <point x="157" y="526" type="curve" smooth="yes"/>
      <point x="103" y="156" type="line" smooth="yes"/>
      <point x="99" y="130"/>
      <point x="82" y="73"/>
      <point x="75" y="47" type="curve"/>
      <point x="138" y="83" type="line"/>
      <point x="14" y="60" type="line"/>
    </contour>
    <contour>
      <point x="297" y="162" type="curve" smooth="yes"/>
      <point x="440" y="162"/>
      <point x="568" y="241"/>
      <point x="568" y="382" type="curve" smooth="yes"/>
      <point x="568" y="488"/>
      <point x="491" y="552"/>
      <point x="365" y="552" type="curve" smooth="yes"/>
      <point x="335" y="552"/>
      <point x="283" y="549"/>
      <point x="270" y="548" type="curve"/>
      <point x="260" y="477" type="line"/>
      <point x="272" y="477"/>
      <point x="289" y="477"/>
      <point x="298" y="477" type="curve" smooth="yes"/>
      <point x="386" y="477"/>
      <point x="428" y="447"/>
      <point x="428" y="381" type="curve" smooth="yes"/>
      <point x="428" y="287"/>
      <point x="360" y="238"/>
      <point x="259" y="238" type="curve" smooth="yes"/>
      <point x="226" y="238"/>
      <point x="229" y="237"/>
      <point x="224" y="238" type="curve"/>
      <point x="214" y="163" type="line"/>
      <point x="286" y="163"/>
      <point x="269" y="162"/>
    </contour>
  </outline>
</glyph>
<glyph name="germandbls" format="2">
  <advance width="611"/>
  <unicode hex="00DF"/>
  <outline>
    <contour>
      <point x="-133" y="-235" type="line"/>
      <point x="2" y="-225"/>
      <point x="99" y="-170"/>
      <point x="151" y="-40" type="curve" smooth="yes"/>
      <point x="167" y="0"/>
      <point x="237" y="574"/>
      <point x="278" y="634" type="curve" smooth="yes"/>
      <point x="295" y="659"/>
      <point x="380" y="667"/>
      <point x="417" y="663" type="curve" smooth="yes"/>
      <point x="438" y="661"/>
      <point x="459" y="653"/>
      <point x="459" y="622" type="curve" smooth="yes"/>
      <point x="459" y="540"/>
      <point x="308" y="473"/>
      <point x="303" y="360" type="curve" smooth="yes"/>
      <point x="298" y="244"/>
      <point x="428" y="174"/>
      <point x="428" y="107" type="curve" smooth="yes"/>
      <point x="428" y="81"/>
      <point x="412" y="67"/>
      <point x="394" y="64" type="curve" smooth="yes"/>
      <point x="363" y="59"/>
      <point x="328" y="85"/>
      <point x="290" y="134" type="curve"/>
      <point x="330" y="26" type="line"/>
      <point x="333" y="182" type="line"/>
      <point x="285" y="195" type="line"/>
      <point x="237" y="76" type="line"/>
      <point x="247" y="31" type="line"/>
      <point x="303" y="-3"/>
      <point x="348" y="-15"/>
      <point x="401" y="-15" type="curve" smooth="yes"/>
      <point x="508" y="-15"/>
      <point x="574" y="52"/>
      <point x="574" y="153" type="curve" smooth="yes"/>
      <point x="574" y="265"/>
      <point x="430" y="328"/>
      <point x="430" y="394" type="curve" smooth="yes"/>
      <point x="430" y="508"/>
      <point x="602" y="541"/>
      <point x="602" y="660" type="curve" smooth="yes"/>
      <point x="602" y="750"/>
      <point x="523" y="767"/>
      <point x="465" y="769" type="curve" smooth="yes"/>
      <point x="308" y="774"/>
      <point x="154" y="702"/>
      <point x="118" y="550" type="curve" smooth="yes"/>
      <point x="96" y="458"/>
      <point x="88" y="352"/>
      <point x="77" y="269" type="curve" smooth="yes"/>
      <point x="54" y="92"/>
      <point x="27" y="-73"/>
      <point x="-4" y="-101" type="curve" smooth="yes"/>
      <point x="-21" y="-116"/>
      <point x="-54" y="-126"/>
      <point x="-99" y="-126" type="curve"/>
    </contour>
  </outline>
</glyph>
<glyph name="ae" format="2">
  <advance width="706"/>
  <unicode hex="00E6"/>
  <anchor x="308" y="0" name="bottom"/>
  <anchor x="505" y="0" name="ogonek"/>
  <anchor x="378" y="494" name="top"/>
  <outline>
    <contour>
      <point x="104" y="-15" type="curve" smooth="yes"/>
      <point x="221" y="-15"/>
      <point x="427" y="244"/>
      <point x="427" y="405" type="curve" smooth="yes"/>
      <point x="427" y="495"/>
      <point x="389" y="513"/>
      <point x="315" y="513" type="curve" smooth="yes"/>
      <point x="252" y="513"/>
      <point x="159" y="476"/>
      <point x="104" y="422" type="curve"/>
      <point x="145" y="376" type="line"/>
      <point x="207" y="422"/>
      <point x="314" y="449"/>
      <point x="314" y="382" type="curve" smooth="yes"/>
      <point x="314" y="350"/>
      <point x="308" y="310"/>
      <point x="297" y="277" type="curve" smooth="yes"/>
      <point x="268" y="190"/>
      <point x="222" y="108"/>
      <point x="175" y="108" type="curve" smooth="yes"/>
      <point x="133" y="108"/>
      <point x="144" y="178"/>
      <point x="155" y="197" type="curve" smooth="yes"/>
      <point x="168" y="219"/>
      <point x="222" y="246"/>
      <point x="331" y="256" type="curve"/>
      <point x="340" y="325" type="line"/>
      <point x="282" y="317" type="line" smooth="yes"/>
      <point x="120" y="295"/>
      <point x="20" y="242"/>
      <point x="11" y="131" type="curve" smooth="yes"/>
      <point x="6" y="72"/>
      <point x="20" y="-15"/>
    </contour>
    <contour>
      <point x="413" y="-15" type="curve" smooth="yes"/>
      <point x="497" y="-15"/>
      <point x="598" y="44"/>
      <point x="656" y="124" type="curve"/>
      <point x="610" y="164" type="line"/>
      <point x="574" y="127"/>
      <point x="512" y="82"/>
      <point x="470" y="82" type="curve" smooth="yes"/>
      <point x="439" y="82"/>
      <point x="416" y="102"/>
      <point x="416" y="154" type="curve" smooth="yes"/>
      <point x="416" y="270"/>
      <point x="466" y="423"/>
      <point x="514" y="423" type="curve" smooth="yes"/>
      <point x="553" y="423"/>
      <point x="567" y="413"/>
      <point x="567" y="395" type="curve" smooth="yes"/>
      <point x="567" y="339"/>
      <point x="495" y="263"/>
      <point x="379" y="253" type="curve"/>
      <point x="378" y="191" type="line"/>
      <point x="574" y="215"/>
      <point x="695" y="310"/>
      <point x="695" y="424" type="curve" smooth="yes"/>
      <point x="695" y="483"/>
      <point x="639" y="513"/>
      <point x="534" y="513" type="curve" smooth="yes"/>
      <point x="429" y="513"/>
      <point x="278" y="299"/>
      <point x="278" y="138" type="curve" smooth="yes"/>
      <point x="278" y="28"/>
      <point x="339" y="-15"/>
    </contour>
  </outline>
</glyph>
<glyph name="eth" format="2">
  <advance width="518"/>
  <unicode hex="00F0"/>
  <outline>
    <contour>
      <point x="196" y="-15" type="curve" smooth="yes"/>
      <point x="394" y="-15"/>
      <point x="489" y="219"/>
      <point x="489" y="389" type="curve" smooth="yes"/>
      <point x="489" y="540"/>
      <point x="423" y="663"/>
      <point x="308" y="770" type="curve"/>
      <point x="236" y="739" type="line"/>
      <point x="293" y="662"/>
      <point x="353" y="584"/>
      <point x="353" y="397" type="curve" smooth="yes"/>
      <point x="353" y="240"/>
      <point x="314" y="77"/>
      <point x="224" y="77" type="curve" smooth="yes"/>
      <point x="183" y="77"/>
      <point x="174" y="125"/>
      <point x="174" y="182" type="curve" smooth="yes"/>
      <point x="174" y="296"/>
      <point x="214" y="429"/>
      <point x="328" y="429" type="curve" smooth="yes"/>
      <point x="348" y="429"/>
      <point x="395" y="422"/>
      <point x="429" y="391" type="curve"/>
      <point x="420" y="487" type="line"/>
      <point x="398" y="501"/>
      <point x="333" y="506"/>
      <point x="306" y="506" type="curve" smooth="yes"/>
      <point x="162" y="506"/>
      <point x="29" y="348"/>
      <point x="29" y="171" type="curve" smooth="yes"/>
      <point x="29" y="65"/>
      <point x="71" y="-15"/>
    </contour>
    <contour>
      <point x="202" y="542" type="line"/>
      <point x="509" y="689" type="line"/>
      <point x="483" y="746" type="line"/>
      <point x="175" y="597" type="line"/>
    </contour>
  </outline>
</glyph>
<glyph name="divide" format="2">
  <advance width="631"/>
  <unicode hex="00F7"/>
  <outline>
    <contour>
      <point x="88" y="203" type="line"/>
      <point x="533" y="208" type="line"/>
      <point x="545" y="308" type="line"/>
      <point x="101" y="308" type="line"/>
    </contour>
    <contour>
      <point x="285" y="-6" type="curve" smooth="yes"/>
      <point x="335" y="-6"/>
      <point x="369" y="32"/>
      <point x="369" y="88" type="curve" smooth="yes"/>
      <point x="369" y="129"/>
      <point x="345" y="153"/>
      <point x="304" y="153" type="curve" smooth="yes"/>
      <point x="255" y="153"/>
      <point x="220" y="114"/>
      <point x="220" y="59" type="curve" smooth="yes"/>
      <point x="220" y="20"/>
      <point x="243" y="-6"/>
    </contour>
    <contour>
      <point x="327" y="357" type="curve" smooth="yes"/>
      <point x="377" y="357"/>
      <point x="411" y="395"/>
      <point x="411" y="451" type="curve" smooth="yes"/>
      <point x="411" y="492"/>
      <point x="387" y="516"/>
      <point x="346" y="516" type="curve" smooth="yes"/>
      <point x="297" y="516"/>
      <point x="262" y="477"/>
      <point x="262" y="421" type="curve" smooth="yes"/>
      <point x="262" y="383"/>
      <point x="284" y="357"/>
    </contour>
  </outline>
</glyph>
<glyph name="oslash" format="2">
  <advance width="517"/>
  <unicode hex="00F8"/>
  <anchor x="304" y="494" name="top"/>
  <anchor x="224" y="0" name="bottom"/>
  <anchor x="259" y="247" name="center"/>
  <anchor x="293" y="5" name="ogonek"/>
  <anchor x="389" y="440" name="topright"/>
  <outline>
    <contour>
      <point x="500" y="574" type="line"/>
      <point x="448" y="602" type="line"/>
      <point x="15" y="-75" type="line"/>
      <point x="66" y="-103" type="line"/>
    </contour>
    <component base="o" xOffset="3"/>
  </outline>
</glyph>
<glyph name="thorn" format="2">
  <advance width="537"/>
  <unicode hex="00FE"/>
  <anchor x="237" y="0" name="bottom"/>
  <anchor x="297" y="494" name="top"/>
  <outline>
    <contour>
      <point x="33" y="-277" type="line"/>
      <point x="149" y="-259" type="line"/>
      <point x="167" y="0"/>
      <point x="170" y="190"/>
      <point x="289" y="741" type="curve"/>
      <point x="255" y="769" type="line"/>
      <point x="57" y="736" type="line"/>
      <point x="60" y="683" type="line"/>
      <point x="190" y="666" type="line"/>
      <point x="129" y="691" type="line"/>
      <point x="122" y="552"/>
      <point x="58" y="-41"/>
      <point x="-1" y="-259" type="curve"/>
    </contour>
    <contour>
      <point x="275" y="-15" type="curve" smooth="yes"/>
      <point x="390" y="-15"/>
      <point x="507" y="187"/>
      <point x="507" y="358" type="curve" smooth="yes"/>
      <point x="507" y="437"/>
      <point x="483" y="513"/>
      <point x="426" y="513" type="curve" smooth="yes"/>
      <point x="281" y="513"/>
      <point x="153" y="282"/>
      <point x="117" y="61" type="curve"/>
      <point x="183" y="80" type="line"/>
      <point x="195" y="237"/>
      <point x="292" y="386"/>
      <point x="341" y="386" type="curve" smooth="yes"/>
      <point x="364" y="386"/>
      <point x="368" y="360"/>
      <point x="368" y="324" type="curve" smooth="yes"/>
      <point x="368" y="207"/>
      <point x="327" y="89"/>
      <point x="292" y="89" type="curve" smooth="yes"/>
      <point x="237" y="89"/>
      <point x="163" y="127"/>
      <point x="163" y="127" type="curve"/>
      <point x="132" y="6" type="line"/>
      <point x="148" y="6"/>
      <point x="236" y="-15"/>
    </contour>
  </outline>
</glyph>
<glyph name="Aogonek" format="2">
  <advance width="703"/>
  <unicode hex="0104"/>
  <anchor x="320" y="0" name="bottom"/>
  <anchor x="587" y="10" name="ogonek"/>
  <anchor x="419" y="705" name="top"/>
  <outline>
    <contour>
      <point x="0" y="-5" type="line"/>
      <point x="41" y="-3"/>
      <point x="103" y="0"/>
      <point x="124" y="0" type="curve" smooth="yes"/>
      <point x="240" y="0" type="line"/>
      <point x="255" y="71" type="line"/>
      <point x="137" y="84" type="line"/>
      <point x="196" y="33" type="line"/>
      <point x="198" y="58"/>
      <point x="199" y="90"/>
      <point x="209" y="115" type="curve" smooth="yes"/>
      <point x="427" y="608" type="line"/>
      <point x="366" y="590" type="line"/>
      <point x="423" y="129" type="line" smooth="yes"/>
      <point x="426" y="105"/>
      <point x="421" y="77"/>
      <point x="402" y="-5" type="curve"/>
      <point x="503" y="0" type="line"/>
      <point x="639" y="0" type="line"/>
      <point x="653" y="71" type="line"/>
      <point x="537" y="82" type="line"/>
      <point x="611" y="46" type="line"/>
      <point x="604" y="61"/>
      <point x="593" y="98"/>
      <point x="587" y="128" type="curve" smooth="yes"/>
      <point x="477" y="716" type="line"/>
      <point x="363" y="705" type="line"/>
      <point x="102" y="161" type="line" smooth="yes"/>
      <point x="87" y="129"/>
      <point x="47" y="71"/>
      <point x="33" y="52" type="curve"/>
      <point x="110" y="85" type="line"/>
      <point x="5" y="65" type="line"/>
    </contour>
    <contour>
      <point x="214" y="179" type="line"/>
      <point x="445" y="179" type="line"/>
      <point x="432" y="263" type="line"/>
      <point x="249" y="261" type="line"/>
    </contour>
    <component base="ogonekcomb" xOffset="315" yOffset="10"/>
  </outline>
</glyph>
<glyph name="aogonek" format="2">
  <advance width="568"/>
  <unicode hex="0105"/>
  <outline>
    <contour>
      <point x="324" y="-18" type="line"/>
      <point x="525" y="24" type="line"/>
      <point x="529" y="77" type="line"/>
      <point x="388" y="90" type="line"/>
      <point x="449" y="35" type="line"/>
      <point x="453" y="212"/>
      <point x="481" y="348"/>
      <point x="515" y="482" type="curve"/>
      <point x="475" y="510" type="line"/>
      <point x="357" y="481" type="line"/>
      <point x="355" y="435" type="line" smooth="yes"/>
      <point x="348" y="270"/>
      <point x="246" y="111"/>
      <point x="196" y="111" type="curve" smooth="yes"/>
      <point x="173" y="111"/>
      <point x="169" y="137"/>
      <point x="169" y="172" type="curve" smooth="yes"/>
      <point x="169" y="289"/>
      <point x="209" y="404"/>
      <point x="244" y="404" type="curve" smooth="yes"/>
      <point x="298" y="404"/>
      <point x="369" y="369"/>
      <point x="379" y="367" type="curve"/>
      <point x="402" y="489" type="line"/>
      <point x="382" y="490"/>
      <point x="299" y="510"/>
      <point x="261" y="510" type="curve" smooth="yes"/>
      <point x="145" y="510"/>
      <point x="29" y="309"/>
      <point x="29" y="137" type="curve" smooth="yes"/>
      <point x="29" y="59"/>
      <point x="52" y="-18"/>
      <point x="109" y="-18" type="curve" smooth="yes"/>
      <point x="217" y="-18"/>
      <point x="315" y="110"/>
      <point x="374" y="263" type="curve"/>
      <point x="362" y="279" type="line"/>
      <point x="360" y="195"/>
      <point x="319" y="83"/>
      <point x="289" y="0" type="curve"/>
    </contour>
    <component base="ogonekcomb" xOffset="181"/>
  </outline>
</glyph>
<glyph name="Iogonek" format="2">
  <advance width="376"/>
  <unicode hex="012E"/>
  <outline>
    <contour>
      <point x="22" y="-57" type="curve"/>
      <point x="72" y="-55"/>
      <point x="119" y="0"/>
      <point x="149" y="0" type="curve" smooth="yes"/>
      <point x="287" y="0" type="line"/>
      <point x="302" y="70" type="line"/>
      <point x="178" y="84" type="line"/>
      <point x="241" y="42" type="line"/>
      <point x="241" y="63"/>
      <point x="241" y="132"/>
      <point x="250" y="193" type="curve" smooth="yes"/>
      <point x="300" y="542" type="line" smooth="yes"/>
      <point x="304" y="572"/>
      <point x="325" y="639"/>
      <point x="331" y="661" type="curve"/>
      <point x="258" y="617" type="line"/>
      <point x="385" y="629" type="line"/>
      <point x="392" y="710" type="line"/>
      <point x="336" y="708"/>
      <point x="270" y="705"/>
      <point x="224" y="705" type="curve" smooth="yes"/>
      <point x="204" y="705"/>
      <point x="144" y="708"/>
      <point x="104" y="710" type="curve"/>
      <point x="88" y="635" type="line"/>
      <point x="211" y="611" type="line"/>
      <point x="149" y="661" type="line"/>
      <point x="149" y="639"/>
      <point x="150" y="571"/>
      <point x="141" y="512" type="curve" smooth="yes"/>
      <point x="90" y="163" type="line" smooth="yes"/>
      <point x="82" y="112"/>
      <point x="70" y="74"/>
    </contour>
    <component base="ogonekcomb" xOffset="-28"/>
  </outline>
</glyph>
<glyph name="iogonek" format="2">
  <advance width="353"/>
  <unicode hex="012F"/>
  <outline>
    <contour>
      <point x="306" y="482" type="curve"/>
      <point x="267" y="510" type="line"/>
      <point x="77" y="467" type="line"/>
      <point x="77" y="415" type="line"/>
      <point x="209" y="407" type="line"/>
      <point x="148" y="448" type="line"/>
      <point x="142" y="314"/>
      <point x="123" y="182"/>
      <point x="75" y="0" type="curve"/>
      <point x="109" y="-18" type="line"/>
      <point x="309" y="24" type="line"/>
      <point x="313" y="77" type="line"/>
      <point x="172" y="88" type="line"/>
      <point x="231" y="41" type="line"/>
      <point x="244" y="188"/>
      <point x="278" y="373"/>
    </contour>
    <component base="dotaccentcomb" xOffset="67" yOffset="20"/>
    <component base="ogonekcomb" xOffset="-39"/>
  </outline>
</glyph>
<glyph name="idotless" format="2">
  <advance width="319"/>
  <unicode hex="0131"/>
  <anchor x="162" y="0" name="bottom"/>
  <anchor x="157" y="0" name="ogonek"/>
  <anchor x="196" y="494" name="top"/>
  <outline>
    <contour>
      <point x="76" y="-15" type="line"/>
      <point x="276" y="27" type="line"/>
      <point x="280" y="80" type="line"/>
      <point x="139" y="91" type="line"/>
      <point x="198" y="44" type="line"/>
      <point x="211" y="191"/>
      <point x="245" y="376"/>
      <point x="273" y="485" type="curve"/>
      <point x="234" y="513" type="line"/>
      <point x="44" y="469" type="line"/>
      <point x="44" y="419" type="line"/>
      <point x="176" y="410" type="line"/>
      <point x="115" y="451" type="line"/>
      <point x="109" y="317"/>
      <point x="90" y="185"/>
      <point x="42" y="3" type="curve"/>
    </contour>
  </outline>
</glyph>
